<svg xmlns="http://www.w3.org/2000/svg" xmlns:dc="http://purl.org/dc/elements/1.1/" xmlns:ns2="http://creativecommons.org/ns#" xmlns:rdf="http://www.w3.org/1999/02/22-rdf-syntax-ns#" xmlns:xlink="http://www.w3.org/1999/xlink" height="259.0" viewBox="0.0 0.0 663.0 259.0" width="663.0">
<g class="graph" id="graph0" transform="scale(1.0 1.0) rotate(0) translate(4 255)">
<title>G</title>
<polygon fill="white" points="-4,4 -4,-255 659,-255 659,4 -4,4" stroke="transparent" />
<text fill="#444443" font-family="Junicode" font-size="14.00" text-anchor="middle" x="327.5" y="-235.8">7th decision tree for scribal features</text>
<g class="cluster" id="clust5">
<title>cluster_legend</title>
</g>
<g class="cluster" id="clust6">
<title>cluster_instance</title>
</g>

<g class="node" id="node1">
<title>node1</title>
<polygon fill="none" points="295,-115.5 234,-115.5 234,-102.5 295,-102.5 295,-115.5" stroke="#d67c03" stroke-dasharray="5,2" stroke-width="0.5" />
<text fill="#444443" font-family="Helvetica,sans-Serif" font-size="12.00" text-anchor="start" x="234" y="-105.9">w&#700;de@0.02</text>
</g>

<g class="node" id="node3">
<title>node4</title>
<text fill="#444443" font-family="Helvetica,sans-Serif" font-size="12.00" text-anchor="start" x="234.5" y="-77.9"> m&#299;n@0.08</text>
</g>


<g class="node" id="node5">
<title>leaf2</title>
<polygon fill="none" points="375,-221 312,-221 312,-141 375,-141 375,-221" stroke="#d67c03" stroke-dasharray="5,2" stroke-width="0.5" />
<svg height="72px" preserveAspectRatio="xMinYMin meet" version="1.1" viewBox="0 0 73.084 95.278891" width="55px" x="316.5" y="-217">
 <metadata>
  <rdf:RDF>
   <ns2:Work>
    <dc:type rdf:resource="http://purl.org/dc/dcmitype/StillImage" />
    <dc:date>2022-06-16T15:51:08.016548</dc:date>
    <dc:format>image/svg+xml</dc:format>
    <dc:creator>
     <ns2:Agent>
      <dc:title>Matplotlib v3.3.4, https://matplotlib.org/</dc:title>
     </ns2:Agent>
    </dc:creator>
   </ns2:Work>
  </rdf:RDF>
 </metadata>
 <defs>
  <style type="text/css">*{stroke-linecap:butt;stroke-linejoin:round;}</style>
 </defs>
 <g id="figure_1">
  <g id="patch_1">
   <path d="M 0 95.278891  L 73.084 95.278891  L 73.084 0  L 0 0  z " style="fill:#ffffff;" />
  </g>
  <g id="axes_1">
   <g id="patch_2">
    <path d="M 73.084 36.542  C 73.084 31.743349 72.13877 26.991358 70.302406 22.557982  C 68.466041 18.124606 65.774255 14.096063 62.381096 10.702904  C 58.987937 7.309745 54.959394 4.617959 50.526018 2.781594  C 46.092642 0.94523 41.340651 0 36.542 0  C 31.743349 0 26.991358 0.94523 22.557982 2.781594  C 18.124606 4.617959 14.096063 7.309745 10.702904 10.702904  C 7.309745 14.096063 4.617959 18.124606 2.781594 22.557982  C 0.94523 26.991358 0 31.743349 0 36.542  C 0 41.340651 0.94523 46.092642 2.781594 50.526018  C 4.617959 54.959394 7.309745 58.987937 10.702904 62.381096  C 14.096063 65.774255 18.124606 68.466041 22.557982 70.302406  C 26.991358 72.13877 31.743349 73.084 36.542 73.084  C 41.340651 73.084 46.092642 72.13877 50.526018 70.302406  C 54.959394 68.466041 58.987937 65.774255 62.381096 62.381096  C 65.774255 58.987937 68.466041 54.959394 70.302406 50.526018  C 72.13877 46.092642 73.084 41.340651 73.084 36.542  M 36.542 36.542  M 73.084 36.542  z " style="fill:#a1dab4;stroke:#444443;stroke-linejoin:miter;stroke-width:0.5;" />
   </g>
   <g id="text_1">
    
    <g style="fill:#444443;" transform="translate(27.740984 82.533766)scale(0.09 -0.09)">
     <defs>
      <path d="M 43.75 6.203125  Q 43.75 2.390625 49.359375 2.390625  Q 50.046875 2.390625 50.046875 1  Q 50.046875 -0.390625 49.359375 -0.390625  Q 45.609375 0 40.234375 0  Q 34.859375 0 30.90625 -0.390625  Q 30.21875 -0.390625 30.21875 1  Q 30.21875 2.390625 30.90625 2.390625  Q 36.28125 2.390625 36.28125 6.203125  L 36.28125 25.875  Q 36.28125 29.984375 35.5625 32.828125  Q 34.859375 35.6875 33.34375 36.890625  Q 31.84375 38.09375 28.03125 38.09375  Q 25.984375 38.09375 24.3125 37.25  Q 22.65625 36.421875 21.0625 35.265625  Q 19.484375 34.125 18.375 32.4375  Q 17.28125 30.765625 17.28125 28.8125  L 17.28125 6.203125  Q 17.28125 2.390625 22.515625 2.390625  Q 23.1875 2.390625 23.1875 1  Q 23.1875 -0.390625 22.515625 -0.390625  Q 18.75 0 13.375 0  Q 8.015625 0 4.203125 -0.390625  Q 3.515625 -0.390625 3.515625 1  Q 3.515625 2.390625 4.203125 2.390625  Q 9.8125 2.390625 9.8125 6.203125  L 9.8125 28.03125  Q 9.8125 34.28125 5.71875 34.28125  Q 4.890625 34.28125 4.890625 35.640625  Q 4.890625 37.015625 5.71875 37.015625  Q 7.5625 37.015625 9.984375 38.46875  Q 12.40625 39.9375 14.203125 41.515625  Q 16.015625 43.109375 16.75 43.109375  Q 17.4375 43.109375 17.4375 42.359375  Q 17.4375 41.609375 17.328125 40.3125  Q 17.234375 39.015625 17.234375 38.015625  Q 17.234375 37.015625 17.96875 37.015625  Q 18.359375 37.015625 18.703125 37.3125  Q 23.921875 42.484375 31.34375 42.484375  Q 38.578125 42.484375 42.140625 35.296875  Q 43.75 32.078125 43.75 23.1875  z " id="Junicode-110" />
      <path d="M 44.28125 29.109375  L 5.8125 29.109375  L 5.8125 33.984375  L 44.28125 33.984375  z M 44.28125 16.109375  L 5.8125 16.109375  L 5.8125 21  L 44.28125 21  z " id="Junicode-61" />
      <path d="M 39.703125 24.21875  Q 39.703125 13.71875 33.171875 6.46875  Q 26.65625 -0.78125 16.3125 -0.78125  Q 9.421875 -0.78125 6.953125 1.265625  Q 4.5 3.328125 4.5 5.421875  Q 4.5 9.421875 8.5 9.421875  Q 10.40625 9.421875 13.765625 6.375  Q 17.140625 3.328125 20.40625 3.328125  Q 25.875 3.328125 29.4375 8.625  Q 33.015625 13.921875 33.015625 19.828125  Q 33.015625 29.984375 26.125 34.03125  Q 22.3125 36.28125 16.796875 36.28125  Q 14.359375 36.28125 10.5 35.40625  L 9.859375 35.40625  Q 9.125 35.40625 9.125 36.53125  Q 9.125 36.765625 9.1875 37.015625  L 13.71875 62.890625  Q 13.96875 64.3125 15.28125 64.3125  L 38.28125 64.3125  Q 38.625 64.3125 38.625 63.484375  Q 38.625 60.890625 37.359375 58.25  Q 36.921875 57.328125 36.625 57.328125  L 17.921875 57.328125  Q 16.5 57.328125 16.3125 56  L 14.203125 44.578125  Q 14.0625 43.453125 14.796875 43.453125  L 18.703125 43.703125  Q 30.078125 43.703125 35.640625 36.921875  Q 39.703125 31.984375 39.703125 24.21875  z " id="Junicode-53" />
      <path d="M 39.984375 20.21875  Q 39.984375 11.1875 33.53125 5.03125  Q 27.09375 -1.125 18.109375 -1.125  Q 11.234375 -1.125 7.953125 1.125  Q 4.6875 3.375 4.6875 6.203125  Q 4.6875 7.671875 5.875 8.734375  Q 7.078125 9.8125 8.59375 9.8125  Q 10.359375 9.8125 13.640625 6.203125  Q 16.9375 2.59375 20.703125 2.59375  Q 25.984375 2.59375 29.203125 8.296875  Q 31.6875 12.890625 31.6875 18.890625  Q 31.6875 25.25 28.046875 29.46875  Q 24.421875 33.6875 17.921875 33.6875  Q 14.75 33.6875 12.40625 32.90625  Q 11.71875 32.90625 11.71875 34.90625  Q 11.71875 36.8125 12.40625 36.8125  Q 20.796875 36.8125 25.046875 40.59375  Q 29.296875 44.390625 29.296875 50.09375  Q 29.296875 55.03125 26.390625 57.46875  Q 23.484375 59.90625 20.125 59.90625  Q 14.359375 59.90625 10.015625 53.21875  Q 9.671875 52.6875 8.40625 53.71875  Q 7.171875 54.734375 7.515625 55.171875  Q 14.203125 65.09375 23.390625 65.09375  Q 29 65.09375 32.859375 60.96875  Q 36.71875 56.84375 36.71875 51.421875  Q 36.71875 43.265625 27.78125 38.1875  Q 26.21875 37.3125 26.21875 36.96875  Q 26.21875 36.421875 27.59375 36.1875  Q 39.984375 33.6875 39.984375 20.21875  z " id="Junicode-51" />
     </defs>
     <use xlink:href="#Junicode-110" />
     <use x="52.197266" xlink:href="#Junicode-61" />
     <use x="102.197266" xlink:href="#Junicode-53" />
     <use x="148.876953" xlink:href="#Junicode-51" />
    </g>
    
    <g style="fill:#444443;" transform="translate(33.795594 92.822172)scale(0.09 -0.09)">
     <defs>
      <path d="M 13.234375 9.078125  L 13.234375 57.234375  Q 13.234375 62.59375 4 62.59375  Q 3.328125 62.59375 3.328125 64.453125  Q 3.328125 66.3125 4 66.3125  Q 9.578125 66.015625 15.71875 66.015625  Q 21.875 66.015625 24.5625 66.15625  Q 27.25 66.3125 30.71875 66.3125  Q 39.15625 66.3125 44.875 62.359375  Q 50.59375 58.40625 50.59375 50.53125  Q 50.59375 40.828125 41.015625 36.375  Q 40.28125 36.03125 40.28125 35.75  Q 40.28125 35.40625 41.015625 35.15625  Q 46.296875 33.453125 50.703125 28.9375  Q 55.125 24.421875 55.125 16.9375  Q 55.125 10.015625 50.015625 4.828125  Q 44.921875 -0.34375 30.71875 -0.34375  Q 27.59375 -0.34375 23.875 -0.171875  Q 20.171875 0 14.3125 0  Q 8.453125 0 4.4375 -0.34375  Q 3.8125 -0.34375 3.8125 1.515625  Q 3.8125 3.375 4.4375 3.375  Q 13.234375 3.375 13.234375 9.078125  z M 21.046875 38.53125  Q 21.046875 36.765625 24.90625 36.765625  Q 42.1875 36.765625 42.1875 50.390625  Q 42.1875 63.328125 23.578125 63.328125  Q 21.046875 63.328125 21.046875 60.0625  z M 21.046875 13.53125  Q 21.046875 2.78125 30.03125 2.78125  Q 46.296875 2.78125 46.296875 18.171875  Q 46.296875 28.46875 35.453125 32.28125  Q 31.203125 33.6875 22.75 33.734375  Q 21.046875 33.734375 21.046875 32.28125  z " id="Junicode-66" />
     </defs>
     <use xlink:href="#Junicode-66" />
    </g>
   </g>
  </g>
 </g>
</svg></g>

<g class="edge" id="edge1">
<title>node1-&gt;leaf2</title>
<path d="M272.61,-115.64C280.91,-123.41 295.25,-136.82 308.79,-149.48" fill="none" stroke="#d67c03" stroke-width="1.2" />
<polygon fill="#d67c03" points="307.97,-150.63 311.85,-152.34 309.88,-148.58 307.97,-150.63" stroke="#d67c03" stroke-width="1.2" />
</g>

<g class="node" id="node6">
<title>leaf3</title>
<polygon fill="none" points="354,-129 333,-129 333,-93 354,-93 354,-129" stroke="#444443" stroke-width="0" />
<svg height="28px" preserveAspectRatio="xMinYMin meet" version="1.1" viewBox="0 0 17.516 37.488171" width="13px" x="337.5" y="-125">
 <metadata>
  <rdf:RDF>
   <ns2:Work>
    <dc:type rdf:resource="http://purl.org/dc/dcmitype/StillImage" />
    <dc:date>2022-06-16T15:51:08.048346</dc:date>
    <dc:format>image/svg+xml</dc:format>
    <dc:creator>
     <ns2:Agent>
      <dc:title>Matplotlib v3.3.4, https://matplotlib.org/</dc:title>
     </ns2:Agent>
    </dc:creator>
   </ns2:Work>
  </rdf:RDF>
 </metadata>
 <defs>
  <style type="text/css">*{stroke-linecap:butt;stroke-linejoin:round;}</style>
 </defs>
 <g id="figure_1">
  <g id="patch_1">
   <path d="M 0 37.488171  L 17.516 37.488171  L 17.516 0  L 0 0  z " style="fill:#ffffff;" />
  </g>
  <g id="axes_1">
   <g id="patch_2">
    <path d="M 17.516 8.758  C 17.516 6.436125 16.592655 4.206972 14.950841 2.565159  C 13.309028 0.923345 11.079875 -0 8.758 -0  C 6.436125 -0 4.206972 0.923345 2.565159 2.565159  C 0.923345 4.206972 -0 6.436125 -0 8.758  L 8.758 8.758  L 17.516 8.758  z " style="fill:#fefebb;stroke:#444443;stroke-linejoin:miter;stroke-width:0.5;" />
   </g>
   <g id="patch_3">
    <path d="M -0 8.758  C -0 11.079875 0.923345 13.309028 2.565159 14.950841  C 4.206972 16.592655 6.436125 17.516 8.758 17.516  C 11.079875 17.516 13.309028 16.592655 14.950841 14.950841  C 16.592655 13.309028 17.516 11.079875 17.516 8.758  L 8.758 8.758  L -0 8.758  z " style="fill:#a1dab4;stroke:#444443;stroke-linejoin:miter;stroke-width:0.5;" />
   </g>
   <g id="text_1">
    
    <g style="fill:#444443;" transform="translate(2.057922 24.743046)scale(0.09 -0.09)">
     <defs>
      <path d="M 43.75 6.203125  Q 43.75 2.390625 49.359375 2.390625  Q 50.046875 2.390625 50.046875 1  Q 50.046875 -0.390625 49.359375 -0.390625  Q 45.609375 0 40.234375 0  Q 34.859375 0 30.90625 -0.390625  Q 30.21875 -0.390625 30.21875 1  Q 30.21875 2.390625 30.90625 2.390625  Q 36.28125 2.390625 36.28125 6.203125  L 36.28125 25.875  Q 36.28125 29.984375 35.5625 32.828125  Q 34.859375 35.6875 33.34375 36.890625  Q 31.84375 38.09375 28.03125 38.09375  Q 25.984375 38.09375 24.3125 37.25  Q 22.65625 36.421875 21.0625 35.265625  Q 19.484375 34.125 18.375 32.4375  Q 17.28125 30.765625 17.28125 28.8125  L 17.28125 6.203125  Q 17.28125 2.390625 22.515625 2.390625  Q 23.1875 2.390625 23.1875 1  Q 23.1875 -0.390625 22.515625 -0.390625  Q 18.75 0 13.375 0  Q 8.015625 0 4.203125 -0.390625  Q 3.515625 -0.390625 3.515625 1  Q 3.515625 2.390625 4.203125 2.390625  Q 9.8125 2.390625 9.8125 6.203125  L 9.8125 28.03125  Q 9.8125 34.28125 5.71875 34.28125  Q 4.890625 34.28125 4.890625 35.640625  Q 4.890625 37.015625 5.71875 37.015625  Q 7.5625 37.015625 9.984375 38.46875  Q 12.40625 39.9375 14.203125 41.515625  Q 16.015625 43.109375 16.75 43.109375  Q 17.4375 43.109375 17.4375 42.359375  Q 17.4375 41.609375 17.328125 40.3125  Q 17.234375 39.015625 17.234375 38.015625  Q 17.234375 37.015625 17.96875 37.015625  Q 18.359375 37.015625 18.703125 37.3125  Q 23.921875 42.484375 31.34375 42.484375  Q 38.578125 42.484375 42.140625 35.296875  Q 43.75 32.078125 43.75 23.1875  z " id="Junicode-110" />
      <path d="M 44.28125 29.109375  L 5.8125 29.109375  L 5.8125 33.984375  L 44.28125 33.984375  z M 44.28125 16.109375  L 5.8125 16.109375  L 5.8125 21  L 44.28125 21  z " id="Junicode-61" />
      <path d="M 43.40625 61.71875  L 18.5 0  Q 18.171875 -0.6875 14.671875 -0.6875  Q 11.1875 -0.6875 11.1875 0  Q 11.8125 1.078125 13.671875 4.890625  L 16.703125 11.625  L 36.078125 55.609375  Q 36.53125 56.6875 36.53125 56.984375  Q 36.53125 57.71875 34.90625 57.71875  L 24.421875 57.71875  Q 16.453125 57.71875 14.109375 57.078125  Q 8.9375 55.671875 6.984375 50.6875  Q 6.6875 50 5.421875 50  Q 4.15625 50 4.109375 50.6875  L 6.59375 62.796875  Q 6.890625 64.3125 8.59375 64.3125  L 41.890625 64.3125  Q 43.796875 64.3125 43.796875 63.1875  Q 43.796875 62.640625 43.40625 61.71875  z " id="Junicode-55" />
     </defs>
     <use xlink:href="#Junicode-110" />
     <use x="52.197266" xlink:href="#Junicode-61" />
     <use x="102.197266" xlink:href="#Junicode-55" />
    </g>
    
    <g style="fill:#444443;" transform="translate(5.686047 35.031453)scale(0.09 -0.09)">
     <defs>
      <path d="M 0.484375 -0.34375  Q -0.203125 -0.34375 -0.203125 1.515625  Q -0.203125 3.375 0.484375 3.375  Q 5.21875 3.375 6.78125 4.734375  Q 8.34375 6.109375 10.015625 9.8125  L 28.421875 58.015625  Q 28.71875 58.84375 28.71875 59.46875  Q 28.71875 60.109375 28.078125 60.765625  Q 27.4375 61.421875 27.4375 61.71875  Q 27.4375 62.015625 29.359375 63.0625  Q 31.296875 64.109375 33.875 65.90625  Q 36.46875 67.71875 37.0625 67.71875  Q 38.1875 67.71875 38.765625 65.578125  Q 40.046875 60.84375 41.15625 57.46875  L 57.421875 9.078125  Q 59.328125 3.375 66.796875 3.375  Q 67.4375 3.375 67.4375 1.515625  Q 67.4375 -0.34375 66.796875 -0.34375  Q 63.234375 0 55.515625 0  Q 47.796875 0 44.28125 -0.34375  Q 43.609375 -0.34375 43.609375 1.515625  Q 43.609375 3.375 44.28125 3.375  Q 49.125 3.375 49.125 6.6875  Q 49.125 7.8125 48.734375 9.078125  L 43.796875 24.359375  Q 43.359375 25.921875 41.65625 25.921875  L 21.78125 25.921875  Q 20.40625 25.921875 19.828125 24.21875  L 14.3125 8.890625  Q 13.875 7.8125 13.875 6.9375  Q 13.875 3.375 21.234375 3.375  Q 21.921875 3.375 21.921875 1.515625  Q 21.921875 -0.34375 21.234375 -0.34375  Q 17.09375 0 10.84375 0  Q 4.59375 0 0.484375 -0.34375  z M 40.625 29.296875  Q 41.84375 29.296875 41.84375 30.078125  Q 41.84375 30.328125 41.75 30.609375  L 33.453125 56.59375  Q 33.15625 57.5625 32.5625 57.5625  Q 31.984375 57.5625 31.640625 56.59375  L 22.015625 30.609375  Q 21.921875 30.375 21.921875 30.078125  Q 21.921875 29.296875 23.09375 29.296875  z " id="Junicode-65" />
     </defs>
     <use xlink:href="#Junicode-65" />
    </g>
   </g>
  </g>
 </g>
</svg></g>

<g class="edge" id="edge2">
<title>node1-&gt;leaf3</title>
<path d="M295.05,-109.77C306.67,-110.07 319.45,-110.4 328.81,-110.64" fill="none" stroke="#444443" stroke-width="0.3" />
<polygon fill="#444443" points="328.82,-112.05 332.86,-110.75 328.89,-109.25 328.82,-112.05" stroke="#444443" stroke-width="0.3" />
</g>

<g class="node" id="node2">
<title>node5</title>
<text fill="#444443" font-family="Helvetica,sans-Serif" font-size="12.00" text-anchor="start" x="314.5" y="-76.9">e all@0.01</text>
</g>

<g class="node" id="node7">
<title>leaf6</title>
<polygon fill="none" points="584,-140.5 517,-140.5 517,-57.5 584,-57.5 584,-140.5" stroke="#444443" stroke-width="0" />
<svg height="75px" preserveAspectRatio="xMinYMin meet" version="1.1" viewBox="0 0 78.519988 100.932328" width="59px" x="521.5" y="-136">
 <metadata>
  <rdf:RDF>
   <ns2:Work>
    <dc:type rdf:resource="http://purl.org/dc/dcmitype/StillImage" />
    <dc:date>2022-06-16T15:51:08.090156</dc:date>
    <dc:format>image/svg+xml</dc:format>
    <dc:creator>
     <ns2:Agent>
      <dc:title>Matplotlib v3.3.4, https://matplotlib.org/</dc:title>
     </ns2:Agent>
    </dc:creator>
   </ns2:Work>
  </rdf:RDF>
 </metadata>
 <defs>
  <style type="text/css">*{stroke-linecap:butt;stroke-linejoin:round;}</style>
 </defs>
 <g id="figure_1">
  <g id="patch_1">
   <path d="M 0 100.932328  L 78.519988 100.932328  L 78.519988 0  L 0 0  z " style="fill:#ffffff;" />
  </g>
  <g id="axes_1">
   <g id="patch_2">
    <path d="M 78.519988 39.259996  C 78.519988 34.35947 77.602445 29.501986 75.814879 24.939117  C 74.027312 20.376249 71.401125 16.18815 68.072328 12.591725  C 64.74353 8.9953 60.7706 6.053727 56.359296 3.91935  C 51.947992 1.784974 47.175808 0.495289 42.289897 0.117088  C 37.403986 -0.261112 32.490178 0.278816 27.802961 1.708909  C 23.115745 3.139003 18.73746 5.434139 14.89486 8.475453  C 11.05226 11.516766 7.812847 15.25083 5.344392 19.484256  C 2.875936 23.717681 1.221802 28.376101 0.467657 33.218252  C -0.286488 38.060403 -0.127395 43.001225 0.936695 47.78483  C 2.000785 52.568435 3.95118 57.11079 6.686868 61.176645  C 9.422557 65.242499 12.895481 68.760429 16.925776 71.548239  C 20.956072 74.336048 25.472939 76.344765 30.242447 77.470356  C 35.011955 78.595947 39.950319 78.818639 44.801779 78.126899  C 49.653238 77.43516 54.332569 75.84114 58.597425 73.427395  C 62.862281 71.01365 66.637743 67.822582 69.728278 64.019457  C 72.818813 60.216332 75.17013 55.86796 76.660453 51.199545  L 39.259988 39.259996  L 78.519988 39.259996  z " style="fill:#fefebb;stroke:#444443;stroke-linejoin:miter;stroke-width:0.5;" />
   </g>
   <g id="patch_3">
    <path d="M 76.660453 51.199545  C 77.275664 49.272407 77.741005 47.300598 78.052319 45.30174  C 78.363633 43.302883 78.519988 41.282951 78.519988 39.259996  L 39.259988 39.259996  L 76.660453 51.199545  z " style="fill:#a1dab4;stroke:#444443;stroke-linejoin:miter;stroke-width:0.5;" />
   </g>
   <g id="text_1">
    
    <g style="fill:#444443;" transform="translate(30.458972 88.187203)scale(0.09 -0.09)">
     <defs>
      <path d="M 43.75 6.203125  Q 43.75 2.390625 49.359375 2.390625  Q 50.046875 2.390625 50.046875 1  Q 50.046875 -0.390625 49.359375 -0.390625  Q 45.609375 0 40.234375 0  Q 34.859375 0 30.90625 -0.390625  Q 30.21875 -0.390625 30.21875 1  Q 30.21875 2.390625 30.90625 2.390625  Q 36.28125 2.390625 36.28125 6.203125  L 36.28125 25.875  Q 36.28125 29.984375 35.5625 32.828125  Q 34.859375 35.6875 33.34375 36.890625  Q 31.84375 38.09375 28.03125 38.09375  Q 25.984375 38.09375 24.3125 37.25  Q 22.65625 36.421875 21.0625 35.265625  Q 19.484375 34.125 18.375 32.4375  Q 17.28125 30.765625 17.28125 28.8125  L 17.28125 6.203125  Q 17.28125 2.390625 22.515625 2.390625  Q 23.1875 2.390625 23.1875 1  Q 23.1875 -0.390625 22.515625 -0.390625  Q 18.75 0 13.375 0  Q 8.015625 0 4.203125 -0.390625  Q 3.515625 -0.390625 3.515625 1  Q 3.515625 2.390625 4.203125 2.390625  Q 9.8125 2.390625 9.8125 6.203125  L 9.8125 28.03125  Q 9.8125 34.28125 5.71875 34.28125  Q 4.890625 34.28125 4.890625 35.640625  Q 4.890625 37.015625 5.71875 37.015625  Q 7.5625 37.015625 9.984375 38.46875  Q 12.40625 39.9375 14.203125 41.515625  Q 16.015625 43.109375 16.75 43.109375  Q 17.4375 43.109375 17.4375 42.359375  Q 17.4375 41.609375 17.328125 40.3125  Q 17.234375 39.015625 17.234375 38.015625  Q 17.234375 37.015625 17.96875 37.015625  Q 18.359375 37.015625 18.703125 37.3125  Q 23.921875 42.484375 31.34375 42.484375  Q 38.578125 42.484375 42.140625 35.296875  Q 43.75 32.078125 43.75 23.1875  z " id="Junicode-110" />
      <path d="M 44.28125 29.109375  L 5.8125 29.109375  L 5.8125 33.984375  L 44.28125 33.984375  z M 44.28125 16.109375  L 5.8125 16.109375  L 5.8125 21  L 44.28125 21  z " id="Junicode-61" />
      <path d="M 23.09375 -0.78125  Q 14.3125 -0.78125 9.59375 5.984375  Q 4.890625 12.75 4.890625 22.703125  Q 4.890625 36.671875 14.53125 49.1875  Q 24.171875 61.71875 36.71875 67.28125  Q 37.5 67.578125 38.140625 66.40625  Q 38.71875 65.28125 37.984375 64.890625  Q 23.6875 56.78125 17.71875 44.046875  Q 14.890625 38.03125 13.71875 30.71875  Q 21.140625 37.40625 26.8125 37.40625  Q 33.734375 37.40625 37.953125 31.828125  Q 42.1875 26.265625 42.1875 19.09375  Q 42.1875 10.890625 36.890625 5.046875  Q 31.59375 -0.78125 23.09375 -0.78125  z M 24.3125 3.078125  Q 29.34375 3.078125 31.984375 7.203125  Q 34.625 11.328125 34.625 16.109375  Q 34.625 23.25 31.21875 27.5625  Q 27.828125 31.890625 22.90625 31.890625  Q 17.390625 31.890625 13.1875 26.515625  Q 12.890625 24.421875 12.890625 22.515625  Q 12.890625 9.46875 18.40625 5.03125  Q 20.84375 3.078125 24.3125 3.078125  z " id="Junicode-54" />
      <path d="M 39.984375 20.21875  Q 39.984375 11.1875 33.53125 5.03125  Q 27.09375 -1.125 18.109375 -1.125  Q 11.234375 -1.125 7.953125 1.125  Q 4.6875 3.375 4.6875 6.203125  Q 4.6875 7.671875 5.875 8.734375  Q 7.078125 9.8125 8.59375 9.8125  Q 10.359375 9.8125 13.640625 6.203125  Q 16.9375 2.59375 20.703125 2.59375  Q 25.984375 2.59375 29.203125 8.296875  Q 31.6875 12.890625 31.6875 18.890625  Q 31.6875 25.25 28.046875 29.46875  Q 24.421875 33.6875 17.921875 33.6875  Q 14.75 33.6875 12.40625 32.90625  Q 11.71875 32.90625 11.71875 34.90625  Q 11.71875 36.8125 12.40625 36.8125  Q 20.796875 36.8125 25.046875 40.59375  Q 29.296875 44.390625 29.296875 50.09375  Q 29.296875 55.03125 26.390625 57.46875  Q 23.484375 59.90625 20.125 59.90625  Q 14.359375 59.90625 10.015625 53.21875  Q 9.671875 52.6875 8.40625 53.71875  Q 7.171875 54.734375 7.515625 55.171875  Q 14.203125 65.09375 23.390625 65.09375  Q 29 65.09375 32.859375 60.96875  Q 36.71875 56.84375 36.71875 51.421875  Q 36.71875 43.265625 27.78125 38.1875  Q 26.21875 37.3125 26.21875 36.96875  Q 26.21875 36.421875 27.59375 36.1875  Q 39.984375 33.6875 39.984375 20.21875  z " id="Junicode-51" />
     </defs>
     <use xlink:href="#Junicode-110" />
     <use x="52.197266" xlink:href="#Junicode-61" />
     <use x="102.197266" xlink:href="#Junicode-54" />
     <use x="148.876953" xlink:href="#Junicode-51" />
    </g>
    
    <g style="fill:#444443;" transform="translate(36.188035 98.475609)scale(0.09 -0.09)">
     <defs>
      <path d="M 0.484375 -0.34375  Q -0.203125 -0.34375 -0.203125 1.515625  Q -0.203125 3.375 0.484375 3.375  Q 5.21875 3.375 6.78125 4.734375  Q 8.34375 6.109375 10.015625 9.8125  L 28.421875 58.015625  Q 28.71875 58.84375 28.71875 59.46875  Q 28.71875 60.109375 28.078125 60.765625  Q 27.4375 61.421875 27.4375 61.71875  Q 27.4375 62.015625 29.359375 63.0625  Q 31.296875 64.109375 33.875 65.90625  Q 36.46875 67.71875 37.0625 67.71875  Q 38.1875 67.71875 38.765625 65.578125  Q 40.046875 60.84375 41.15625 57.46875  L 57.421875 9.078125  Q 59.328125 3.375 66.796875 3.375  Q 67.4375 3.375 67.4375 1.515625  Q 67.4375 -0.34375 66.796875 -0.34375  Q 63.234375 0 55.515625 0  Q 47.796875 0 44.28125 -0.34375  Q 43.609375 -0.34375 43.609375 1.515625  Q 43.609375 3.375 44.28125 3.375  Q 49.125 3.375 49.125 6.6875  Q 49.125 7.8125 48.734375 9.078125  L 43.796875 24.359375  Q 43.359375 25.921875 41.65625 25.921875  L 21.78125 25.921875  Q 20.40625 25.921875 19.828125 24.21875  L 14.3125 8.890625  Q 13.875 7.8125 13.875 6.9375  Q 13.875 3.375 21.234375 3.375  Q 21.921875 3.375 21.921875 1.515625  Q 21.921875 -0.34375 21.234375 -0.34375  Q 17.09375 0 10.84375 0  Q 4.59375 0 0.484375 -0.34375  z M 40.625 29.296875  Q 41.84375 29.296875 41.84375 30.078125  Q 41.84375 30.328125 41.75 30.609375  L 33.453125 56.59375  Q 33.15625 57.5625 32.5625 57.5625  Q 31.984375 57.5625 31.640625 56.59375  L 22.015625 30.609375  Q 21.921875 30.375 21.921875 30.078125  Q 21.921875 29.296875 23.09375 29.296875  z " id="Junicode-65" />
     </defs>
     <use xlink:href="#Junicode-65" />
    </g>
   </g>
  </g>
 </g>
</svg></g>

<g class="edge" id="edge4">
<title>node5-&gt;leaf6</title>
<path d="M372.57,-82.6C408.86,-85.97 472.16,-91.83 512.39,-95.56" fill="none" stroke="#444443" stroke-width="0.3" />
<polygon fill="#444443" points="512.58,-96.98 516.69,-95.96 512.84,-94.2 512.58,-96.98" stroke="#444443" stroke-width="0.3" />
</g>

<g class="node" id="node8">
<title>leaf7</title>
<polygon fill="none" points="565.5,-46 535.5,-46 535.5,0 565.5,0 565.5,-46" stroke="#444443" stroke-width="0" />
<svg height="38px" preserveAspectRatio="xMinYMin meet" version="1.1" viewBox="0 0 29.596 50.051371" width="22px" x="539.5" y="-42">
 <metadata>
  <rdf:RDF>
   <ns2:Work>
    <dc:type rdf:resource="http://purl.org/dc/dcmitype/StillImage" />
    <dc:date>2022-06-16T15:51:08.129563</dc:date>
    <dc:format>image/svg+xml</dc:format>
    <dc:creator>
     <ns2:Agent>
      <dc:title>Matplotlib v3.3.4, https://matplotlib.org/</dc:title>
     </ns2:Agent>
    </dc:creator>
   </ns2:Work>
  </rdf:RDF>
 </metadata>
 <defs>
  <style type="text/css">*{stroke-linecap:butt;stroke-linejoin:round;}</style>
 </defs>
 <g id="figure_1">
  <g id="patch_1">
   <path d="M 0 50.051371  L 29.596 50.051371  L 29.596 0  L 0 0  z " style="fill:#ffffff;" />
  </g>
  <g id="axes_1">
   <g id="patch_2">
    <path d="M 29.596 14.798  C 29.596 10.874832 28.035865 7.108333 25.261766 4.334234  C 22.487667 1.560135 18.721168 0 14.798 0  C 10.874832 0 7.108333 1.560135 4.334234 4.334234  C 1.560135 7.108333 0 10.874832 0 14.798  L 14.798 14.798  L 29.596 14.798  z " style="fill:#fefebb;stroke:#444443;stroke-linejoin:miter;stroke-width:0.5;" />
   </g>
   <g id="patch_3">
    <path d="M 0 14.798  C 0 18.721168 1.560135 22.487667 4.334234 25.261766  C 7.108333 28.035865 10.874832 29.596 14.798 29.596  C 18.721168 29.596 22.487667 28.035865 25.261766 25.261766  C 28.035865 22.487667 29.596 18.721168 29.596 14.798  L 14.798 14.798  L 0 14.798  z " style="fill:#a1dab4;stroke:#444443;stroke-linejoin:miter;stroke-width:0.5;" />
   </g>
   <g id="text_1">
    
    <g style="fill:#444443;" transform="translate(5.996984 37.306246)scale(0.09 -0.09)">
     <defs>
      <path d="M 43.75 6.203125  Q 43.75 2.390625 49.359375 2.390625  Q 50.046875 2.390625 50.046875 1  Q 50.046875 -0.390625 49.359375 -0.390625  Q 45.609375 0 40.234375 0  Q 34.859375 0 30.90625 -0.390625  Q 30.21875 -0.390625 30.21875 1  Q 30.21875 2.390625 30.90625 2.390625  Q 36.28125 2.390625 36.28125 6.203125  L 36.28125 25.875  Q 36.28125 29.984375 35.5625 32.828125  Q 34.859375 35.6875 33.34375 36.890625  Q 31.84375 38.09375 28.03125 38.09375  Q 25.984375 38.09375 24.3125 37.25  Q 22.65625 36.421875 21.0625 35.265625  Q 19.484375 34.125 18.375 32.4375  Q 17.28125 30.765625 17.28125 28.8125  L 17.28125 6.203125  Q 17.28125 2.390625 22.515625 2.390625  Q 23.1875 2.390625 23.1875 1  Q 23.1875 -0.390625 22.515625 -0.390625  Q 18.75 0 13.375 0  Q 8.015625 0 4.203125 -0.390625  Q 3.515625 -0.390625 3.515625 1  Q 3.515625 2.390625 4.203125 2.390625  Q 9.8125 2.390625 9.8125 6.203125  L 9.8125 28.03125  Q 9.8125 34.28125 5.71875 34.28125  Q 4.890625 34.28125 4.890625 35.640625  Q 4.890625 37.015625 5.71875 37.015625  Q 7.5625 37.015625 9.984375 38.46875  Q 12.40625 39.9375 14.203125 41.515625  Q 16.015625 43.109375 16.75 43.109375  Q 17.4375 43.109375 17.4375 42.359375  Q 17.4375 41.609375 17.328125 40.3125  Q 17.234375 39.015625 17.234375 38.015625  Q 17.234375 37.015625 17.96875 37.015625  Q 18.359375 37.015625 18.703125 37.3125  Q 23.921875 42.484375 31.34375 42.484375  Q 38.578125 42.484375 42.140625 35.296875  Q 43.75 32.078125 43.75 23.1875  z " id="Junicode-110" />
      <path d="M 44.28125 29.109375  L 5.8125 29.109375  L 5.8125 33.984375  L 44.28125 33.984375  z M 44.28125 16.109375  L 5.8125 16.109375  L 5.8125 21  L 44.28125 21  z " id="Junicode-61" />
      <path d="M 11.1875 -0.390625  Q 10.5 -0.390625 10.5 1  Q 10.5 2.390625 11.1875 2.390625  Q 17.390625 2.390625 19.046875 4.265625  Q 20.703125 6.15625 20.703125 12.703125  L 20.703125 55.171875  Q 20.703125 57.46875 19.671875 57.46875  Q 19.34375 57.46875 18.5 57.078125  L 12.203125 54.203125  Q 11.671875 53.953125 11.171875 55.046875  Q 10.6875 56.15625 11.28125 56.5  Q 21.96875 61.671875 27.09375 66.796875  Q 27.390625 67.09375 27.875 67.09375  Q 28.515625 67.09375 28.515625 66.40625  Q 28.21875 60.296875 28.21875 58.015625  L 28.21875 12.796875  Q 28.21875 5.515625 30.359375 3.953125  Q 32.515625 2.390625 36.921875 2.390625  Q 37.59375 2.390625 37.59375 1  Q 37.59375 -0.390625 36.921875 -0.390625  Q 33.015625 0 24.03125 0  Q 15.046875 0 11.1875 -0.390625  z " id="Junicode-49" />
      <path d="M 43.40625 61.71875  L 18.5 0  Q 18.171875 -0.6875 14.671875 -0.6875  Q 11.1875 -0.6875 11.1875 0  Q 11.8125 1.078125 13.671875 4.890625  L 16.703125 11.625  L 36.078125 55.609375  Q 36.53125 56.6875 36.53125 56.984375  Q 36.53125 57.71875 34.90625 57.71875  L 24.421875 57.71875  Q 16.453125 57.71875 14.109375 57.078125  Q 8.9375 55.671875 6.984375 50.6875  Q 6.6875 50 5.421875 50  Q 4.15625 50 4.109375 50.6875  L 6.59375 62.796875  Q 6.890625 64.3125 8.59375 64.3125  L 41.890625 64.3125  Q 43.796875 64.3125 43.796875 63.1875  Q 43.796875 62.640625 43.40625 61.71875  z " id="Junicode-55" />
     </defs>
     <use xlink:href="#Junicode-110" />
     <use x="52.197266" xlink:href="#Junicode-61" />
     <use x="102.197266" xlink:href="#Junicode-49" />
     <use x="148.876953" xlink:href="#Junicode-55" />
    </g>
    
    <g style="fill:#444443;" transform="translate(11.726047 47.594652)scale(0.09 -0.09)">
     <defs>
      <path d="M 0.484375 -0.34375  Q -0.203125 -0.34375 -0.203125 1.515625  Q -0.203125 3.375 0.484375 3.375  Q 5.21875 3.375 6.78125 4.734375  Q 8.34375 6.109375 10.015625 9.8125  L 28.421875 58.015625  Q 28.71875 58.84375 28.71875 59.46875  Q 28.71875 60.109375 28.078125 60.765625  Q 27.4375 61.421875 27.4375 61.71875  Q 27.4375 62.015625 29.359375 63.0625  Q 31.296875 64.109375 33.875 65.90625  Q 36.46875 67.71875 37.0625 67.71875  Q 38.1875 67.71875 38.765625 65.578125  Q 40.046875 60.84375 41.15625 57.46875  L 57.421875 9.078125  Q 59.328125 3.375 66.796875 3.375  Q 67.4375 3.375 67.4375 1.515625  Q 67.4375 -0.34375 66.796875 -0.34375  Q 63.234375 0 55.515625 0  Q 47.796875 0 44.28125 -0.34375  Q 43.609375 -0.34375 43.609375 1.515625  Q 43.609375 3.375 44.28125 3.375  Q 49.125 3.375 49.125 6.6875  Q 49.125 7.8125 48.734375 9.078125  L 43.796875 24.359375  Q 43.359375 25.921875 41.65625 25.921875  L 21.78125 25.921875  Q 20.40625 25.921875 19.828125 24.21875  L 14.3125 8.890625  Q 13.875 7.8125 13.875 6.9375  Q 13.875 3.375 21.234375 3.375  Q 21.921875 3.375 21.921875 1.515625  Q 21.921875 -0.34375 21.234375 -0.34375  Q 17.09375 0 10.84375 0  Q 4.59375 0 0.484375 -0.34375  z M 40.625 29.296875  Q 41.84375 29.296875 41.84375 30.078125  Q 41.84375 30.328125 41.75 30.609375  L 33.453125 56.59375  Q 33.15625 57.5625 32.5625 57.5625  Q 31.984375 57.5625 31.640625 56.59375  L 22.015625 30.609375  Q 21.921875 30.375 21.921875 30.078125  Q 21.921875 29.296875 23.09375 29.296875  z " id="Junicode-65" />
     </defs>
     <use xlink:href="#Junicode-65" />
    </g>
   </g>
  </g>
 </g>
</svg></g>

<g class="edge" id="edge5">
<title>node5-&gt;leaf7</title>
<path d="M368.02,-73.46C409.42,-61.95 494.44,-38.31 531.53,-28" fill="none" stroke="#444443" stroke-width="0.3" />
<polygon fill="#444443" points="531.91,-29.34 535.39,-26.92 531.16,-26.65 531.91,-29.34" stroke="#444443" stroke-width="0.3" />
</g>

<g class="node" id="node9">
<title>leaf8</title>
<polygon fill="none" points="355.5,-61.5 331.5,-61.5 331.5,-22.5 355.5,-22.5 355.5,-61.5" stroke="#444443" stroke-width="0" />
<svg height="31px" preserveAspectRatio="xMinYMin meet" version="1.1" viewBox="0 0 21.14 41.257131" width="16px" x="335.5" y="-57">
 <metadata>
  <rdf:RDF>
   <ns2:Work>
    <dc:type rdf:resource="http://purl.org/dc/dcmitype/StillImage" />
    <dc:date>2022-06-16T15:51:08.177786</dc:date>
    <dc:format>image/svg+xml</dc:format>
    <dc:creator>
     <ns2:Agent>
      <dc:title>Matplotlib v3.3.4, https://matplotlib.org/</dc:title>
     </ns2:Agent>
    </dc:creator>
   </ns2:Work>
  </rdf:RDF>
 </metadata>
 <defs>
  <style type="text/css">*{stroke-linecap:butt;stroke-linejoin:round;}</style>
 </defs>
 <g id="figure_1">
  <g id="patch_1">
   <path d="M 0 41.257131  L 21.14 41.257131  L 21.14 0  L 0 0  z " style="fill:#ffffff;" />
  </g>
  <g id="axes_1">
   <g id="patch_2">
    <path d="M 21.14 10.57  C 21.14 9.18196 20.866586 7.807418 20.335407 6.525036  C 19.804227 5.242655 19.025611 4.077374 18.044119 3.095881  C 17.062626 2.114389 15.897345 1.335773 14.614964 0.804593  C 13.332582 0.273414 11.95804 0 10.57 0  C 9.18196 0 7.807418 0.273414 6.525036 0.804593  C 5.242655 1.335773 4.077374 2.114389 3.095881 3.095881  C 2.114389 4.077374 1.335773 5.242655 0.804593 6.525036  C 0.273414 7.807418 0 9.18196 0 10.57  C 0 11.95804 0.273414 13.332582 0.804593 14.614964  C 1.335773 15.897345 2.114389 17.062626 3.095881 18.044119  C 4.077374 19.025611 5.242655 19.804227 6.525036 20.335407  C 7.807418 20.866586 9.18196 21.14 10.57 21.14  C 11.95804 21.14 13.332582 20.866586 14.614964 20.335407  C 15.897345 19.804227 17.062626 19.025611 18.044119 18.044119  C 19.025611 17.062626 19.804227 15.897345 20.335407 14.614964  C 20.866586 13.332582 21.14 11.95804 21.14 10.57  M 10.57 10.57  M 21.14 10.57  z " style="fill:#a1dab4;stroke:#444443;stroke-linejoin:miter;stroke-width:0.5;" />
   </g>
   <g id="text_1">
    
    <g style="fill:#444443;" transform="translate(1.768984 28.512006)scale(0.09 -0.09)">
     <defs>
      <path d="M 43.75 6.203125  Q 43.75 2.390625 49.359375 2.390625  Q 50.046875 2.390625 50.046875 1  Q 50.046875 -0.390625 49.359375 -0.390625  Q 45.609375 0 40.234375 0  Q 34.859375 0 30.90625 -0.390625  Q 30.21875 -0.390625 30.21875 1  Q 30.21875 2.390625 30.90625 2.390625  Q 36.28125 2.390625 36.28125 6.203125  L 36.28125 25.875  Q 36.28125 29.984375 35.5625 32.828125  Q 34.859375 35.6875 33.34375 36.890625  Q 31.84375 38.09375 28.03125 38.09375  Q 25.984375 38.09375 24.3125 37.25  Q 22.65625 36.421875 21.0625 35.265625  Q 19.484375 34.125 18.375 32.4375  Q 17.28125 30.765625 17.28125 28.8125  L 17.28125 6.203125  Q 17.28125 2.390625 22.515625 2.390625  Q 23.1875 2.390625 23.1875 1  Q 23.1875 -0.390625 22.515625 -0.390625  Q 18.75 0 13.375 0  Q 8.015625 0 4.203125 -0.390625  Q 3.515625 -0.390625 3.515625 1  Q 3.515625 2.390625 4.203125 2.390625  Q 9.8125 2.390625 9.8125 6.203125  L 9.8125 28.03125  Q 9.8125 34.28125 5.71875 34.28125  Q 4.890625 34.28125 4.890625 35.640625  Q 4.890625 37.015625 5.71875 37.015625  Q 7.5625 37.015625 9.984375 38.46875  Q 12.40625 39.9375 14.203125 41.515625  Q 16.015625 43.109375 16.75 43.109375  Q 17.4375 43.109375 17.4375 42.359375  Q 17.4375 41.609375 17.328125 40.3125  Q 17.234375 39.015625 17.234375 38.015625  Q 17.234375 37.015625 17.96875 37.015625  Q 18.359375 37.015625 18.703125 37.3125  Q 23.921875 42.484375 31.34375 42.484375  Q 38.578125 42.484375 42.140625 35.296875  Q 43.75 32.078125 43.75 23.1875  z " id="Junicode-110" />
      <path d="M 44.28125 29.109375  L 5.8125 29.109375  L 5.8125 33.984375  L 44.28125 33.984375  z M 44.28125 16.109375  L 5.8125 16.109375  L 5.8125 21  L 44.28125 21  z " id="Junicode-61" />
      <path d="M 11.1875 -0.390625  Q 10.5 -0.390625 10.5 1  Q 10.5 2.390625 11.1875 2.390625  Q 17.390625 2.390625 19.046875 4.265625  Q 20.703125 6.15625 20.703125 12.703125  L 20.703125 55.171875  Q 20.703125 57.46875 19.671875 57.46875  Q 19.34375 57.46875 18.5 57.078125  L 12.203125 54.203125  Q 11.671875 53.953125 11.171875 55.046875  Q 10.6875 56.15625 11.28125 56.5  Q 21.96875 61.671875 27.09375 66.796875  Q 27.390625 67.09375 27.875 67.09375  Q 28.515625 67.09375 28.515625 66.40625  Q 28.21875 60.296875 28.21875 58.015625  L 28.21875 12.796875  Q 28.21875 5.515625 30.359375 3.953125  Q 32.515625 2.390625 36.921875 2.390625  Q 37.59375 2.390625 37.59375 1  Q 37.59375 -0.390625 36.921875 -0.390625  Q 33.015625 0 24.03125 0  Q 15.046875 0 11.1875 -0.390625  z " id="Junicode-49" />
      <path d="M 43.3125 31.390625  Q 43.3125 17.671875 38.0625 8.4375  Q 32.8125 -0.78125 23.140625 -0.78125  Q 13.484375 -0.78125 8.453125 8.4375  Q 3.421875 17.671875 3.421875 32.515625  Q 3.421875 47.359375 8.6875 56.21875  Q 13.96875 65.09375 23.390625 65.09375  Q 33.109375 65.09375 38.203125 55.59375  Q 43.3125 46.09375 43.3125 31.390625  z M 34.625 30.8125  Q 34.625 42.1875 32.640625 52.046875  Q 30.671875 61.921875 23.484375 61.921875  Q 17.484375 61.921875 14.703125 53.125  Q 11.921875 44.34375 11.921875 33.640625  Q 11.921875 15.328125 15.234375 8.90625  Q 18.5625 2.484375 23.1875 2.484375  Q 28.609375 2.484375 31.609375 9.296875  Q 34.625 16.109375 34.625 30.8125  z " id="Junicode-48" />
     </defs>
     <use xlink:href="#Junicode-110" />
     <use x="52.197266" xlink:href="#Junicode-61" />
     <use x="102.197266" xlink:href="#Junicode-49" />
     <use x="148.876953" xlink:href="#Junicode-48" />
    </g>
    
    <g style="fill:#444443;" transform="translate(7.823594 38.800413)scale(0.09 -0.09)">
     <defs>
      <path d="M 13.234375 9.078125  L 13.234375 57.234375  Q 13.234375 62.59375 4 62.59375  Q 3.328125 62.59375 3.328125 64.453125  Q 3.328125 66.3125 4 66.3125  Q 9.578125 66.015625 15.71875 66.015625  Q 21.875 66.015625 24.5625 66.15625  Q 27.25 66.3125 30.71875 66.3125  Q 39.15625 66.3125 44.875 62.359375  Q 50.59375 58.40625 50.59375 50.53125  Q 50.59375 40.828125 41.015625 36.375  Q 40.28125 36.03125 40.28125 35.75  Q 40.28125 35.40625 41.015625 35.15625  Q 46.296875 33.453125 50.703125 28.9375  Q 55.125 24.421875 55.125 16.9375  Q 55.125 10.015625 50.015625 4.828125  Q 44.921875 -0.34375 30.71875 -0.34375  Q 27.59375 -0.34375 23.875 -0.171875  Q 20.171875 0 14.3125 0  Q 8.453125 0 4.4375 -0.34375  Q 3.8125 -0.34375 3.8125 1.515625  Q 3.8125 3.375 4.4375 3.375  Q 13.234375 3.375 13.234375 9.078125  z M 21.046875 38.53125  Q 21.046875 36.765625 24.90625 36.765625  Q 42.1875 36.765625 42.1875 50.390625  Q 42.1875 63.328125 23.578125 63.328125  Q 21.046875 63.328125 21.046875 60.0625  z M 21.046875 13.53125  Q 21.046875 2.78125 30.03125 2.78125  Q 46.296875 2.78125 46.296875 18.171875  Q 46.296875 28.46875 35.453125 32.28125  Q 31.203125 33.6875 22.75 33.734375  Q 21.046875 33.734375 21.046875 32.28125  z " id="Junicode-66" />
     </defs>
     <use xlink:href="#Junicode-66" />
    </g>
   </g>
  </g>
 </g>
</svg></g>


<g class="edge" id="edge7">
<title>node4-&gt;node5</title>
<path d="M294.61,-80.62C299.67,-80.56 304.96,-80.49 310.09,-80.42" fill="none" stroke="#444443" stroke-width="0.3" />
<polygon fill="#444443" points="310.39,-81.82 314.37,-80.37 310.35,-79.02 310.39,-81.82" stroke="#444443" stroke-width="0.3" />
</g>

<g class="edge" id="edge8">
<title>node4-&gt;leaf8</title>
<path d="M278.56,-74.38C292.05,-67.55 313.09,-56.9 327.31,-49.69" fill="none" stroke="#444443" stroke-width="0.3" />
<polygon fill="#444443" points="328.2,-50.81 331.13,-47.76 326.93,-48.32 328.2,-50.81" stroke="#444443" stroke-width="0.3" />
</g>

<g class="node" id="node4">
<title>node0</title>
<polygon fill="none" points="135,-102.5 74,-102.5 74,-89.5 135,-89.5 135,-102.5" stroke="#d67c03" stroke-dasharray="5,2" stroke-width="0.5" />
<text fill="#444443" font-family="Helvetica,sans-Serif" font-size="12.00" text-anchor="start" x="74" y="-92.9"> van @0.01</text>
</g>

<g class="edge" id="edge10">
<title>node0-&gt;node1</title>
<path d="M135.22,-98.45C162.14,-100.66 201.78,-103.92 229.86,-106.23" fill="none" stroke="#d67c03" stroke-width="1.2" />
<polygon fill="#d67c03" points="229.81,-107.63 233.91,-106.57 230.04,-104.84 229.81,-107.63" stroke="#d67c03" stroke-width="1.2" />
<text font-family="Times,serif" font-size="14.00" text-anchor="start" x="217.5" y="-108.8">&#8804;</text>
</g>

<g class="edge" id="edge11">
<title>node0-&gt;node4</title>
<path d="M135.22,-93.18C162.31,-90.61 202.28,-86.81 230.39,-84.14" fill="none" stroke="#444443" stroke-width="0.3" />
<polygon fill="#444443" points="230.6,-85.53 234.45,-83.76 230.33,-82.74 230.6,-85.53" stroke="#444443" stroke-width="0.3" />
<text font-family="Times,serif" font-size="14.00" text-anchor="start" x="217" y="-88.8">&gt;</text>
</g>


<g class="node" id="node11">
<title>X_y</title>
<polygon fill="none" points="584,-197 517,-197 517,-165 584,-165 584,-197" stroke="black" stroke-width="0.3" />
<polygon fill="white" points="519.5,-181 519.5,-195 545.5,-195 545.5,-181 519.5,-181" stroke="transparent" />
<text fill="#d67c03" font-family="Helvetica,sans-Serif" font-size="11.00" text-anchor="start" x="520.5" y="-185.2"> van </text>
<polygon fill="white" points="545.5,-181 545.5,-195 570.5,-195 570.5,-181 545.5,-181" stroke="transparent" />
<text fill="#d67c03" font-family="Helvetica,sans-Serif" font-size="11.00" text-anchor="start" x="546.5" y="-185.2">w&#700;de</text>
<polygon fill="white" points="570.5,-181 570.5,-195 582.5,-195 582.5,-181 570.5,-181" stroke="transparent" />
<text fill="#444443" font-family="Helvetica,sans-Serif" font-size="11.00" text-anchor="start" x="571.5" y="-185.2">...</text>
<polygon fill="white" points="519.5,-167 519.5,-181 545.5,-181 545.5,-167 519.5,-167" stroke="transparent" />
<text fill="#d67c03" font-family="Helvetica,sans-Serif" font-size="11.00" text-anchor="start" x="522.5" y="-171.2">0.01</text>
<polygon fill="white" points="545.5,-167 545.5,-181 570.5,-181 570.5,-167 545.5,-167" stroke="transparent" />
<text fill="#d67c03" font-family="Helvetica,sans-Serif" font-size="11.00" text-anchor="start" x="547.5" y="-171.2">0.01</text>
<polygon fill="white" points="570.5,-167 570.5,-181 582.5,-181 582.5,-167 570.5,-167" stroke="transparent" />
<text fill="#444443" font-family="Helvetica,sans-Serif" font-size="11.00" text-anchor="start" x="571.5" y="-171.2">...</text>
</g>

<g class="edge" id="edge13">
<title>leaf2-&gt;X_y</title>
<path d="M379.3,-181C417.79,-181 479.32,-181 516.9,-181" fill="none" stroke="#d67c03" stroke-width="1.2" />
<polygon fill="#d67c03" points="379.19,-179.6 375.19,-181 379.19,-182.4 379.19,-179.6" stroke="#d67c03" stroke-width="1.2" />
<text fill="#444443" font-family="Helvetica,sans-Serif" font-size="11.00" text-anchor="start" x="383" y="-196.2"> &#160;Prediction</text>
<text fill="#444443" font-family="Helvetica,sans-Serif" font-size="11.00" text-anchor="start" x="405" y="-184.2"> B</text>
</g>


<g class="node" id="node10">
<title>legend</title>
<polygon fill="none" points="153,-185 56,-185 56,-137 153,-137 153,-185" stroke="black" stroke-width="0" />
<svg height="44px" preserveAspectRatio="xMinYMin meet" version="1.1" viewBox="0 0 123.16875 58.721875" width="93px" x="58.5" y="-183">
 <metadata>
  <rdf:RDF>
   <ns2:Work>
    <dc:type rdf:resource="http://purl.org/dc/dcmitype/StillImage" />
    <dc:date>2022-06-16T15:51:07.949115</dc:date>
    <dc:format>image/svg+xml</dc:format>
    <dc:creator>
     <ns2:Agent>
      <dc:title>Matplotlib v3.3.4, https://matplotlib.org/</dc:title>
     </ns2:Agent>
    </dc:creator>
   </ns2:Work>
  </rdf:RDF>
 </metadata>
 <defs>
  <style type="text/css">*{stroke-linecap:butt;stroke-linejoin:round;}</style>
 </defs>
 <g id="figure_1">
  <g id="patch_1">
   <path d="M 0 58.721875  L 123.16875 58.721875  L 123.16875 0  L 0 0  z " style="fill:#ffffff;" />
  </g>
  <g id="axes_1">
   <g id="legend_1">
    <g id="patch_2">
     <path d="M 2.2 58.721875  L 120.96875 58.721875  Q 123.16875 58.721875 123.16875 56.521875  L 123.16875 2.2  Q 123.16875 0 120.96875 0  L 2.2 0  Q -0 0 -0 2.2  L -0 56.521875  Q -0 58.721875 2.2 58.721875  z " style="fill:#eaeaf2;opacity:0.8;stroke:#444443;stroke-linejoin:miter;stroke-width:0.5;" />
    </g>
    <g id="text_1">
     
     <g style="fill:#444443;" transform="translate(8.8 15.957813)scale(0.1 -0.1)">
      <defs>
       <path d="M 7.328125 0  L 7.328125 71.578125  L 21.78125 71.578125  L 21.78125 43.40625  L 50.09375 43.40625  L 50.09375 71.578125  L 64.546875 71.578125  L 64.546875 0  L 50.09375 0  L 50.09375 31.296875  L 21.78125 31.296875  L 21.78125 0  z " id="Arial-BoldMT-72" />
       <path d="M 17.4375 36.03125  L 4.984375 38.28125  Q 7.078125 45.796875 12.203125 49.40625  Q 17.328125 53.03125 27.4375 53.03125  Q 36.625 53.03125 41.109375 50.859375  Q 45.609375 48.6875 47.4375 45.34375  Q 49.265625 42 49.265625 33.0625  L 49.125 17.046875  Q 49.125 10.203125 49.78125 6.953125  Q 50.4375 3.71875 52.25 0  L 38.671875 0  Q 38.140625 1.375 37.359375 4.046875  Q 37.015625 5.28125 36.859375 5.671875  Q 33.34375 2.25 29.34375 0.53125  Q 25.34375 -1.171875 20.796875 -1.171875  Q 12.796875 -1.171875 8.171875 3.171875  Q 3.5625 7.515625 3.5625 14.15625  Q 3.5625 18.5625 5.65625 22  Q 7.765625 25.4375 11.546875 27.265625  Q 15.328125 29.109375 22.46875 30.46875  Q 32.078125 32.28125 35.796875 33.84375  L 35.796875 35.203125  Q 35.796875 39.15625 33.84375 40.84375  Q 31.890625 42.53125 26.46875 42.53125  Q 22.796875 42.53125 20.75 41.09375  Q 18.703125 39.65625 17.4375 36.03125  z M 35.796875 24.90625  Q 33.15625 24.03125 27.4375 22.796875  Q 21.734375 21.578125 19.96875 20.40625  Q 17.28125 18.5 17.28125 15.578125  Q 17.28125 12.703125 19.421875 10.59375  Q 21.578125 8.5 24.90625 8.5  Q 28.609375 8.5 31.984375 10.9375  Q 34.46875 12.796875 35.25 15.484375  Q 35.796875 17.234375 35.796875 22.171875  z " id="Arial-BoldMT-97" />
       <path d="M 54.734375 0  L 42 0  L 42 7.625  Q 38.8125 3.171875 34.484375 1  Q 30.171875 -1.171875 25.78125 -1.171875  Q 16.84375 -1.171875 10.46875 6.03125  Q 4.109375 13.234375 4.109375 26.125  Q 4.109375 39.3125 10.296875 46.171875  Q 16.5 53.03125 25.984375 53.03125  Q 34.671875 53.03125 41.015625 45.796875  L 41.015625 71.578125  L 54.734375 71.578125  z M 18.109375 27.046875  Q 18.109375 18.75 20.40625 15.046875  Q 23.734375 9.671875 29.6875 9.671875  Q 34.421875 9.671875 37.734375 13.6875  Q 41.0625 17.71875 41.0625 25.734375  Q 41.0625 34.671875 37.84375 38.59375  Q 34.625 42.53125 29.59375 42.53125  Q 24.703125 42.53125 21.40625 38.640625  Q 18.109375 34.765625 18.109375 27.046875  z " id="Arial-BoldMT-100" />
       <path d="M 37.203125 16.5  L 50.875 14.203125  Q 48.25 6.6875 42.546875 2.75  Q 36.859375 -1.171875 28.328125 -1.171875  Q 14.796875 -1.171875 8.296875 7.671875  Q 3.171875 14.75 3.171875 25.53125  Q 3.171875 38.421875 9.90625 45.71875  Q 16.65625 53.03125 26.953125 53.03125  Q 38.53125 53.03125 45.21875 45.390625  Q 51.90625 37.75 51.609375 21.96875  L 17.234375 21.96875  Q 17.390625 15.875 20.5625 12.46875  Q 23.734375 9.078125 28.46875 9.078125  Q 31.6875 9.078125 33.875 10.828125  Q 36.078125 12.59375 37.203125 16.5  z M 37.984375 30.375  Q 37.84375 36.328125 34.90625 39.421875  Q 31.984375 42.53125 27.78125 42.53125  Q 23.296875 42.53125 20.359375 39.265625  Q 17.4375 35.984375 17.484375 30.375  z " id="Arial-BoldMT-101" />
       <path d="M 16.84375 0  L 0.4375 51.859375  L 13.765625 51.859375  L 23.484375 17.875  L 32.421875 51.859375  L 45.65625 51.859375  L 54.296875 17.875  L 64.203125 51.859375  L 77.734375 51.859375  L 61.078125 0  L 47.90625 0  L 38.96875 33.34375  L 30.171875 0  z " id="Arial-BoldMT-119" />
       <path d="M 7.171875 58.890625  L 7.171875 71.578125  L 20.90625 71.578125  L 20.90625 58.890625  z M 7.171875 0  L 7.171875 51.859375  L 20.90625 51.859375  L 20.90625 0  z " id="Arial-BoldMT-105" />
       <path d="M 6.890625 58.890625  L 6.890625 71.578125  L 20.609375 71.578125  L 20.609375 58.890625  z M 20.609375 51.859375  L 20.609375 1.609375  Q 20.609375 -8.296875 19.3125 -12.375  Q 18.015625 -16.453125 14.328125 -18.75  Q 10.640625 -21.046875 4.9375 -21.046875  Q 2.875 -21.046875 0.5 -20.671875  Q -1.859375 -20.3125 -4.59375 -19.578125  L -2.203125 -7.859375  Q -1.21875 -8.0625 -0.359375 -8.171875  Q 0.484375 -8.296875 1.21875 -8.296875  Q 3.328125 -8.296875 4.65625 -7.390625  Q 6 -6.5 6.4375 -5.21875  Q 6.890625 -3.953125 6.890625 2.390625  L 6.890625 51.859375  z " id="Arial-BoldMT-106" />
       <path d="M 52.390625 36.53125  L 38.875 34.078125  Q 38.1875 38.140625 35.765625 40.1875  Q 33.34375 42.234375 29.5 42.234375  Q 24.359375 42.234375 21.3125 38.6875  Q 18.265625 35.15625 18.265625 26.859375  Q 18.265625 17.625 21.359375 13.8125  Q 24.46875 10.015625 29.6875 10.015625  Q 33.59375 10.015625 36.078125 12.234375  Q 38.578125 14.453125 39.59375 19.875  L 53.078125 17.578125  Q 50.984375 8.296875 45.015625 3.5625  Q 39.0625 -1.171875 29.046875 -1.171875  Q 17.671875 -1.171875 10.90625 6  Q 4.15625 13.1875 4.15625 25.875  Q 4.15625 38.71875 10.9375 45.875  Q 17.71875 53.03125 29.296875 53.03125  Q 38.765625 53.03125 44.359375 48.953125  Q 49.953125 44.875 52.390625 36.53125  z " id="Arial-BoldMT-99" />
       <path d="M 20.84375 71.578125  L 20.84375 45.265625  Q 27.484375 53.03125 36.71875 53.03125  Q 41.453125 53.03125 45.265625 51.265625  Q 49.078125 49.515625 51 46.78125  Q 52.9375 44.046875 53.640625 40.71875  Q 54.34375 37.40625 54.34375 30.421875  L 54.34375 0  L 40.625 0  L 40.625 27.390625  Q 40.625 35.546875 39.84375 37.734375  Q 39.0625 39.9375 37.078125 41.234375  Q 35.109375 42.53125 32.125 42.53125  Q 28.71875 42.53125 26.03125 40.859375  Q 23.34375 39.203125 22.09375 35.859375  Q 20.84375 32.515625 20.84375 25.984375  L 20.84375 0  L 7.125 0  L 7.125 71.578125  z " id="Arial-BoldMT-104" />
       <path id="Arial-BoldMT-32" />
       <path d="M 7.078125 0  L 7.078125 71.578125  L 28.71875 71.578125  L 41.703125 22.75  L 54.546875 71.578125  L 76.21875 71.578125  L 76.21875 0  L 62.796875 0  L 62.796875 56.34375  L 48.578125 0  L 34.671875 0  L 20.515625 56.34375  L 20.515625 0  z " id="Arial-BoldMT-77" />
       <path d="M 54.34375 0  L 40.625 0  L 40.625 26.46875  Q 40.625 34.859375 39.75 37.328125  Q 38.875 39.796875 36.890625 41.15625  Q 34.90625 42.53125 32.125 42.53125  Q 28.5625 42.53125 25.734375 40.578125  Q 22.90625 38.625 21.84375 35.390625  Q 20.796875 32.171875 20.796875 23.484375  L 20.796875 0  L 7.078125 0  L 7.078125 51.859375  L 19.828125 51.859375  L 19.828125 44.234375  Q 26.609375 53.03125 36.921875 53.03125  Q 41.453125 53.03125 45.203125 51.390625  Q 48.96875 49.75 50.890625 47.203125  Q 52.828125 44.671875 53.578125 41.453125  Q 54.34375 38.234375 54.34375 32.234375  z " id="Arial-BoldMT-110" />
       <path d="M 41.3125 0  L 41.3125 7.765625  Q 38.484375 3.609375 33.859375 1.21875  Q 29.25 -1.171875 24.125 -1.171875  Q 18.890625 -1.171875 14.734375 1.125  Q 10.59375 3.421875 8.734375 7.5625  Q 6.890625 11.71875 6.890625 19.046875  L 6.890625 51.859375  L 20.609375 51.859375  L 20.609375 28.03125  Q 20.609375 17.09375 21.359375 14.625  Q 22.125 12.15625 24.125 10.71875  Q 26.125 9.28125 29.203125 9.28125  Q 32.71875 9.28125 35.5 11.203125  Q 38.28125 13.140625 39.296875 15.984375  Q 40.328125 18.84375 40.328125 29.984375  L 40.328125 51.859375  L 54.046875 51.859375  L 54.046875 0  z " id="Arial-BoldMT-117" />
       <path d="M 2.34375 14.796875  L 16.109375 16.890625  Q 17 12.890625 19.671875 10.8125  Q 22.359375 8.734375 27.203125 8.734375  Q 32.515625 8.734375 35.203125 10.6875  Q 37.015625 12.0625 37.015625 14.359375  Q 37.015625 15.921875 36.03125 16.9375  Q 35.015625 17.921875 31.453125 18.75  Q 14.84375 22.40625 10.40625 25.4375  Q 4.25 29.640625 4.25 37.109375  Q 4.25 43.84375 9.5625 48.4375  Q 14.890625 53.03125 26.078125 53.03125  Q 36.71875 53.03125 41.890625 49.5625  Q 47.078125 46.09375 49.03125 39.3125  L 36.078125 36.921875  Q 35.25 39.9375 32.921875 41.546875  Q 30.609375 43.171875 26.3125 43.171875  Q 20.90625 43.171875 18.5625 41.65625  Q 17 40.578125 17 38.875  Q 17 37.40625 18.359375 36.375  Q 20.21875 35.015625 31.171875 32.515625  Q 42.140625 30.03125 46.484375 26.421875  Q 50.78125 22.75 50.78125 16.21875  Q 50.78125 9.078125 44.828125 3.953125  Q 38.875 -1.171875 27.203125 -1.171875  Q 16.609375 -1.171875 10.421875 3.125  Q 4.25 7.421875 2.34375 14.796875  z " id="Arial-BoldMT-115" />
       <path d="M 20.3125 0  L 6.59375 0  L 6.59375 51.859375  L 19.34375 51.859375  L 19.34375 44.484375  Q 22.609375 49.703125 25.21875 51.359375  Q 27.828125 53.03125 31.15625 53.03125  Q 35.84375 53.03125 40.1875 50.4375  L 35.9375 38.484375  Q 32.46875 40.71875 29.5 40.71875  Q 26.609375 40.71875 24.609375 39.125  Q 22.609375 37.546875 21.453125 33.390625  Q 20.3125 29.25 20.3125 16.015625  z " id="Arial-BoldMT-114" />
       <path d="M 6.78125 51.859375  L 19.578125 51.859375  L 19.578125 44.234375  Q 22.078125 48.140625 26.3125 50.578125  Q 30.5625 53.03125 35.75 53.03125  Q 44.78125 53.03125 51.078125 45.953125  Q 57.375 38.875 57.375 26.21875  Q 57.375 13.234375 51.015625 6.03125  Q 44.671875 -1.171875 35.640625 -1.171875  Q 31.34375 -1.171875 27.84375 0.53125  Q 24.359375 2.25 20.515625 6.390625  L 20.515625 -19.734375  L 6.78125 -19.734375  z M 20.359375 26.8125  Q 20.359375 18.0625 23.828125 13.890625  Q 27.296875 9.71875 32.28125 9.71875  Q 37.0625 9.71875 40.234375 13.546875  Q 43.40625 17.390625 43.40625 26.125  Q 43.40625 34.28125 40.125 38.234375  Q 36.859375 42.1875 32.03125 42.1875  Q 27 42.1875 23.671875 38.296875  Q 20.359375 34.421875 20.359375 26.8125  z " id="Arial-BoldMT-112" />
       <path d="M 30.953125 51.859375  L 30.953125 40.921875  L 21.578125 40.921875  L 21.578125 20.015625  Q 21.578125 13.671875 21.84375 12.625  Q 22.125 11.578125 23.078125 10.890625  Q 24.03125 10.203125 25.390625 10.203125  Q 27.296875 10.203125 30.90625 11.53125  L 32.078125 0.875  Q 27.296875 -1.171875 21.234375 -1.171875  Q 17.53125 -1.171875 14.546875 0.0625  Q 11.578125 1.3125 10.1875 3.296875  Q 8.796875 5.28125 8.25 8.640625  Q 7.8125 11.03125 7.8125 18.3125  L 7.8125 40.921875  L 1.515625 40.921875  L 1.515625 51.859375  L 7.8125 51.859375  L 7.8125 62.15625  L 21.578125 70.171875  L 21.578125 51.859375  z " id="Arial-BoldMT-116" />
      </defs>
      <use xlink:href="#Arial-BoldMT-72" />
      <use x="72.216797" xlink:href="#Arial-BoldMT-97" />
      <use x="127.832031" xlink:href="#Arial-BoldMT-100" />
      <use x="188.916016" xlink:href="#Arial-BoldMT-101" />
      <use x="244.53125" xlink:href="#Arial-BoldMT-119" />
      <use x="322.314453" xlink:href="#Arial-BoldMT-105" />
      <use x="350.097656" xlink:href="#Arial-BoldMT-106" />
      <use x="377.880859" xlink:href="#Arial-BoldMT-99" />
      <use x="433.496094" xlink:href="#Arial-BoldMT-104" />
      <use x="494.580078" xlink:href="#Arial-BoldMT-32" />
      <use x="522.363281" xlink:href="#Arial-BoldMT-77" />
      <use x="605.664062" xlink:href="#Arial-BoldMT-97" />
      <use x="661.279297" xlink:href="#Arial-BoldMT-110" />
      <use x="722.363281" xlink:href="#Arial-BoldMT-117" />
      <use x="783.447266" xlink:href="#Arial-BoldMT-115" />
      <use x="839.0625" xlink:href="#Arial-BoldMT-99" />
      <use x="894.677734" xlink:href="#Arial-BoldMT-114" />
      <use x="933.59375" xlink:href="#Arial-BoldMT-105" />
      <use x="961.376953" xlink:href="#Arial-BoldMT-112" />
      <use x="1022.460938" xlink:href="#Arial-BoldMT-116" />
     </g>
    </g>
    <g id="patch_3">
     <path d="M 45.246094 31.2625  L 67.246094 31.2625  L 67.246094 23.5625  L 45.246094 23.5625  z " style="fill:#fefebb;stroke:#444443;stroke-linejoin:miter;stroke-width:0.4;" />
    </g>
    <g id="text_2">
     
     <g style="fill:#444443;" transform="translate(71.096094 31.2625)scale(0.1 -0.1)">
      <defs>
       <path d="M 0.484375 -0.34375  Q -0.203125 -0.34375 -0.203125 1.515625  Q -0.203125 3.375 0.484375 3.375  Q 5.21875 3.375 6.78125 4.734375  Q 8.34375 6.109375 10.015625 9.8125  L 28.421875 58.015625  Q 28.71875 58.84375 28.71875 59.46875  Q 28.71875 60.109375 28.078125 60.765625  Q 27.4375 61.421875 27.4375 61.71875  Q 27.4375 62.015625 29.359375 63.0625  Q 31.296875 64.109375 33.875 65.90625  Q 36.46875 67.71875 37.0625 67.71875  Q 38.1875 67.71875 38.765625 65.578125  Q 40.046875 60.84375 41.15625 57.46875  L 57.421875 9.078125  Q 59.328125 3.375 66.796875 3.375  Q 67.4375 3.375 67.4375 1.515625  Q 67.4375 -0.34375 66.796875 -0.34375  Q 63.234375 0 55.515625 0  Q 47.796875 0 44.28125 -0.34375  Q 43.609375 -0.34375 43.609375 1.515625  Q 43.609375 3.375 44.28125 3.375  Q 49.125 3.375 49.125 6.6875  Q 49.125 7.8125 48.734375 9.078125  L 43.796875 24.359375  Q 43.359375 25.921875 41.65625 25.921875  L 21.78125 25.921875  Q 20.40625 25.921875 19.828125 24.21875  L 14.3125 8.890625  Q 13.875 7.8125 13.875 6.9375  Q 13.875 3.375 21.234375 3.375  Q 21.921875 3.375 21.921875 1.515625  Q 21.921875 -0.34375 21.234375 -0.34375  Q 17.09375 0 10.84375 0  Q 4.59375 0 0.484375 -0.34375  z M 40.625 29.296875  Q 41.84375 29.296875 41.84375 30.078125  Q 41.84375 30.328125 41.75 30.609375  L 33.453125 56.59375  Q 33.15625 57.5625 32.5625 57.5625  Q 31.984375 57.5625 31.640625 56.59375  L 22.015625 30.609375  Q 21.921875 30.375 21.921875 30.078125  Q 21.921875 29.296875 23.09375 29.296875  z " id="Junicode-65" />
      </defs>
      <use xlink:href="#Junicode-65" />
     </g>
    </g>
    <g id="patch_4">
     <path d="M 45.246094 47.192188  L 67.246094 47.192188  L 67.246094 39.492188  L 45.246094 39.492188  z " style="fill:#a1dab4;stroke:#444443;stroke-linejoin:miter;stroke-width:0.4;" />
    </g>
    <g id="text_3">
     
     <g style="fill:#444443;" transform="translate(71.096094 47.192188)scale(0.1 -0.1)">
      <defs>
       <path d="M 13.234375 9.078125  L 13.234375 57.234375  Q 13.234375 62.59375 4 62.59375  Q 3.328125 62.59375 3.328125 64.453125  Q 3.328125 66.3125 4 66.3125  Q 9.578125 66.015625 15.71875 66.015625  Q 21.875 66.015625 24.5625 66.15625  Q 27.25 66.3125 30.71875 66.3125  Q 39.15625 66.3125 44.875 62.359375  Q 50.59375 58.40625 50.59375 50.53125  Q 50.59375 40.828125 41.015625 36.375  Q 40.28125 36.03125 40.28125 35.75  Q 40.28125 35.40625 41.015625 35.15625  Q 46.296875 33.453125 50.703125 28.9375  Q 55.125 24.421875 55.125 16.9375  Q 55.125 10.015625 50.015625 4.828125  Q 44.921875 -0.34375 30.71875 -0.34375  Q 27.59375 -0.34375 23.875 -0.171875  Q 20.171875 0 14.3125 0  Q 8.453125 0 4.4375 -0.34375  Q 3.8125 -0.34375 3.8125 1.515625  Q 3.8125 3.375 4.4375 3.375  Q 13.234375 3.375 13.234375 9.078125  z M 21.046875 38.53125  Q 21.046875 36.765625 24.90625 36.765625  Q 42.1875 36.765625 42.1875 50.390625  Q 42.1875 63.328125 23.578125 63.328125  Q 21.046875 63.328125 21.046875 60.0625  z M 21.046875 13.53125  Q 21.046875 2.78125 30.03125 2.78125  Q 46.296875 2.78125 46.296875 18.171875  Q 46.296875 28.46875 35.453125 32.28125  Q 31.203125 33.6875 22.75 33.734375  Q 21.046875 33.734375 21.046875 32.28125  z " id="Junicode-66" />
      </defs>
      <use xlink:href="#Junicode-66" />
     </g>
    </g>
   </g>
  </g>
 </g>
</svg></g>
</g>
</svg>