<svg xmlns="http://www.w3.org/2000/svg" xmlns:dc="http://purl.org/dc/elements/1.1/" xmlns:ns2="http://creativecommons.org/ns#" xmlns:rdf="http://www.w3.org/1999/02/22-rdf-syntax-ns#" xmlns:xlink="http://www.w3.org/1999/xlink" width="500.0" height="312.0" viewBox="0.0 0.0 499.5 311.5">
<g id="graph0" class="graph" transform="scale(1.0 1.0) rotate(0) translate(4 307.5)">
<title>G</title>
<polygon fill="white" stroke="transparent" points="-4,4 -4,-307.5 495.5,-307.5 495.5,4 -4,4" />
<text text-anchor="middle" x="245.75" y="-288.3" font-family="Junicode" font-size="14.00" fill="#444443">16th decision tree for scribal features</text>
<g id="clust4" class="cluster">
<title>cluster_legend</title>
</g>

<g id="node1" class="node">
<title>node1</title>
<svg width="159px" height="49px" viewBox="0 0 211.726429 66.038194" version="1.1" preserveAspectRatio="xMinYMin meet" x="245" y="-206.5">
 <metadata>
  <rdf:RDF>
   <ns2:Work>
    <dc:type rdf:resource="http://purl.org/dc/dcmitype/StillImage" />
    <dc:date>2022-10-13T15:21:04.109254</dc:date>
    <dc:format>image/svg+xml</dc:format>
    <dc:creator>
     <ns2:Agent>
      <dc:title>Matplotlib v3.5.1, https://matplotlib.org/</dc:title>
     </ns2:Agent>
    </dc:creator>
   </ns2:Work>
  </rdf:RDF>
 </metadata>
 <defs>
  <style type="text/css">*{stroke-linejoin: round; stroke-linecap: butt}</style>
 </defs>
 <g id="figure_1">
  <g id="patch_1">
   <path d="M -0 66.038194  L 211.726429 66.038194  L 211.726429 0  L -0 0  z " style="fill: #ffffff" />
  </g>
  <g id="axes_1">
   <g id="patch_2">
    <path d="M 21.8975 29.744444  L 206.0375 29.744444  L 206.0375 1.519059  L 21.8975 1.519059  z " style="fill: #eaeaf2" />
   </g>
   <g id="matplotlib.axis_1">
    <g id="xtick_1">
     <g id="line2d_1">
      <path d="M 21.8975 29.744444  L 21.8975 1.519059  " clip-path="url(#pc2f0b8002e)" style="fill: none; stroke: #ffffff; stroke-linecap: round" />
     </g>
     <g id="text_1">
      
      <g style="fill: #444443" transform="translate(7.44 48.470694)scale(0.08 -0.08)">
       <defs>
        <path id="ArialMT-30" d="M 266 2259  Q 266 3072 433 3567  Q 600 4063 929 4331  Q 1259 4600 1759 4600  Q 2128 4600 2406 4451  Q 2684 4303 2865 4023  Q 3047 3744 3150 3342  Q 3253 2941 3253 2259  Q 3253 1453 3087 958  Q 2922 463 2592 192  Q 2263 -78 1759 -78  Q 1097 -78 719 397  Q 266 969 266 2259  z M 844 2259  Q 844 1131 1108 757  Q 1372 384 1759 384  Q 2147 384 2411 759  Q 2675 1134 2675 2259  Q 2675 3391 2411 3762  Q 2147 4134 1753 4134  Q 1366 4134 1134 3806  Q 844 3388 844 2259  z " transform="scale(0.015625)" />
        <path id="ArialMT-2e" d="M 581 0  L 581 641  L 1222 641  L 1222 0  L 581 0  z " transform="scale(0.015625)" />
       </defs>
       <use xlink:href="#ArialMT-30" />
       <use xlink:href="#ArialMT-2e" x="55.615234" />
       <use xlink:href="#ArialMT-30" x="83.398438" />
       <use xlink:href="#ArialMT-30" x="139.013672" />
       <use xlink:href="#ArialMT-30" x="194.628906" />
       <use xlink:href="#ArialMT-30" x="250.244141" />
       <use xlink:href="#ArialMT-30" x="305.859375" />
      </g>
     </g>
    </g>
    <g id="xtick_2">
     <g id="line2d_2">
      <path d="M 197.268929 29.744444  L 197.268929 1.519059  " clip-path="url(#pc2f0b8002e)" style="fill: none; stroke: #ffffff; stroke-linecap: round" />
     </g>
     <g id="text_2">
      
      <g style="fill: #444443" transform="translate(182.811429 48.470694)scale(0.08 -0.08)">
       <defs>
        <path id="ArialMT-34" d="M 2069 0  L 2069 1097  L 81 1097  L 81 1613  L 2172 4581  L 2631 4581  L 2631 1613  L 3250 1613  L 3250 1097  L 2631 1097  L 2631 0  L 2069 0  z M 2069 1613  L 2069 3678  L 634 1613  L 2069 1613  z " transform="scale(0.015625)" />
        <path id="ArialMT-32" d="M 3222 541  L 3222 0  L 194 0  Q 188 203 259 391  Q 375 700 629 1000  Q 884 1300 1366 1694  Q 2113 2306 2375 2664  Q 2638 3022 2638 3341  Q 2638 3675 2398 3904  Q 2159 4134 1775 4134  Q 1369 4134 1125 3890  Q 881 3647 878 3216  L 300 3275  Q 359 3922 746 4261  Q 1134 4600 1788 4600  Q 2447 4600 2831 4234  Q 3216 3869 3216 3328  Q 3216 3053 3103 2787  Q 2991 2522 2730 2228  Q 2469 1934 1863 1422  Q 1356 997 1212 845  Q 1069 694 975 541  L 3222 541  z " transform="scale(0.015625)" />
        <path id="ArialMT-38" d="M 1131 2484  Q 781 2613 612 2850  Q 444 3088 444 3419  Q 444 3919 803 4259  Q 1163 4600 1759 4600  Q 2359 4600 2725 4251  Q 3091 3903 3091 3403  Q 3091 3084 2923 2848  Q 2756 2613 2416 2484  Q 2838 2347 3058 2040  Q 3278 1734 3278 1309  Q 3278 722 2862 322  Q 2447 -78 1769 -78  Q 1091 -78 675 323  Q 259 725 259 1325  Q 259 1772 486 2073  Q 713 2375 1131 2484  z M 1019 3438  Q 1019 3113 1228 2906  Q 1438 2700 1772 2700  Q 2097 2700 2305 2904  Q 2513 3109 2513 3406  Q 2513 3716 2298 3927  Q 2084 4138 1766 4138  Q 1444 4138 1231 3931  Q 1019 3725 1019 3438  z M 838 1322  Q 838 1081 952 856  Q 1066 631 1291 507  Q 1516 384 1775 384  Q 2178 384 2440 643  Q 2703 903 2703 1303  Q 2703 1709 2433 1975  Q 2163 2241 1756 2241  Q 1359 2241 1098 1978  Q 838 1716 838 1322  z " transform="scale(0.015625)" />
        <path id="ArialMT-39" d="M 350 1059  L 891 1109  Q 959 728 1153 556  Q 1347 384 1650 384  Q 1909 384 2104 503  Q 2300 622 2425 820  Q 2550 1019 2634 1356  Q 2719 1694 2719 2044  Q 2719 2081 2716 2156  Q 2547 1888 2255 1720  Q 1963 1553 1622 1553  Q 1053 1553 659 1965  Q 266 2378 266 3053  Q 266 3750 677 4175  Q 1088 4600 1706 4600  Q 2153 4600 2523 4359  Q 2894 4119 3086 3673  Q 3278 3228 3278 2384  Q 3278 1506 3087 986  Q 2897 466 2520 194  Q 2144 -78 1638 -78  Q 1100 -78 759 220  Q 419 519 350 1059  z M 2653 3081  Q 2653 3566 2395 3850  Q 2138 4134 1775 4134  Q 1400 4134 1122 3828  Q 844 3522 844 3034  Q 844 2597 1108 2323  Q 1372 2050 1759 2050  Q 2150 2050 2401 2323  Q 2653 2597 2653 3081  z " transform="scale(0.015625)" />
       </defs>
       <use xlink:href="#ArialMT-30" />
       <use xlink:href="#ArialMT-2e" x="55.615234" />
       <use xlink:href="#ArialMT-30" x="83.398438" />
       <use xlink:href="#ArialMT-34" x="139.013672" />
       <use xlink:href="#ArialMT-32" x="194.628906" />
       <use xlink:href="#ArialMT-38" x="250.244141" />
       <use xlink:href="#ArialMT-39" x="305.859375" />
      </g>
     </g>
    </g>
    <g id="text_3">
     
     <g style="fill: #444443" transform="translate(101.960938 62.762569)scale(0.12 -0.12)">
      <defs>
       <path id="Junicode-68" d="M 2878 397  Q 2878 153 3275 153  Q 3319 153 3319 64  Q 3319 -25 3275 -25  Q 3019 0 2656 0  Q 2294 0 2047 -25  Q 2003 -25 2003 64  Q 2003 153 2047 153  Q 2400 153 2400 397  L 2400 1709  Q 2400 2013 2215 2225  Q 2031 2438 1769 2438  Q 1506 2438 1306 2278  Q 1106 2119 1106 1966  L 1106 397  Q 1106 153 1453 153  Q 1497 153 1497 64  Q 1497 -25 1453 -25  Q 1125 0 812 0  Q 500 0 250 -25  Q 206 -25 206 64  Q 206 153 250 153  Q 628 153 628 397  L 628 3669  Q 628 4103 341 4103  Q 288 4103 288 4189  Q 288 4275 341 4275  Q 444 4275 645 4381  Q 847 4488 950 4569  Q 1050 4650 1087 4650  Q 1125 4650 1125 4622  Q 1125 4594 1115 4426  Q 1106 4259 1106 4078  L 1106 2472  Q 1106 2394 1156 2394  Q 1184 2394 1209 2419  Q 1494 2719 1963 2719  Q 2416 2719 2647 2389  Q 2878 2059 2878 1716  L 2878 397  z " transform="scale(0.015625)" />
       <path id="Junicode-65" d="M 266 1347  Q 266 1903 620 2311  Q 975 2719 1416 2719  Q 1856 2719 2128 2412  Q 2400 2106 2400 1912  Q 2400 1719 2241 1716  L 838 1716  Q 744 1716 744 1509  Q 744 1009 983 651  Q 1222 294 1644 294  Q 1959 294 2272 481  Q 2288 491 2306 491  Q 2344 491 2372 456  Q 2394 434 2394 391  Q 2394 375 2381 366  Q 1888 -72 1409 -72  Q 931 -72 598 359  Q 266 791 266 1347  z M 816 1969  Q 816 1925 891 1925  L 1894 1925  Q 1941 1925 1941 1978  Q 1941 2116 1770 2325  Q 1600 2534 1416 2534  Q 1213 2534 1064 2398  Q 916 2263 825 2016  Q 816 1991 816 1969  z " transform="scale(0.015625)" />
       <path id="Junicode-6d" d="M 250 -25  Q 206 -25 206 64  Q 206 153 250 153  Q 628 153 628 397  L 628 1806  Q 628 2194 366 2194  Q 313 2194 313 2281  Q 313 2369 366 2369  Q 444 2369 626 2476  Q 809 2584 920 2671  Q 1031 2759 1072 2759  Q 1119 2759 1119 2717  Q 1119 2675 1111 2584  Q 1103 2494 1103 2422  Q 1103 2350 1141 2350  Q 1169 2350 1194 2375  Q 1519 2719 1981 2719  Q 2394 2719 2656 2338  Q 2691 2288 2717 2288  Q 2744 2288 2778 2328  Q 3131 2719 3634 2719  Q 4016 2719 4202 2506  Q 4388 2294 4439 2136  Q 4491 1978 4491 1766  L 4491 397  Q 4491 153 4853 153  Q 4897 153 4897 64  Q 4897 -25 4853 -25  Q 4613 0 4263 0  Q 3913 0 3669 -25  Q 3625 -25 3625 64  Q 3625 153 3669 153  Q 4013 153 4013 397  L 4013 1813  Q 4013 2178 3836 2308  Q 3659 2438 3391 2438  Q 3119 2438 2958 2181  Q 2797 1925 2797 1491  L 2797 397  Q 2797 153 3156 153  Q 3200 153 3200 64  Q 3200 -25 3156 -25  Q 2906 0 2562 0  Q 2219 0 1975 -25  Q 1931 -25 1931 64  Q 1931 153 1975 153  Q 2319 153 2319 397  L 2319 1663  Q 2319 1944 2269 2122  Q 2219 2300 2117 2369  Q 2016 2438 1784 2438  Q 1644 2438 1542 2384  Q 1441 2331 1342 2256  Q 1244 2181 1175 2075  Q 1106 1969 1106 1844  L 1106 397  Q 1106 153 1438 153  Q 1481 153 1481 64  Q 1481 -25 1438 -25  Q 1200 0 850 0  Q 500 0 250 -25  z " transform="scale(0.015625)" />
       <path id="Junicode-20" transform="scale(0.015625)" />
      </defs>
      <use xlink:href="#Junicode-68" />
      <use xlink:href="#Junicode-65" x="53.417969" />
      <use xlink:href="#Junicode-6d" x="94.335938" />
      <use xlink:href="#Junicode-20" x="172.802734" />
     </g>
    </g>
   </g>
   <g id="matplotlib.axis_2">
    <g id="ytick_1">
     <g id="line2d_3">
      <path d="M 21.8975 29.744444  L 206.0375 29.744444  " clip-path="url(#pc2f0b8002e)" style="fill: none; stroke: #ffffff; stroke-linecap: round" />
     </g>
     <g id="text_4">
      
      <g style="fill: #444443" transform="translate(4.44875 32.607569)scale(0.08 -0.08)">
       <use xlink:href="#ArialMT-30" />
      </g>
     </g>
    </g>
    <g id="ytick_2">
     <g id="line2d_4">
      <path d="M 21.8975 2.863125  L 206.0375 2.863125  " clip-path="url(#pc2f0b8002e)" style="fill: none; stroke: #ffffff; stroke-linecap: round" />
     </g>
     <g id="text_5">
      
      <g style="fill: #444443" transform="translate(0 5.72625)scale(0.08 -0.08)">
       <defs>
        <path id="ArialMT-31" d="M 2384 0  L 1822 0  L 1822 3584  Q 1619 3391 1289 3197  Q 959 3003 697 2906  L 697 3450  Q 1169 3672 1522 3987  Q 1875 4303 2022 4600  L 2384 4600  L 2384 0  z " transform="scale(0.015625)" />
        <path id="ArialMT-35" d="M 266 1200  L 856 1250  Q 922 819 1161 601  Q 1400 384 1738 384  Q 2144 384 2425 690  Q 2706 997 2706 1503  Q 2706 1984 2436 2262  Q 2166 2541 1728 2541  Q 1456 2541 1237 2417  Q 1019 2294 894 2097  L 366 2166  L 809 4519  L 3088 4519  L 3088 3981  L 1259 3981  L 1013 2750  Q 1425 3038 1878 3038  Q 2478 3038 2890 2622  Q 3303 2206 3303 1553  Q 3303 931 2941 478  Q 2500 -78 1738 -78  Q 1113 -78 717 272  Q 322 622 266 1200  z " transform="scale(0.015625)" />
       </defs>
       <use xlink:href="#ArialMT-31" />
       <use xlink:href="#ArialMT-35" x="55.615234" />
      </g>
     </g>
    </g>
   </g>
   <g id="patch_3">
    <path d="M 21.8975 29.744444  L 31.127575 29.744444  L 31.127575 18.991916  L 21.8975 18.991916  z " clip-path="url(#pc2f0b8002e)" style="fill: #fefebb; stroke: #444443; stroke-width: 0.5; stroke-linejoin: miter" />
   </g>
   <g id="patch_4">
    <path d="M 31.127575 29.744444  L 40.35765 29.744444  L 40.35765 22.576092  L 31.127575 22.576092  z " clip-path="url(#pc2f0b8002e)" style="fill: #fefebb; stroke: #444443; stroke-width: 0.5; stroke-linejoin: miter" />
   </g>
   <g id="patch_5">
    <path d="M 40.35765 29.744444  L 49.587726 29.744444  L 49.587726 2.863125  L 40.35765 2.863125  z " clip-path="url(#pc2f0b8002e)" style="fill: #fefebb; stroke: #444443; stroke-width: 0.5; stroke-linejoin: miter" />
   </g>
   <g id="patch_6">
    <path d="M 49.587726 29.744444  L 58.817801 29.744444  L 58.817801 10.031477  L 49.587726 10.031477  z " clip-path="url(#pc2f0b8002e)" style="fill: #fefebb; stroke: #444443; stroke-width: 0.5; stroke-linejoin: miter" />
   </g>
   <g id="patch_7">
    <path d="M 58.817801 29.744444  L 68.047876 29.744444  L 68.047876 18.991916  L 58.817801 18.991916  z " clip-path="url(#pc2f0b8002e)" style="fill: #fefebb; stroke: #444443; stroke-width: 0.5; stroke-linejoin: miter" />
   </g>
   <g id="patch_8">
    <path d="M 68.047876 29.744444  L 77.277951 29.744444  L 77.277951 18.991916  L 68.047876 18.991916  z " clip-path="url(#pc2f0b8002e)" style="fill: #fefebb; stroke: #444443; stroke-width: 0.5; stroke-linejoin: miter" />
   </g>
   <g id="patch_9">
    <path d="M 77.277951 29.744444  L 86.508026 29.744444  L 86.508026 18.991916  L 77.277951 18.991916  z " clip-path="url(#pc2f0b8002e)" style="fill: #fefebb; stroke: #444443; stroke-width: 0.5; stroke-linejoin: miter" />
   </g>
   <g id="patch_10">
    <path d="M 86.508026 29.744444  L 95.738102 29.744444  L 95.738102 26.160268  L 86.508026 26.160268  z " clip-path="url(#pc2f0b8002e)" style="fill: #fefebb; stroke: #444443; stroke-width: 0.5; stroke-linejoin: miter" />
   </g>
   <g id="patch_11">
    <path d="M 95.738102 29.744444  L 104.968177 29.744444  L 104.968177 26.160268  L 95.738102 26.160268  z " clip-path="url(#pc2f0b8002e)" style="fill: #fefebb; stroke: #444443; stroke-width: 0.5; stroke-linejoin: miter" />
   </g>
   <g id="patch_12">
    <path d="M 104.968177 29.744444  L 114.198252 29.744444  L 114.198252 29.744444  L 104.968177 29.744444  z " clip-path="url(#pc2f0b8002e)" style="fill: #fefebb; stroke: #444443; stroke-width: 0.5; stroke-linejoin: miter" />
   </g>
   <g id="patch_13">
    <path d="M 114.198252 29.744444  L 123.428327 29.744444  L 123.428327 27.952356  L 114.198252 27.952356  z " clip-path="url(#pc2f0b8002e)" style="fill: #fefebb; stroke: #444443; stroke-width: 0.5; stroke-linejoin: miter" />
   </g>
   <g id="patch_14">
    <path d="M 123.428327 29.744444  L 132.658402 29.744444  L 132.658402 26.160268  L 123.428327 26.160268  z " clip-path="url(#pc2f0b8002e)" style="fill: #fefebb; stroke: #444443; stroke-width: 0.5; stroke-linejoin: miter" />
   </g>
   <g id="patch_15">
    <path d="M 132.658402 29.744444  L 141.888477 29.744444  L 141.888477 29.744444  L 132.658402 29.744444  z " clip-path="url(#pc2f0b8002e)" style="fill: #fefebb; stroke: #444443; stroke-width: 0.5; stroke-linejoin: miter" />
   </g>
   <g id="patch_16">
    <path d="M 141.888477 29.744444  L 151.118553 29.744444  L 151.118553 26.160268  L 141.888477 26.160268  z " clip-path="url(#pc2f0b8002e)" style="fill: #fefebb; stroke: #444443; stroke-width: 0.5; stroke-linejoin: miter" />
   </g>
   <g id="patch_17">
    <path d="M 151.118553 29.744444  L 160.348628 29.744444  L 160.348628 26.160268  L 151.118553 26.160268  z " clip-path="url(#pc2f0b8002e)" style="fill: #fefebb; stroke: #444443; stroke-width: 0.5; stroke-linejoin: miter" />
   </g>
   <g id="patch_18">
    <path d="M 160.348628 29.744444  L 169.578703 29.744444  L 169.578703 26.160268  L 160.348628 26.160268  z " clip-path="url(#pc2f0b8002e)" style="fill: #fefebb; stroke: #444443; stroke-width: 0.5; stroke-linejoin: miter" />
   </g>
   <g id="patch_19">
    <path d="M 169.578703 29.744444  L 178.808778 29.744444  L 178.808778 26.160268  L 169.578703 26.160268  z " clip-path="url(#pc2f0b8002e)" style="fill: #fefebb; stroke: #444443; stroke-width: 0.5; stroke-linejoin: miter" />
   </g>
   <g id="patch_20">
    <path d="M 178.808778 29.744444  L 188.038853 29.744444  L 188.038853 29.744444  L 178.808778 29.744444  z " clip-path="url(#pc2f0b8002e)" style="fill: #fefebb; stroke: #444443; stroke-width: 0.5; stroke-linejoin: miter" />
   </g>
   <g id="patch_21">
    <path d="M 188.038853 29.744444  L 197.268929 29.744444  L 197.268929 26.160268  L 188.038853 26.160268  z " clip-path="url(#pc2f0b8002e)" style="fill: #fefebb; stroke: #444443; stroke-width: 0.5; stroke-linejoin: miter" />
   </g>
   <g id="patch_22">
    <path d="M 21.8975 18.991916  L 31.127575 18.991916  L 31.127575 11.823565  L 21.8975 11.823565  z " clip-path="url(#pc2f0b8002e)" style="fill: #a1dab4; stroke: #444443; stroke-width: 0.5; stroke-linejoin: miter" />
   </g>
   <g id="patch_23">
    <path d="M 31.127575 22.576092  L 40.35765 22.576092  L 40.35765 20.784004  L 31.127575 20.784004  z " clip-path="url(#pc2f0b8002e)" style="fill: #a1dab4; stroke: #444443; stroke-width: 0.5; stroke-linejoin: miter" />
   </g>
   <g id="patch_24">
    <path d="M 40.35765 2.863125  L 49.587726 2.863125  L 49.587726 2.863125  L 40.35765 2.863125  z " clip-path="url(#pc2f0b8002e)" style="fill: #a1dab4; stroke: #444443; stroke-width: 0.5; stroke-linejoin: miter" />
   </g>
   <g id="patch_25">
    <path d="M 49.587726 10.031477  L 58.817801 10.031477  L 58.817801 10.031477  L 49.587726 10.031477  z " clip-path="url(#pc2f0b8002e)" style="fill: #a1dab4; stroke: #444443; stroke-width: 0.5; stroke-linejoin: miter" />
   </g>
   <g id="patch_26">
    <path d="M 58.817801 18.991916  L 68.047876 18.991916  L 68.047876 18.991916  L 58.817801 18.991916  z " clip-path="url(#pc2f0b8002e)" style="fill: #a1dab4; stroke: #444443; stroke-width: 0.5; stroke-linejoin: miter" />
   </g>
   <g id="patch_27">
    <path d="M 68.047876 18.991916  L 77.277951 18.991916  L 77.277951 18.991916  L 68.047876 18.991916  z " clip-path="url(#pc2f0b8002e)" style="fill: #a1dab4; stroke: #444443; stroke-width: 0.5; stroke-linejoin: miter" />
   </g>
   <g id="patch_28">
    <path d="M 77.277951 18.991916  L 86.508026 18.991916  L 86.508026 18.991916  L 77.277951 18.991916  z " clip-path="url(#pc2f0b8002e)" style="fill: #a1dab4; stroke: #444443; stroke-width: 0.5; stroke-linejoin: miter" />
   </g>
   <g id="patch_29">
    <path d="M 86.508026 26.160268  L 95.738102 26.160268  L 95.738102 26.160268  L 86.508026 26.160268  z " clip-path="url(#pc2f0b8002e)" style="fill: #a1dab4; stroke: #444443; stroke-width: 0.5; stroke-linejoin: miter" />
   </g>
   <g id="patch_30">
    <path d="M 95.738102 26.160268  L 104.968177 26.160268  L 104.968177 26.160268  L 95.738102 26.160268  z " clip-path="url(#pc2f0b8002e)" style="fill: #a1dab4; stroke: #444443; stroke-width: 0.5; stroke-linejoin: miter" />
   </g>
   <g id="patch_31">
    <path d="M 104.968177 29.744444  L 114.198252 29.744444  L 114.198252 29.744444  L 104.968177 29.744444  z " clip-path="url(#pc2f0b8002e)" style="fill: #a1dab4; stroke: #444443; stroke-width: 0.5; stroke-linejoin: miter" />
   </g>
   <g id="patch_32">
    <path d="M 114.198252 27.952356  L 123.428327 27.952356  L 123.428327 27.952356  L 114.198252 27.952356  z " clip-path="url(#pc2f0b8002e)" style="fill: #a1dab4; stroke: #444443; stroke-width: 0.5; stroke-linejoin: miter" />
   </g>
   <g id="patch_33">
    <path d="M 123.428327 26.160268  L 132.658402 26.160268  L 132.658402 26.160268  L 123.428327 26.160268  z " clip-path="url(#pc2f0b8002e)" style="fill: #a1dab4; stroke: #444443; stroke-width: 0.5; stroke-linejoin: miter" />
   </g>
   <g id="patch_34">
    <path d="M 132.658402 29.744444  L 141.888477 29.744444  L 141.888477 29.744444  L 132.658402 29.744444  z " clip-path="url(#pc2f0b8002e)" style="fill: #a1dab4; stroke: #444443; stroke-width: 0.5; stroke-linejoin: miter" />
   </g>
   <g id="patch_35">
    <path d="M 141.888477 26.160268  L 151.118553 26.160268  L 151.118553 26.160268  L 141.888477 26.160268  z " clip-path="url(#pc2f0b8002e)" style="fill: #a1dab4; stroke: #444443; stroke-width: 0.5; stroke-linejoin: miter" />
   </g>
   <g id="patch_36">
    <path d="M 151.118553 26.160268  L 160.348628 26.160268  L 160.348628 26.160268  L 151.118553 26.160268  z " clip-path="url(#pc2f0b8002e)" style="fill: #a1dab4; stroke: #444443; stroke-width: 0.5; stroke-linejoin: miter" />
   </g>
   <g id="patch_37">
    <path d="M 160.348628 26.160268  L 169.578703 26.160268  L 169.578703 26.160268  L 160.348628 26.160268  z " clip-path="url(#pc2f0b8002e)" style="fill: #a1dab4; stroke: #444443; stroke-width: 0.5; stroke-linejoin: miter" />
   </g>
   <g id="patch_38">
    <path d="M 169.578703 26.160268  L 178.808778 26.160268  L 178.808778 26.160268  L 169.578703 26.160268  z " clip-path="url(#pc2f0b8002e)" style="fill: #a1dab4; stroke: #444443; stroke-width: 0.5; stroke-linejoin: miter" />
   </g>
   <g id="patch_39">
    <path d="M 178.808778 29.744444  L 188.038853 29.744444  L 188.038853 29.744444  L 178.808778 29.744444  z " clip-path="url(#pc2f0b8002e)" style="fill: #a1dab4; stroke: #444443; stroke-width: 0.5; stroke-linejoin: miter" />
   </g>
   <g id="patch_40">
    <path d="M 188.038853 26.160268  L 197.268929 26.160268  L 197.268929 26.160268  L 188.038853 26.160268  z " clip-path="url(#pc2f0b8002e)" style="fill: #a1dab4; stroke: #444443; stroke-width: 0.5; stroke-linejoin: miter" />
   </g>
   <g id="patch_41">
    <path d="M 27.422837 30.559844  L 24.108317 37.898444  L 30.737357 37.898444  z " style="fill: #444443; stroke: #ffffff; stroke-linejoin: miter" />
   </g>
   <g id="patch_42">
    <path d="M 21.8975 29.744444  L 21.8975 1.519059  " style="fill: none; stroke: #ffffff; stroke-width: 0.3; stroke-linejoin: miter; stroke-linecap: square" />
   </g>
   <g id="patch_43">
    <path d="M 21.8975 29.744444  L 206.0375 29.744444  " style="fill: none; stroke: #ffffff; stroke-width: 0.3; stroke-linejoin: miter; stroke-linecap: square" />
   </g>
   <g id="text_6">
    
    <g style="fill: #444443" transform="translate(20.804712 46.052444)scale(0.08 -0.08)">
     <defs>
      <path id="Junicode-30" d="M 2772 2009  Q 2772 1131 2436 540  Q 2100 -50 1481 -50  Q 863 -50 541 540  Q 219 1131 219 2081  Q 219 3031 556 3598  Q 894 4166 1497 4166  Q 2119 4166 2445 3558  Q 2772 2950 2772 2009  z M 2216 1972  Q 2216 2700 2089 3331  Q 1963 3963 1503 3963  Q 1119 3963 941 3400  Q 763 2838 763 2153  Q 763 981 975 570  Q 1188 159 1484 159  Q 1831 159 2023 595  Q 2216 1031 2216 1972  z " transform="scale(0.015625)" />
      <path id="Junicode-2e" d="M 434 306  Q 434 466 546 562  Q 659 659 831 659  Q 1003 659 1097 543  Q 1191 428 1191 270  Q 1191 113 1083 17  Q 975 -78 809 -78  Q 644 -78 539 34  Q 434 147 434 306  z " transform="scale(0.015625)" />
     </defs>
     <use xlink:href="#Junicode-30" />
     <use xlink:href="#Junicode-2e" x="46.679688" />
     <use xlink:href="#Junicode-30" x="72.070312" />
     <use xlink:href="#Junicode-30" x="118.75" />
    </g>
   </g>
  </g>
 </g>
 <defs>
  <clipPath id="pc2f0b8002e">
   <rect x="21.8975" y="1.519059" width="184.14" height="28.225385" />
  </clipPath>
 </defs>
</svg></g>

<g id="node2" class="node">
<title>node4</title>
<svg width="158px" height="48px" viewBox="0 0 211.431429 65.042589" version="1.1" preserveAspectRatio="xMinYMin meet" x="245" y="-136.5">
 <metadata>
  <rdf:RDF>
   <ns2:Work>
    <dc:type rdf:resource="http://purl.org/dc/dcmitype/StillImage" />
    <dc:date>2022-10-13T15:21:04.159887</dc:date>
    <dc:format>image/svg+xml</dc:format>
    <dc:creator>
     <ns2:Agent>
      <dc:title>Matplotlib v3.5.1, https://matplotlib.org/</dc:title>
     </ns2:Agent>
    </dc:creator>
   </ns2:Work>
  </rdf:RDF>
 </metadata>
 <defs>
  <style type="text/css">*{stroke-linejoin: round; stroke-linecap: butt}</style>
 </defs>
 <g id="figure_1">
  <g id="patch_1">
   <path d="M -0 65.042589  L 211.431429 65.042589  L 211.431429 0  L -0 0  z " style="fill: #ffffff" />
  </g>
  <g id="axes_1">
   <g id="patch_2">
    <path d="M 21.8975 28.748839  L 206.0375 28.748839  L 206.0375 1.568839  L 21.8975 1.568839  z " style="fill: #eaeaf2" />
   </g>
   <g id="matplotlib.axis_1">
    <g id="xtick_1">
     <g id="line2d_1">
      <path d="M 21.8975 28.748839  L 21.8975 1.568839  " clip-path="url(#p864cc36f97)" style="fill: none; stroke: #ffffff; stroke-linecap: round" />
     </g>
     <g id="text_1">
      
      <g style="fill: #444443" transform="translate(7.44 47.475089)scale(0.08 -0.08)">
       <defs>
        <path id="ArialMT-30" d="M 266 2259  Q 266 3072 433 3567  Q 600 4063 929 4331  Q 1259 4600 1759 4600  Q 2128 4600 2406 4451  Q 2684 4303 2865 4023  Q 3047 3744 3150 3342  Q 3253 2941 3253 2259  Q 3253 1453 3087 958  Q 2922 463 2592 192  Q 2263 -78 1759 -78  Q 1097 -78 719 397  Q 266 969 266 2259  z M 844 2259  Q 844 1131 1108 757  Q 1372 384 1759 384  Q 2147 384 2411 759  Q 2675 1134 2675 2259  Q 2675 3391 2411 3762  Q 2147 4134 1753 4134  Q 1366 4134 1134 3806  Q 844 3388 844 2259  z " transform="scale(0.015625)" />
        <path id="ArialMT-2e" d="M 581 0  L 581 641  L 1222 641  L 1222 0  L 581 0  z " transform="scale(0.015625)" />
       </defs>
       <use xlink:href="#ArialMT-30" />
       <use xlink:href="#ArialMT-2e" x="55.615234" />
       <use xlink:href="#ArialMT-30" x="83.398438" />
       <use xlink:href="#ArialMT-30" x="139.013672" />
       <use xlink:href="#ArialMT-30" x="194.628906" />
       <use xlink:href="#ArialMT-30" x="250.244141" />
       <use xlink:href="#ArialMT-30" x="305.859375" />
      </g>
     </g>
    </g>
    <g id="xtick_2">
     <g id="line2d_2">
      <path d="M 197.268929 28.748839  L 197.268929 1.568839  " clip-path="url(#p864cc36f97)" style="fill: none; stroke: #ffffff; stroke-linecap: round" />
     </g>
     <g id="text_2">
      
      <g style="fill: #444443" transform="translate(183.106429 47.475089)scale(0.08 -0.08)">
       <defs>
        <path id="ArialMT-38" d="M 1131 2484  Q 781 2613 612 2850  Q 444 3088 444 3419  Q 444 3919 803 4259  Q 1163 4600 1759 4600  Q 2359 4600 2725 4251  Q 3091 3903 3091 3403  Q 3091 3084 2923 2848  Q 2756 2613 2416 2484  Q 2838 2347 3058 2040  Q 3278 1734 3278 1309  Q 3278 722 2862 322  Q 2447 -78 1769 -78  Q 1091 -78 675 323  Q 259 725 259 1325  Q 259 1772 486 2073  Q 713 2375 1131 2484  z M 1019 3438  Q 1019 3113 1228 2906  Q 1438 2700 1772 2700  Q 2097 2700 2305 2904  Q 2513 3109 2513 3406  Q 2513 3716 2298 3927  Q 2084 4138 1766 4138  Q 1444 4138 1231 3931  Q 1019 3725 1019 3438  z M 838 1322  Q 838 1081 952 856  Q 1066 631 1291 507  Q 1516 384 1775 384  Q 2178 384 2440 643  Q 2703 903 2703 1303  Q 2703 1709 2433 1975  Q 2163 2241 1756 2241  Q 1359 2241 1098 1978  Q 838 1716 838 1322  z " transform="scale(0.015625)" />
        <path id="ArialMT-34" d="M 2069 0  L 2069 1097  L 81 1097  L 81 1613  L 2172 4581  L 2631 4581  L 2631 1613  L 3250 1613  L 3250 1097  L 2631 1097  L 2631 0  L 2069 0  z M 2069 1613  L 2069 3678  L 634 1613  L 2069 1613  z " transform="scale(0.015625)" />
        <path id="ArialMT-31" d="M 2384 0  L 1822 0  L 1822 3584  Q 1619 3391 1289 3197  Q 959 3003 697 2906  L 697 3450  Q 1169 3672 1522 3987  Q 1875 4303 2022 4600  L 2384 4600  L 2384 0  z " transform="scale(0.015625)" />
       </defs>
       <use xlink:href="#ArialMT-30" />
       <use xlink:href="#ArialMT-2e" x="55.615234" />
       <use xlink:href="#ArialMT-30" x="83.398438" />
       <use xlink:href="#ArialMT-38" x="139.013672" />
       <use xlink:href="#ArialMT-34" x="194.628906" />
       <use xlink:href="#ArialMT-31" x="250.244141" />
       <use xlink:href="#ArialMT-31" x="298.484375" />
      </g>
     </g>
    </g>
    <g id="text_3">
     
     <g style="fill: #444443" transform="translate(105.602187 61.766964)scale(0.12 -0.12)">
      <defs>
       <path id="Junicode-67" d="M 184 -963  Q 184 -650 769 -231  Q 819 -188 819 -163  Q 813 -128 756 -116  Q 331 6 331 347  Q 331 506 688 756  Q 719 778 761 803  Q 803 828 803 865  Q 803 903 756 934  Q 300 1225 300 1681  Q 300 2138 614 2428  Q 928 2719 1325 2719  Q 1722 2719 1994 2598  Q 2266 2478 2425 2478  L 2963 2478  Q 3009 2478 3009 2343  Q 3009 2209 2963 2209  L 2444 2209  Q 2456 2094 2456 1869  Q 2456 1416 2162 1114  Q 1869 813 1344 813  Q 1241 813 1106 825  Q 1041 825 972 781  Q 756 641 756 469  Q 756 219 1222 219  L 2016 219  Q 2944 219 2944 -494  Q 2944 -1025 2445 -1386  Q 1947 -1747 1338 -1747  Q 772 -1747 478 -1526  Q 184 -1306 184 -963  z M 684 -788  Q 684 -1094 912 -1280  Q 1141 -1466 1572 -1466  Q 2003 -1466 2281 -1258  Q 2559 -1050 2559 -756  Q 2559 -172 1797 -172  L 1222 -172  Q 1113 -172 1031 -231  Q 684 -481 684 -788  z M 781 1778  Q 781 1438 987 1217  Q 1194 997 1441 997  Q 1972 997 1972 1697  Q 1972 2234 1703 2438  Q 1575 2534 1359 2534  Q 1144 2534 962 2326  Q 781 2119 781 1778  z " transform="scale(0.015625)" />
       <path id="Junicode-65" d="M 266 1347  Q 266 1903 620 2311  Q 975 2719 1416 2719  Q 1856 2719 2128 2412  Q 2400 2106 2400 1912  Q 2400 1719 2241 1716  L 838 1716  Q 744 1716 744 1509  Q 744 1009 983 651  Q 1222 294 1644 294  Q 1959 294 2272 481  Q 2288 491 2306 491  Q 2344 491 2372 456  Q 2394 434 2394 391  Q 2394 375 2381 366  Q 1888 -72 1409 -72  Q 931 -72 598 359  Q 266 791 266 1347  z M 816 1969  Q 816 1925 891 1925  L 1894 1925  Q 1941 1925 1941 1978  Q 1941 2116 1770 2325  Q 1600 2534 1416 2534  Q 1213 2534 1064 2398  Q 916 2263 825 2016  Q 816 1991 816 1969  z " transform="scale(0.015625)" />
       <path id="Junicode-6e" d="M 2800 397  Q 2800 153 3159 153  Q 3203 153 3203 64  Q 3203 -25 3159 -25  Q 2919 0 2575 0  Q 2231 0 1978 -25  Q 1934 -25 1934 64  Q 1934 153 1978 153  Q 2322 153 2322 397  L 2322 1656  Q 2322 1919 2276 2101  Q 2231 2284 2134 2361  Q 2038 2438 1794 2438  Q 1663 2438 1556 2384  Q 1450 2331 1348 2257  Q 1247 2184 1176 2076  Q 1106 1969 1106 1844  L 1106 397  Q 1106 153 1441 153  Q 1484 153 1484 64  Q 1484 -25 1441 -25  Q 1200 0 856 0  Q 513 0 269 -25  Q 225 -25 225 64  Q 225 153 269 153  Q 628 153 628 397  L 628 1794  Q 628 2194 366 2194  Q 313 2194 313 2281  Q 313 2369 366 2369  Q 484 2369 639 2462  Q 794 2556 909 2657  Q 1025 2759 1072 2759  Q 1116 2759 1116 2711  Q 1116 2663 1109 2580  Q 1103 2497 1103 2433  Q 1103 2369 1150 2369  Q 1175 2369 1197 2388  Q 1531 2719 2006 2719  Q 2469 2719 2697 2259  Q 2800 2053 2800 1484  L 2800 397  z " transform="scale(0.015625)" />
      </defs>
      <use xlink:href="#Junicode-67" />
      <use xlink:href="#Junicode-65" x="46.289062" />
      <use xlink:href="#Junicode-6e" x="87.207031" />
     </g>
    </g>
   </g>
   <g id="matplotlib.axis_2">
    <g id="ytick_1">
     <g id="line2d_3">
      <path d="M 21.8975 28.748839  L 206.0375 28.748839  " clip-path="url(#p864cc36f97)" style="fill: none; stroke: #ffffff; stroke-linecap: round" />
     </g>
     <g id="text_4">
      
      <g style="fill: #444443" transform="translate(4.44875 31.611964)scale(0.08 -0.08)">
       <use xlink:href="#ArialMT-30" />
      </g>
     </g>
    </g>
    <g id="ytick_2">
     <g id="line2d_4">
      <path d="M 21.8975 2.863125  L 206.0375 2.863125  " clip-path="url(#p864cc36f97)" style="fill: none; stroke: #ffffff; stroke-linecap: round" />
     </g>
     <g id="text_5">
      
      <g style="fill: #444443" transform="translate(0 5.72625)scale(0.08 -0.08)">
       <defs>
        <path id="ArialMT-36" d="M 3184 3459  L 2625 3416  Q 2550 3747 2413 3897  Q 2184 4138 1850 4138  Q 1581 4138 1378 3988  Q 1113 3794 959 3422  Q 806 3050 800 2363  Q 1003 2672 1297 2822  Q 1591 2972 1913 2972  Q 2475 2972 2870 2558  Q 3266 2144 3266 1488  Q 3266 1056 3080 686  Q 2894 316 2569 119  Q 2244 -78 1831 -78  Q 1128 -78 684 439  Q 241 956 241 2144  Q 241 3472 731 4075  Q 1159 4600 1884 4600  Q 2425 4600 2770 4297  Q 3116 3994 3184 3459  z M 888 1484  Q 888 1194 1011 928  Q 1134 663 1356 523  Q 1578 384 1822 384  Q 2178 384 2434 671  Q 2691 959 2691 1453  Q 2691 1928 2437 2201  Q 2184 2475 1800 2475  Q 1419 2475 1153 2201  Q 888 1928 888 1484  z " transform="scale(0.015625)" />
       </defs>
       <use xlink:href="#ArialMT-31" />
       <use xlink:href="#ArialMT-36" x="55.615234" />
      </g>
     </g>
    </g>
   </g>
   <g id="patch_3">
    <path d="M 21.8975 28.748839  L 31.127575 28.748839  L 31.127575 22.277411  L 21.8975 22.277411  z " clip-path="url(#p864cc36f97)" style="fill: #fefebb; stroke: #444443; stroke-width: 0.5; stroke-linejoin: miter" />
   </g>
   <g id="patch_4">
    <path d="M 31.127575 28.748839  L 40.35765 28.748839  L 40.35765 28.748839  L 31.127575 28.748839  z " clip-path="url(#p864cc36f97)" style="fill: #fefebb; stroke: #444443; stroke-width: 0.5; stroke-linejoin: miter" />
   </g>
   <g id="patch_5">
    <path d="M 40.35765 28.748839  L 49.587726 28.748839  L 49.587726 28.748839  L 40.35765 28.748839  z " clip-path="url(#p864cc36f97)" style="fill: #fefebb; stroke: #444443; stroke-width: 0.5; stroke-linejoin: miter" />
   </g>
   <g id="patch_6">
    <path d="M 49.587726 28.748839  L 58.817801 28.748839  L 58.817801 28.748839  L 49.587726 28.748839  z " clip-path="url(#p864cc36f97)" style="fill: #fefebb; stroke: #444443; stroke-width: 0.5; stroke-linejoin: miter" />
   </g>
   <g id="patch_7">
    <path d="M 58.817801 28.748839  L 68.047876 28.748839  L 68.047876 28.748839  L 58.817801 28.748839  z " clip-path="url(#p864cc36f97)" style="fill: #fefebb; stroke: #444443; stroke-width: 0.5; stroke-linejoin: miter" />
   </g>
   <g id="patch_8">
    <path d="M 68.047876 28.748839  L 77.277951 28.748839  L 77.277951 28.748839  L 68.047876 28.748839  z " clip-path="url(#p864cc36f97)" style="fill: #fefebb; stroke: #444443; stroke-width: 0.5; stroke-linejoin: miter" />
   </g>
   <g id="patch_9">
    <path d="M 77.277951 28.748839  L 86.508026 28.748839  L 86.508026 28.748839  L 77.277951 28.748839  z " clip-path="url(#p864cc36f97)" style="fill: #fefebb; stroke: #444443; stroke-width: 0.5; stroke-linejoin: miter" />
   </g>
   <g id="patch_10">
    <path d="M 86.508026 28.748839  L 95.738102 28.748839  L 95.738102 28.748839  L 86.508026 28.748839  z " clip-path="url(#p864cc36f97)" style="fill: #fefebb; stroke: #444443; stroke-width: 0.5; stroke-linejoin: miter" />
   </g>
   <g id="patch_11">
    <path d="M 95.738102 28.748839  L 104.968177 28.748839  L 104.968177 28.748839  L 95.738102 28.748839  z " clip-path="url(#p864cc36f97)" style="fill: #fefebb; stroke: #444443; stroke-width: 0.5; stroke-linejoin: miter" />
   </g>
   <g id="patch_12">
    <path d="M 104.968177 28.748839  L 114.198252 28.748839  L 114.198252 28.748839  L 104.968177 28.748839  z " clip-path="url(#p864cc36f97)" style="fill: #fefebb; stroke: #444443; stroke-width: 0.5; stroke-linejoin: miter" />
   </g>
   <g id="patch_13">
    <path d="M 114.198252 28.748839  L 123.428327 28.748839  L 123.428327 28.748839  L 114.198252 28.748839  z " clip-path="url(#p864cc36f97)" style="fill: #fefebb; stroke: #444443; stroke-width: 0.5; stroke-linejoin: miter" />
   </g>
   <g id="patch_14">
    <path d="M 123.428327 28.748839  L 132.658402 28.748839  L 132.658402 28.748839  L 123.428327 28.748839  z " clip-path="url(#p864cc36f97)" style="fill: #fefebb; stroke: #444443; stroke-width: 0.5; stroke-linejoin: miter" />
   </g>
   <g id="patch_15">
    <path d="M 132.658402 28.748839  L 141.888477 28.748839  L 141.888477 28.748839  L 132.658402 28.748839  z " clip-path="url(#p864cc36f97)" style="fill: #fefebb; stroke: #444443; stroke-width: 0.5; stroke-linejoin: miter" />
   </g>
   <g id="patch_16">
    <path d="M 141.888477 28.748839  L 151.118553 28.748839  L 151.118553 28.748839  L 141.888477 28.748839  z " clip-path="url(#p864cc36f97)" style="fill: #fefebb; stroke: #444443; stroke-width: 0.5; stroke-linejoin: miter" />
   </g>
   <g id="patch_17">
    <path d="M 151.118553 28.748839  L 160.348628 28.748839  L 160.348628 28.748839  L 151.118553 28.748839  z " clip-path="url(#p864cc36f97)" style="fill: #fefebb; stroke: #444443; stroke-width: 0.5; stroke-linejoin: miter" />
   </g>
   <g id="patch_18">
    <path d="M 160.348628 28.748839  L 169.578703 28.748839  L 169.578703 28.748839  L 160.348628 28.748839  z " clip-path="url(#p864cc36f97)" style="fill: #fefebb; stroke: #444443; stroke-width: 0.5; stroke-linejoin: miter" />
   </g>
   <g id="patch_19">
    <path d="M 169.578703 28.748839  L 178.808778 28.748839  L 178.808778 28.748839  L 169.578703 28.748839  z " clip-path="url(#p864cc36f97)" style="fill: #fefebb; stroke: #444443; stroke-width: 0.5; stroke-linejoin: miter" />
   </g>
   <g id="patch_20">
    <path d="M 178.808778 28.748839  L 188.038853 28.748839  L 188.038853 28.748839  L 178.808778 28.748839  z " clip-path="url(#p864cc36f97)" style="fill: #fefebb; stroke: #444443; stroke-width: 0.5; stroke-linejoin: miter" />
   </g>
   <g id="patch_21">
    <path d="M 188.038853 28.748839  L 197.268929 28.748839  L 197.268929 28.748839  L 188.038853 28.748839  z " clip-path="url(#p864cc36f97)" style="fill: #fefebb; stroke: #444443; stroke-width: 0.5; stroke-linejoin: miter" />
   </g>
   <g id="patch_22">
    <path d="M 21.8975 22.277411  L 31.127575 22.277411  L 31.127575 10.952411  L 21.8975 10.952411  z " clip-path="url(#p864cc36f97)" style="fill: #a1dab4; stroke: #444443; stroke-width: 0.5; stroke-linejoin: miter" />
   </g>
   <g id="patch_23">
    <path d="M 31.127575 28.748839  L 40.35765 28.748839  L 40.35765 2.863125  L 31.127575 2.863125  z " clip-path="url(#p864cc36f97)" style="fill: #a1dab4; stroke: #444443; stroke-width: 0.5; stroke-linejoin: miter" />
   </g>
   <g id="patch_24">
    <path d="M 40.35765 28.748839  L 49.587726 28.748839  L 49.587726 19.041696  L 40.35765 19.041696  z " clip-path="url(#p864cc36f97)" style="fill: #a1dab4; stroke: #444443; stroke-width: 0.5; stroke-linejoin: miter" />
   </g>
   <g id="patch_25">
    <path d="M 49.587726 28.748839  L 58.817801 28.748839  L 58.817801 10.952411  L 49.587726 10.952411  z " clip-path="url(#p864cc36f97)" style="fill: #a1dab4; stroke: #444443; stroke-width: 0.5; stroke-linejoin: miter" />
   </g>
   <g id="patch_26">
    <path d="M 58.817801 28.748839  L 68.047876 28.748839  L 68.047876 20.659554  L 58.817801 20.659554  z " clip-path="url(#p864cc36f97)" style="fill: #a1dab4; stroke: #444443; stroke-width: 0.5; stroke-linejoin: miter" />
   </g>
   <g id="patch_27">
    <path d="M 68.047876 28.748839  L 77.277951 28.748839  L 77.277951 19.041696  L 68.047876 19.041696  z " clip-path="url(#p864cc36f97)" style="fill: #a1dab4; stroke: #444443; stroke-width: 0.5; stroke-linejoin: miter" />
   </g>
   <g id="patch_28">
    <path d="M 77.277951 28.748839  L 86.508026 28.748839  L 86.508026 19.041696  L 77.277951 19.041696  z " clip-path="url(#p864cc36f97)" style="fill: #a1dab4; stroke: #444443; stroke-width: 0.5; stroke-linejoin: miter" />
   </g>
   <g id="patch_29">
    <path d="M 86.508026 28.748839  L 95.738102 28.748839  L 95.738102 19.041696  L 86.508026 19.041696  z " clip-path="url(#p864cc36f97)" style="fill: #a1dab4; stroke: #444443; stroke-width: 0.5; stroke-linejoin: miter" />
   </g>
   <g id="patch_30">
    <path d="M 95.738102 28.748839  L 104.968177 28.748839  L 104.968177 25.513125  L 95.738102 25.513125  z " clip-path="url(#p864cc36f97)" style="fill: #a1dab4; stroke: #444443; stroke-width: 0.5; stroke-linejoin: miter" />
   </g>
   <g id="patch_31">
    <path d="M 104.968177 28.748839  L 114.198252 28.748839  L 114.198252 27.130982  L 104.968177 27.130982  z " clip-path="url(#p864cc36f97)" style="fill: #a1dab4; stroke: #444443; stroke-width: 0.5; stroke-linejoin: miter" />
   </g>
   <g id="patch_32">
    <path d="M 114.198252 28.748839  L 123.428327 28.748839  L 123.428327 28.748839  L 114.198252 28.748839  z " clip-path="url(#p864cc36f97)" style="fill: #a1dab4; stroke: #444443; stroke-width: 0.5; stroke-linejoin: miter" />
   </g>
   <g id="patch_33">
    <path d="M 123.428327 28.748839  L 132.658402 28.748839  L 132.658402 25.513125  L 123.428327 25.513125  z " clip-path="url(#p864cc36f97)" style="fill: #a1dab4; stroke: #444443; stroke-width: 0.5; stroke-linejoin: miter" />
   </g>
   <g id="patch_34">
    <path d="M 132.658402 28.748839  L 141.888477 28.748839  L 141.888477 27.130982  L 132.658402 27.130982  z " clip-path="url(#p864cc36f97)" style="fill: #a1dab4; stroke: #444443; stroke-width: 0.5; stroke-linejoin: miter" />
   </g>
   <g id="patch_35">
    <path d="M 141.888477 28.748839  L 151.118553 28.748839  L 151.118553 28.748839  L 141.888477 28.748839  z " clip-path="url(#p864cc36f97)" style="fill: #a1dab4; stroke: #444443; stroke-width: 0.5; stroke-linejoin: miter" />
   </g>
   <g id="patch_36">
    <path d="M 151.118553 28.748839  L 160.348628 28.748839  L 160.348628 27.130982  L 151.118553 27.130982  z " clip-path="url(#p864cc36f97)" style="fill: #a1dab4; stroke: #444443; stroke-width: 0.5; stroke-linejoin: miter" />
   </g>
   <g id="patch_37">
    <path d="M 160.348628 28.748839  L 169.578703 28.748839  L 169.578703 28.748839  L 160.348628 28.748839  z " clip-path="url(#p864cc36f97)" style="fill: #a1dab4; stroke: #444443; stroke-width: 0.5; stroke-linejoin: miter" />
   </g>
   <g id="patch_38">
    <path d="M 169.578703 28.748839  L 178.808778 28.748839  L 178.808778 28.748839  L 169.578703 28.748839  z " clip-path="url(#p864cc36f97)" style="fill: #a1dab4; stroke: #444443; stroke-width: 0.5; stroke-linejoin: miter" />
   </g>
   <g id="patch_39">
    <path d="M 178.808778 28.748839  L 188.038853 28.748839  L 188.038853 28.748839  L 178.808778 28.748839  z " clip-path="url(#p864cc36f97)" style="fill: #a1dab4; stroke: #444443; stroke-width: 0.5; stroke-linejoin: miter" />
   </g>
   <g id="patch_40">
    <path d="M 188.038853 28.748839  L 197.268929 28.748839  L 197.268929 28.748839  L 188.038853 28.748839  z " clip-path="url(#p864cc36f97)" style="fill: #a1dab4; stroke: #444443; stroke-width: 0.5; stroke-linejoin: miter" />
   </g>
   <g id="patch_41">
    <path d="M 27.679987 29.564239  L 24.365467 36.902839  L 30.994507 36.902839  z " style="fill: #444443; stroke: #ffffff; stroke-linejoin: miter" />
   </g>
   <g id="patch_42">
    <path d="M 21.8975 28.748839  L 21.8975 1.568839  " style="fill: none; stroke: #ffffff; stroke-width: 0.3; stroke-linejoin: miter; stroke-linecap: square" />
   </g>
   <g id="patch_43">
    <path d="M 21.8975 28.748839  L 206.0375 28.748839  " style="fill: none; stroke: #ffffff; stroke-width: 0.3; stroke-linejoin: miter; stroke-linecap: square" />
   </g>
   <g id="text_6">
    
    <g style="fill: #444443" transform="translate(21.061862 45.056839)scale(0.08 -0.08)">
     <defs>
      <path id="Junicode-30" d="M 2772 2009  Q 2772 1131 2436 540  Q 2100 -50 1481 -50  Q 863 -50 541 540  Q 219 1131 219 2081  Q 219 3031 556 3598  Q 894 4166 1497 4166  Q 2119 4166 2445 3558  Q 2772 2950 2772 2009  z M 2216 1972  Q 2216 2700 2089 3331  Q 1963 3963 1503 3963  Q 1119 3963 941 3400  Q 763 2838 763 2153  Q 763 981 975 570  Q 1188 159 1484 159  Q 1831 159 2023 595  Q 2216 1031 2216 1972  z " transform="scale(0.015625)" />
      <path id="Junicode-2e" d="M 434 306  Q 434 466 546 562  Q 659 659 831 659  Q 1003 659 1097 543  Q 1191 428 1191 270  Q 1191 113 1083 17  Q 975 -78 809 -78  Q 644 -78 539 34  Q 434 147 434 306  z " transform="scale(0.015625)" />
     </defs>
     <use xlink:href="#Junicode-30" />
     <use xlink:href="#Junicode-2e" x="46.679688" />
     <use xlink:href="#Junicode-30" x="72.070312" />
     <use xlink:href="#Junicode-30" x="118.75" />
    </g>
   </g>
  </g>
 </g>
 <defs>
  <clipPath id="p864cc36f97">
   <rect x="21.8975" y="1.568839" width="184.14" height="27.18" />
  </clipPath>
 </defs>
</svg></g>


<g id="node4" class="node">
<title>leaf2</title>
<polygon fill="none" stroke="#444443" stroke-width="0" points="469.5,-274.5 446.5,-274.5 446.5,-236.5 469.5,-236.5 469.5,-274.5" />
<svg width="15px" height="30px" viewBox="0 0 21.139998 41.257123" version="1.1" preserveAspectRatio="xMinYMin meet" x="451" y="-270.5">
 <metadata>
  <rdf:RDF>
   <ns2:Work>
    <dc:type rdf:resource="http://purl.org/dc/dcmitype/StillImage" />
    <dc:date>2022-10-13T15:21:04.244885</dc:date>
    <dc:format>image/svg+xml</dc:format>
    <dc:creator>
     <ns2:Agent>
      <dc:title>Matplotlib v3.5.1, https://matplotlib.org/</dc:title>
     </ns2:Agent>
    </dc:creator>
   </ns2:Work>
  </rdf:RDF>
 </metadata>
 <defs>
  <style type="text/css">*{stroke-linejoin: round; stroke-linecap: butt}</style>
 </defs>
 <g id="figure_1">
  <g id="patch_1">
   <path d="M -0 41.257123  L 21.139998 41.257123  L 21.139998 -0  L -0 -0  z " style="fill: #ffffff" />
  </g>
  <g id="axes_1">
   <g id="patch_2">
    <path d="M 21.139998 10.569992  C 21.139998 9.026576 20.801947 7.501727 20.149671 6.102917  C 19.497395 4.704107 18.546588 3.464991 17.364262 2.472902  C 16.181937 1.480813 14.79654 0.759621 13.305714 0.360156  C 11.814889 -0.039309 10.254504 -0.107437 8.734536 0.160574  C 7.214568 0.428586 5.771586 1.026288 4.507294 1.911556  C 3.243002 2.796823 2.187816 3.948356 1.416108 5.284993  C 0.644401 6.621631 0.174737 8.111215 0.04022 9.648757  C -0.094298 11.1863 0.109568 12.73481 0.637447 14.185147  L 10.569998 10.569992  L 21.139998 10.569992  z " style="fill: #fefebb; stroke: #444443; stroke-width: 0.5; stroke-linejoin: miter" />
   </g>
   <g id="patch_3">
    <path d="M 0.637447 14.185147  C 1.487177 16.51976 3.133408 18.48166 5.284999 19.723882  C 7.436591 20.966103 9.958761 21.410829 12.405461 20.97941  C 14.85216 20.54799 17.070119 19.26745 18.667089 17.364256  C 20.264058 15.461061 21.139998 13.054434 21.139998 10.56999  L 10.569998 10.569992  L 0.637447 14.185147  z " style="fill: #a1dab4; stroke: #444443; stroke-width: 0.5; stroke-linejoin: miter" />
   </g>
   <g id="text_1">
    
    <g style="fill: #444443" transform="translate(1.768982 28.511998)scale(0.09 -0.09)">
     <defs>
      <path id="Junicode-6e" d="M 2800 397  Q 2800 153 3159 153  Q 3203 153 3203 64  Q 3203 -25 3159 -25  Q 2919 0 2575 0  Q 2231 0 1978 -25  Q 1934 -25 1934 64  Q 1934 153 1978 153  Q 2322 153 2322 397  L 2322 1656  Q 2322 1919 2276 2101  Q 2231 2284 2134 2361  Q 2038 2438 1794 2438  Q 1663 2438 1556 2384  Q 1450 2331 1348 2257  Q 1247 2184 1176 2076  Q 1106 1969 1106 1844  L 1106 397  Q 1106 153 1441 153  Q 1484 153 1484 64  Q 1484 -25 1441 -25  Q 1200 0 856 0  Q 513 0 269 -25  Q 225 -25 225 64  Q 225 153 269 153  Q 628 153 628 397  L 628 1794  Q 628 2194 366 2194  Q 313 2194 313 2281  Q 313 2369 366 2369  Q 484 2369 639 2462  Q 794 2556 909 2657  Q 1025 2759 1072 2759  Q 1116 2759 1116 2711  Q 1116 2663 1109 2580  Q 1103 2497 1103 2433  Q 1103 2369 1150 2369  Q 1175 2369 1197 2388  Q 1531 2719 2006 2719  Q 2469 2719 2697 2259  Q 2800 2053 2800 1484  L 2800 397  z " transform="scale(0.015625)" />
      <path id="Junicode-3d" d="M 2834 1863  L 372 1863  L 372 2175  L 2834 2175  L 2834 1863  z M 2834 1031  L 372 1031  L 372 1344  L 2834 1344  L 2834 1031  z " transform="scale(0.015625)" />
      <path id="Junicode-31" d="M 716 -25  Q 672 -25 672 64  Q 672 153 716 153  Q 1113 153 1219 273  Q 1325 394 1325 813  L 1325 3531  Q 1325 3678 1259 3678  Q 1238 3678 1184 3653  L 781 3469  Q 747 3453 715 3523  Q 684 3594 722 3616  Q 1406 3947 1734 4275  Q 1753 4294 1784 4294  Q 1825 4294 1825 4250  Q 1806 3859 1806 3713  L 1806 819  Q 1806 353 1943 253  Q 2081 153 2363 153  Q 2406 153 2406 64  Q 2406 -25 2363 -25  Q 2113 0 1538 0  Q 963 0 716 -25  z " transform="scale(0.015625)" />
      <path id="Junicode-30" d="M 2772 2009  Q 2772 1131 2436 540  Q 2100 -50 1481 -50  Q 863 -50 541 540  Q 219 1131 219 2081  Q 219 3031 556 3598  Q 894 4166 1497 4166  Q 2119 4166 2445 3558  Q 2772 2950 2772 2009  z M 2216 1972  Q 2216 2700 2089 3331  Q 1963 3963 1503 3963  Q 1119 3963 941 3400  Q 763 2838 763 2153  Q 763 981 975 570  Q 1188 159 1484 159  Q 1831 159 2023 595  Q 2216 1031 2216 1972  z " transform="scale(0.015625)" />
     </defs>
     <use xlink:href="#Junicode-6e" />
     <use xlink:href="#Junicode-3d" x="52.197266" />
     <use xlink:href="#Junicode-31" x="102.197266" />
     <use xlink:href="#Junicode-30" x="148.876953" />
    </g>
    
    <g style="fill: #444443" transform="translate(7.498045 38.800405)scale(0.09 -0.09)">
     <defs>
      <path id="Junicode-41" d="M 31 -22  Q -13 -22 -13 97  Q -13 216 31 216  Q 334 216 434 303  Q 534 391 641 628  L 1819 3713  Q 1838 3766 1838 3806  Q 1838 3847 1797 3889  Q 1756 3931 1756 3950  Q 1756 3969 1879 4036  Q 2003 4103 2168 4218  Q 2334 4334 2372 4334  Q 2444 4334 2481 4197  Q 2563 3894 2634 3678  L 3675 581  Q 3797 216 4275 216  Q 4316 216 4316 97  Q 4316 -22 4275 -22  Q 4047 0 3553 0  Q 3059 0 2834 -22  Q 2791 -22 2791 97  Q 2791 216 2834 216  Q 3144 216 3144 428  Q 3144 500 3119 581  L 2803 1559  Q 2775 1659 2666 1659  L 1394 1659  Q 1306 1659 1269 1550  L 916 569  Q 888 500 888 444  Q 888 216 1359 216  Q 1403 216 1403 97  Q 1403 -22 1359 -22  Q 1094 0 694 0  Q 294 0 31 -22  z M 2600 1875  Q 2678 1875 2678 1925  Q 2678 1941 2672 1959  L 2141 3622  Q 2122 3684 2084 3684  Q 2047 3684 2025 3622  L 1409 1959  Q 1403 1944 1403 1925  Q 1403 1875 1478 1875  L 2600 1875  z " transform="scale(0.015625)" />
     </defs>
     <use xlink:href="#Junicode-41" />
    </g>
   </g>
  </g>
 </g>
</svg></g>

<g id="edge1" class="edge">
<title>node1-&gt;leaf2</title>
<path fill="none" stroke="#444443" stroke-width="0.3" d="M376.79,-211.14C400.5,-224.25 426.77,-238.78 442.57,-247.52" />
<polygon fill="#444443" stroke="#444443" stroke-width="0.3" points="442.18,-248.91 446.36,-249.62 443.54,-246.45 442.18,-248.91" />
</g>

<g id="node5" class="node">
<title>leaf3</title>
<polygon fill="none" stroke="#444443" stroke-width="0" points="491.5,-223 424.5,-223 424.5,-140 491.5,-140 491.5,-223" />
<svg width="59px" height="75px" viewBox="0 0 78.52 100.932331" version="1.1" preserveAspectRatio="xMinYMin meet" x="429" y="-218.5">
 <metadata>
  <rdf:RDF>
   <ns2:Work>
    <dc:type rdf:resource="http://purl.org/dc/dcmitype/StillImage" />
    <dc:date>2022-10-13T15:21:04.262430</dc:date>
    <dc:format>image/svg+xml</dc:format>
    <dc:creator>
     <ns2:Agent>
      <dc:title>Matplotlib v3.5.1, https://matplotlib.org/</dc:title>
     </ns2:Agent>
    </dc:creator>
   </ns2:Work>
  </rdf:RDF>
 </metadata>
 <defs>
  <style type="text/css">*{stroke-linejoin: round; stroke-linecap: butt}</style>
 </defs>
 <g id="figure_1">
  <g id="patch_1">
   <path d="M -0 100.932331  L 78.52 100.932331  L 78.52 0  L -0 0  z " style="fill: #ffffff" />
  </g>
  <g id="axes_1">
   <g id="patch_2">
    <path d="M 78.52 39.26  C 78.52 34.104424 77.504464 28.99898 75.53151 24.235848  C 73.558557 19.472717 70.666555 15.14453 67.021012 11.498988  C 63.37547 7.853445 59.047283 4.961443 54.284152 2.98849  C 49.52102 1.015536 44.415576 -0 39.26 -0  C 34.104424 -0 28.99898 1.015536 24.235848 2.98849  C 19.472717 4.961443 15.14453 7.853445 11.498988 11.498988  C 7.853445 15.14453 4.961443 19.472717 2.98849 24.235848  C 1.015536 28.99898 0 34.104424 0 39.26  C 0 44.415576 1.015536 49.52102 2.98849 54.284152  C 4.961443 59.047283 7.853445 63.37547 11.498988 67.021012  C 15.14453 70.666555 19.472717 73.558557 24.235848 75.53151  C 28.99898 77.504464 34.104424 78.52 39.26 78.52  C 44.415576 78.52 49.52102 77.504464 54.284152 75.53151  C 59.047283 73.558557 63.37547 70.666555 67.021012 67.021012  C 70.666555 63.37547 73.558557 59.047283 75.53151 54.284152  C 77.504464 49.52102 78.52 44.415576 78.52 39.26  M 39.26 39.26  M 78.52 39.26  z " style="fill: #fefebb; stroke: #444443; stroke-width: 0.5; stroke-linejoin: miter" />
   </g>
   <g id="text_1">
    
    <g style="fill: #444443" transform="translate(30.458984 88.187206)scale(0.09 -0.09)">
     <defs>
      <path id="Junicode-6e" d="M 2800 397  Q 2800 153 3159 153  Q 3203 153 3203 64  Q 3203 -25 3159 -25  Q 2919 0 2575 0  Q 2231 0 1978 -25  Q 1934 -25 1934 64  Q 1934 153 1978 153  Q 2322 153 2322 397  L 2322 1656  Q 2322 1919 2276 2101  Q 2231 2284 2134 2361  Q 2038 2438 1794 2438  Q 1663 2438 1556 2384  Q 1450 2331 1348 2257  Q 1247 2184 1176 2076  Q 1106 1969 1106 1844  L 1106 397  Q 1106 153 1441 153  Q 1484 153 1484 64  Q 1484 -25 1441 -25  Q 1200 0 856 0  Q 513 0 269 -25  Q 225 -25 225 64  Q 225 153 269 153  Q 628 153 628 397  L 628 1794  Q 628 2194 366 2194  Q 313 2194 313 2281  Q 313 2369 366 2369  Q 484 2369 639 2462  Q 794 2556 909 2657  Q 1025 2759 1072 2759  Q 1116 2759 1116 2711  Q 1116 2663 1109 2580  Q 1103 2497 1103 2433  Q 1103 2369 1150 2369  Q 1175 2369 1197 2388  Q 1531 2719 2006 2719  Q 2469 2719 2697 2259  Q 2800 2053 2800 1484  L 2800 397  z " transform="scale(0.015625)" />
      <path id="Junicode-3d" d="M 2834 1863  L 372 1863  L 372 2175  L 2834 2175  L 2834 1863  z M 2834 1031  L 372 1031  L 372 1344  L 2834 1344  L 2834 1031  z " transform="scale(0.015625)" />
      <path id="Junicode-36" d="M 1478 -50  Q 916 -50 614 383  Q 313 816 313 1453  Q 313 2347 930 3148  Q 1547 3950 2350 4306  Q 2400 4325 2441 4250  Q 2478 4178 2431 4153  Q 1516 3634 1134 2819  Q 953 2434 878 1966  Q 1353 2394 1716 2394  Q 2159 2394 2429 2037  Q 2700 1681 2700 1222  Q 2700 697 2361 323  Q 2022 -50 1478 -50  z M 1556 197  Q 1878 197 2047 461  Q 2216 725 2216 1031  Q 2216 1488 1998 1764  Q 1781 2041 1466 2041  Q 1113 2041 844 1697  Q 825 1563 825 1441  Q 825 606 1178 322  Q 1334 197 1556 197  z " transform="scale(0.015625)" />
     </defs>
     <use xlink:href="#Junicode-6e" />
     <use xlink:href="#Junicode-3d" x="52.197266" />
     <use xlink:href="#Junicode-36" x="102.197266" />
     <use xlink:href="#Junicode-36" x="148.876953" />
    </g>
    
    <g style="fill: #444443" transform="translate(36.188047 98.475613)scale(0.09 -0.09)">
     <defs>
      <path id="Junicode-41" d="M 31 -22  Q -13 -22 -13 97  Q -13 216 31 216  Q 334 216 434 303  Q 534 391 641 628  L 1819 3713  Q 1838 3766 1838 3806  Q 1838 3847 1797 3889  Q 1756 3931 1756 3950  Q 1756 3969 1879 4036  Q 2003 4103 2168 4218  Q 2334 4334 2372 4334  Q 2444 4334 2481 4197  Q 2563 3894 2634 3678  L 3675 581  Q 3797 216 4275 216  Q 4316 216 4316 97  Q 4316 -22 4275 -22  Q 4047 0 3553 0  Q 3059 0 2834 -22  Q 2791 -22 2791 97  Q 2791 216 2834 216  Q 3144 216 3144 428  Q 3144 500 3119 581  L 2803 1559  Q 2775 1659 2666 1659  L 1394 1659  Q 1306 1659 1269 1550  L 916 569  Q 888 500 888 444  Q 888 216 1359 216  Q 1403 216 1403 97  Q 1403 -22 1359 -22  Q 1094 0 694 0  Q 294 0 31 -22  z M 2600 1875  Q 2678 1875 2678 1925  Q 2678 1941 2672 1959  L 2141 3622  Q 2122 3684 2084 3684  Q 2047 3684 2025 3622  L 1409 1959  Q 1403 1944 1403 1925  Q 1403 1875 1478 1875  L 2600 1875  z " transform="scale(0.015625)" />
     </defs>
     <use xlink:href="#Junicode-41" />
    </g>
   </g>
  </g>
 </g>
</svg></g>

<g id="edge2" class="edge">
<title>node1-&gt;leaf3</title>
<path fill="none" stroke="#444443" stroke-width="0.3" d="M407.85,-181.87C412.11,-181.84 416.27,-181.81 420.25,-181.78" />
<polygon fill="#444443" stroke="#444443" stroke-width="0.3" points="420.51,-183.18 424.5,-181.75 420.49,-180.38 420.51,-183.18" />
</g>

<g id="node6" class="node">
<title>leaf5</title>
<polygon fill="none" stroke="#444443" stroke-width="0" points="468.5,-132 447.5,-132 447.5,-97 468.5,-97 468.5,-132" />
<svg width="13px" height="27px" viewBox="0 0 17.51597 37.488162" version="1.1" preserveAspectRatio="xMinYMin meet" x="452" y="-127.5">
 <metadata>
  <rdf:RDF>
   <ns2:Work>
    <dc:type rdf:resource="http://purl.org/dc/dcmitype/StillImage" />
    <dc:date>2022-10-13T15:21:04.275027</dc:date>
    <dc:format>image/svg+xml</dc:format>
    <dc:creator>
     <ns2:Agent>
      <dc:title>Matplotlib v3.5.1, https://matplotlib.org/</dc:title>
     </ns2:Agent>
    </dc:creator>
   </ns2:Work>
  </rdf:RDF>
 </metadata>
 <defs>
  <style type="text/css">*{stroke-linejoin: round; stroke-linecap: butt}</style>
 </defs>
 <g id="figure_1">
  <g id="patch_1">
   <path d="M 0 37.488162  L 17.51597 37.488162  L 17.51597 0  L 0 0  z " style="fill: #ffffff" />
  </g>
  <g id="axes_1">
   <g id="patch_2">
    <path d="M 17.51597 8.757991  C 17.51597 7.109588 17.050584 5.494197 16.173581 4.098454  C 15.296577 2.702711 14.043084 1.582521 12.557924 0.867306  C 11.072764 0.15209 9.415424 -0.129503 7.777385 0.05506  C 6.139346 0.239622 4.58622 0.882949 3.297446 1.910711  C 2.008673 2.938474 1.035873 4.309507 0.49144 5.865408  C -0.052993 7.421308 -0.147253 9.099756 0.219552 10.70683  C 0.586356 12.313905 1.399532 13.785236 2.56513 14.950833  C 3.730727 16.11643 5.202058 16.929606 6.809133 17.29641  L 8.75797 8.757991  L 17.51597 8.757991  z " style="fill: #fefebb; stroke: #444443; stroke-width: 0.5; stroke-linejoin: miter" />
   </g>
   <g id="patch_3">
    <path d="M 6.809133 17.29641  C 8.091813 17.589173 9.424129 17.589173 10.70681 17.29641  C 11.98949 17.003646 13.189865 16.425576 14.218495 15.605271  C 15.247125 14.784966 16.07781 13.743319 16.648656 12.557944  C 17.219502 11.372569 17.51597 10.073656 17.51597 8.75799  L 8.75797 8.757991  L 6.809133 17.29641  z " style="fill: #a1dab4; stroke: #444443; stroke-width: 0.5; stroke-linejoin: miter" />
   </g>
   <g id="text_1">
    
    <g style="fill: #444443" transform="translate(2.057892 24.743037)scale(0.09 -0.09)">
     <defs>
      <path id="Junicode-6e" d="M 2800 397  Q 2800 153 3159 153  Q 3203 153 3203 64  Q 3203 -25 3159 -25  Q 2919 0 2575 0  Q 2231 0 1978 -25  Q 1934 -25 1934 64  Q 1934 153 1978 153  Q 2322 153 2322 397  L 2322 1656  Q 2322 1919 2276 2101  Q 2231 2284 2134 2361  Q 2038 2438 1794 2438  Q 1663 2438 1556 2384  Q 1450 2331 1348 2257  Q 1247 2184 1176 2076  Q 1106 1969 1106 1844  L 1106 397  Q 1106 153 1441 153  Q 1484 153 1484 64  Q 1484 -25 1441 -25  Q 1200 0 856 0  Q 513 0 269 -25  Q 225 -25 225 64  Q 225 153 269 153  Q 628 153 628 397  L 628 1794  Q 628 2194 366 2194  Q 313 2194 313 2281  Q 313 2369 366 2369  Q 484 2369 639 2462  Q 794 2556 909 2657  Q 1025 2759 1072 2759  Q 1116 2759 1116 2711  Q 1116 2663 1109 2580  Q 1103 2497 1103 2433  Q 1103 2369 1150 2369  Q 1175 2369 1197 2388  Q 1531 2719 2006 2719  Q 2469 2719 2697 2259  Q 2800 2053 2800 1484  L 2800 397  z " transform="scale(0.015625)" />
      <path id="Junicode-3d" d="M 2834 1863  L 372 1863  L 372 2175  L 2834 2175  L 2834 1863  z M 2834 1031  L 372 1031  L 372 1344  L 2834 1344  L 2834 1031  z " transform="scale(0.015625)" />
      <path id="Junicode-37" d="M 2778 3950  L 1184 0  Q 1163 -44 939 -44  Q 716 -44 716 0  Q 756 69 875 313  L 1069 744  L 2309 3559  Q 2338 3628 2338 3647  Q 2338 3694 2234 3694  L 1563 3694  Q 1053 3694 903 3653  Q 572 3563 447 3244  Q 428 3200 347 3200  Q 266 3200 263 3244  L 422 4019  Q 441 4116 550 4116  L 2681 4116  Q 2803 4116 2803 4044  Q 2803 4009 2778 3950  z " transform="scale(0.015625)" />
     </defs>
     <use xlink:href="#Junicode-6e" />
     <use xlink:href="#Junicode-3d" x="52.197266" />
     <use xlink:href="#Junicode-37" x="102.197266" />
    </g>
    
    <g style="fill: #444443" transform="translate(5.686017 35.031444)scale(0.09 -0.09)">
     <defs>
      <path id="Junicode-41" d="M 31 -22  Q -13 -22 -13 97  Q -13 216 31 216  Q 334 216 434 303  Q 534 391 641 628  L 1819 3713  Q 1838 3766 1838 3806  Q 1838 3847 1797 3889  Q 1756 3931 1756 3950  Q 1756 3969 1879 4036  Q 2003 4103 2168 4218  Q 2334 4334 2372 4334  Q 2444 4334 2481 4197  Q 2563 3894 2634 3678  L 3675 581  Q 3797 216 4275 216  Q 4316 216 4316 97  Q 4316 -22 4275 -22  Q 4047 0 3553 0  Q 3059 0 2834 -22  Q 2791 -22 2791 97  Q 2791 216 2834 216  Q 3144 216 3144 428  Q 3144 500 3119 581  L 2803 1559  Q 2775 1659 2666 1659  L 1394 1659  Q 1306 1659 1269 1550  L 916 569  Q 888 500 888 444  Q 888 216 1359 216  Q 1403 216 1403 97  Q 1403 -22 1359 -22  Q 1094 0 694 0  Q 294 0 31 -22  z M 2600 1875  Q 2678 1875 2678 1925  Q 2678 1941 2672 1959  L 2141 3622  Q 2122 3684 2084 3684  Q 2047 3684 2025 3622  L 1409 1959  Q 1403 1944 1403 1925  Q 1403 1875 1478 1875  L 2600 1875  z " transform="scale(0.015625)" />
     </defs>
     <use xlink:href="#Junicode-41" />
    </g>
   </g>
  </g>
 </g>
</svg></g>

<g id="edge4" class="edge">
<title>node4-&gt;leaf5</title>
<path fill="none" stroke="#444443" stroke-width="0.3" d="M407.1,-113.74C420.97,-113.95 433.84,-114.15 443.03,-114.29" />
<polygon fill="#444443" stroke="#444443" stroke-width="0.3" points="443.22,-115.69 447.24,-114.35 443.26,-112.89 443.22,-115.69" />
</g>

<g id="node7" class="node">
<title>leaf6</title>
<polygon fill="none" stroke="#444443" stroke-width="0" points="491.5,-83 424.5,-83 424.5,0 491.5,0 491.5,-83" />
<svg width="59px" height="75px" viewBox="0 0 78.52 100.932331" version="1.1" preserveAspectRatio="xMinYMin meet" x="429" y="-78.5">
 <metadata>
  <rdf:RDF>
   <ns2:Work>
    <dc:type rdf:resource="http://purl.org/dc/dcmitype/StillImage" />
    <dc:date>2022-10-13T15:21:04.287612</dc:date>
    <dc:format>image/svg+xml</dc:format>
    <dc:creator>
     <ns2:Agent>
      <dc:title>Matplotlib v3.5.1, https://matplotlib.org/</dc:title>
     </ns2:Agent>
    </dc:creator>
   </ns2:Work>
  </rdf:RDF>
 </metadata>
 <defs>
  <style type="text/css">*{stroke-linejoin: round; stroke-linecap: butt}</style>
 </defs>
 <g id="figure_1">
  <g id="patch_1">
   <path d="M -0 100.932331  L 78.52 100.932331  L 78.52 0  L -0 0  z " style="fill: #ffffff" />
  </g>
  <g id="axes_1">
   <g id="patch_2">
    <path d="M 78.52 39.26  C 78.52 34.104424 77.504464 28.99898 75.53151 24.235848  C 73.558557 19.472717 70.666555 15.14453 67.021012 11.498988  C 63.37547 7.853445 59.047283 4.961443 54.284152 2.98849  C 49.52102 1.015536 44.415576 -0 39.26 -0  C 34.104424 -0 28.99898 1.015536 24.235848 2.98849  C 19.472717 4.961443 15.14453 7.853445 11.498988 11.498988  C 7.853445 15.14453 4.961443 19.472717 2.98849 24.235848  C 1.015536 28.99898 0 34.104424 0 39.26  C 0 44.415576 1.015536 49.52102 2.98849 54.284152  C 4.961443 59.047283 7.853445 63.37547 11.498988 67.021012  C 15.14453 70.666555 19.472717 73.558557 24.235848 75.53151  C 28.99898 77.504464 34.104424 78.52 39.26 78.52  C 44.415576 78.52 49.52102 77.504464 54.284152 75.53151  C 59.047283 73.558557 63.37547 70.666555 67.021012 67.021012  C 70.666555 63.37547 73.558557 59.047283 75.53151 54.284152  C 77.504464 49.52102 78.52 44.415576 78.52 39.26  M 39.26 39.26  M 78.52 39.26  z " style="fill: #a1dab4; stroke: #444443; stroke-width: 0.5; stroke-linejoin: miter" />
   </g>
   <g id="text_1">
    
    <g style="fill: #444443" transform="translate(30.458984 88.187206)scale(0.09 -0.09)">
     <defs>
      <path id="Junicode-6e" d="M 2800 397  Q 2800 153 3159 153  Q 3203 153 3203 64  Q 3203 -25 3159 -25  Q 2919 0 2575 0  Q 2231 0 1978 -25  Q 1934 -25 1934 64  Q 1934 153 1978 153  Q 2322 153 2322 397  L 2322 1656  Q 2322 1919 2276 2101  Q 2231 2284 2134 2361  Q 2038 2438 1794 2438  Q 1663 2438 1556 2384  Q 1450 2331 1348 2257  Q 1247 2184 1176 2076  Q 1106 1969 1106 1844  L 1106 397  Q 1106 153 1441 153  Q 1484 153 1484 64  Q 1484 -25 1441 -25  Q 1200 0 856 0  Q 513 0 269 -25  Q 225 -25 225 64  Q 225 153 269 153  Q 628 153 628 397  L 628 1794  Q 628 2194 366 2194  Q 313 2194 313 2281  Q 313 2369 366 2369  Q 484 2369 639 2462  Q 794 2556 909 2657  Q 1025 2759 1072 2759  Q 1116 2759 1116 2711  Q 1116 2663 1109 2580  Q 1103 2497 1103 2433  Q 1103 2369 1150 2369  Q 1175 2369 1197 2388  Q 1531 2719 2006 2719  Q 2469 2719 2697 2259  Q 2800 2053 2800 1484  L 2800 397  z " transform="scale(0.015625)" />
      <path id="Junicode-3d" d="M 2834 1863  L 372 1863  L 372 2175  L 2834 2175  L 2834 1863  z M 2834 1031  L 372 1031  L 372 1344  L 2834 1344  L 2834 1031  z " transform="scale(0.015625)" />
      <path id="Junicode-36" d="M 1478 -50  Q 916 -50 614 383  Q 313 816 313 1453  Q 313 2347 930 3148  Q 1547 3950 2350 4306  Q 2400 4325 2441 4250  Q 2478 4178 2431 4153  Q 1516 3634 1134 2819  Q 953 2434 878 1966  Q 1353 2394 1716 2394  Q 2159 2394 2429 2037  Q 2700 1681 2700 1222  Q 2700 697 2361 323  Q 2022 -50 1478 -50  z M 1556 197  Q 1878 197 2047 461  Q 2216 725 2216 1031  Q 2216 1488 1998 1764  Q 1781 2041 1466 2041  Q 1113 2041 844 1697  Q 825 1563 825 1441  Q 825 606 1178 322  Q 1334 197 1556 197  z " transform="scale(0.015625)" />
      <path id="Junicode-37" d="M 2778 3950  L 1184 0  Q 1163 -44 939 -44  Q 716 -44 716 0  Q 756 69 875 313  L 1069 744  L 2309 3559  Q 2338 3628 2338 3647  Q 2338 3694 2234 3694  L 1563 3694  Q 1053 3694 903 3653  Q 572 3563 447 3244  Q 428 3200 347 3200  Q 266 3200 263 3244  L 422 4019  Q 441 4116 550 4116  L 2681 4116  Q 2803 4116 2803 4044  Q 2803 4009 2778 3950  z " transform="scale(0.015625)" />
     </defs>
     <use xlink:href="#Junicode-6e" />
     <use xlink:href="#Junicode-3d" x="52.197266" />
     <use xlink:href="#Junicode-36" x="102.197266" />
     <use xlink:href="#Junicode-37" x="148.876953" />
    </g>
    
    <g style="fill: #444443" transform="translate(36.513594 98.475613)scale(0.09 -0.09)">
     <defs>
      <path id="Junicode-42" d="M 847 581  L 847 3663  Q 847 4006 256 4006  Q 213 4006 213 4125  Q 213 4244 256 4244  Q 613 4225 1006 4225  Q 1400 4225 1572 4234  Q 1744 4244 1966 4244  Q 2506 4244 2872 3991  Q 3238 3738 3238 3234  Q 3238 2613 2625 2328  Q 2578 2306 2578 2288  Q 2578 2266 2625 2250  Q 2963 2141 3245 1852  Q 3528 1563 3528 1084  Q 3528 641 3201 309  Q 2875 -22 1966 -22  Q 1766 -22 1528 -11  Q 1291 0 916 0  Q 541 0 284 -22  Q 244 -22 244 97  Q 244 216 284 216  Q 847 216 847 581  z M 1347 2466  Q 1347 2353 1594 2353  Q 2700 2353 2700 3225  Q 2700 4053 1509 4053  Q 1347 4053 1347 3844  L 1347 2466  z M 1347 866  Q 1347 178 1922 178  Q 2963 178 2963 1163  Q 2963 1822 2269 2066  Q 1997 2156 1456 2159  Q 1347 2159 1347 2066  L 1347 866  z " transform="scale(0.015625)" />
     </defs>
     <use xlink:href="#Junicode-42" />
    </g>
   </g>
  </g>
 </g>
</svg></g>

<g id="edge5" class="edge">
<title>node4-&gt;leaf6</title>
<path fill="none" stroke="#444443" stroke-width="0.3" d="M377.17,-84.44C391.66,-76.64 407.08,-68.35 420.47,-61.15" />
<polygon fill="#444443" stroke="#444443" stroke-width="0.3" points="421.33,-62.28 424.19,-59.15 420,-59.81 421.33,-62.28" />
</g>

<g id="node3" class="node">
<title>node0</title>
<svg width="159px" height="88px" viewBox="0 0 211.726429 117.83375" version="1.1" preserveAspectRatio="xMinYMin meet" x="29" y="-190.5">
 <metadata>
  <rdf:RDF>
   <ns2:Work>
    <dc:type rdf:resource="http://purl.org/dc/dcmitype/StillImage" />
    <dc:date>2022-10-13T15:21:04.216777</dc:date>
    <dc:format>image/svg+xml</dc:format>
    <dc:creator>
     <ns2:Agent>
      <dc:title>Matplotlib v3.5.1, https://matplotlib.org/</dc:title>
     </ns2:Agent>
    </dc:creator>
   </ns2:Work>
  </rdf:RDF>
 </metadata>
 <defs>
  <style type="text/css">*{stroke-linejoin: round; stroke-linecap: butt}</style>
 </defs>
 <g id="figure_1">
  <g id="patch_1">
   <path d="M -0 117.83375  L 211.726429 117.83375  L 211.726429 0  L -0 0  z " style="fill: #ffffff" />
  </g>
  <g id="axes_1">
   <g id="patch_2">
    <path d="M 21.8975 81.54  L 206.0375 81.54  L 206.0375 0  L 21.8975 0  z " style="fill: #eaeaf2" />
   </g>
   <g id="matplotlib.axis_1">
    <g id="xtick_1">
     <g id="line2d_1">
      <path d="M 21.8975 81.54  L 21.8975 0  " clip-path="url(#p9c624c45c3)" style="fill: none; stroke: #ffffff; stroke-linecap: round" />
     </g>
     <g id="text_1">
      
      <g style="fill: #444443" transform="translate(7.44 100.26625)scale(0.08 -0.08)">
       <defs>
        <path id="ArialMT-30" d="M 266 2259  Q 266 3072 433 3567  Q 600 4063 929 4331  Q 1259 4600 1759 4600  Q 2128 4600 2406 4451  Q 2684 4303 2865 4023  Q 3047 3744 3150 3342  Q 3253 2941 3253 2259  Q 3253 1453 3087 958  Q 2922 463 2592 192  Q 2263 -78 1759 -78  Q 1097 -78 719 397  Q 266 969 266 2259  z M 844 2259  Q 844 1131 1108 757  Q 1372 384 1759 384  Q 2147 384 2411 759  Q 2675 1134 2675 2259  Q 2675 3391 2411 3762  Q 2147 4134 1753 4134  Q 1366 4134 1134 3806  Q 844 3388 844 2259  z " transform="scale(0.015625)" />
        <path id="ArialMT-2e" d="M 581 0  L 581 641  L 1222 641  L 1222 0  L 581 0  z " transform="scale(0.015625)" />
       </defs>
       <use xlink:href="#ArialMT-30" />
       <use xlink:href="#ArialMT-2e" x="55.615234" />
       <use xlink:href="#ArialMT-30" x="83.398438" />
       <use xlink:href="#ArialMT-30" x="139.013672" />
       <use xlink:href="#ArialMT-30" x="194.628906" />
       <use xlink:href="#ArialMT-30" x="250.244141" />
       <use xlink:href="#ArialMT-30" x="305.859375" />
      </g>
     </g>
    </g>
    <g id="xtick_2">
     <g id="line2d_2">
      <path d="M 197.268929 81.54  L 197.268929 0  " clip-path="url(#p9c624c45c3)" style="fill: none; stroke: #ffffff; stroke-linecap: round" />
     </g>
     <g id="text_2">
      
      <g style="fill: #444443" transform="translate(182.811429 100.26625)scale(0.08 -0.08)">
       <defs>
        <path id="ArialMT-35" d="M 266 1200  L 856 1250  Q 922 819 1161 601  Q 1400 384 1738 384  Q 2144 384 2425 690  Q 2706 997 2706 1503  Q 2706 1984 2436 2262  Q 2166 2541 1728 2541  Q 1456 2541 1237 2417  Q 1019 2294 894 2097  L 366 2166  L 809 4519  L 3088 4519  L 3088 3981  L 1259 3981  L 1013 2750  Q 1425 3038 1878 3038  Q 2478 3038 2890 2622  Q 3303 2206 3303 1553  Q 3303 931 2941 478  Q 2500 -78 1738 -78  Q 1113 -78 717 272  Q 322 622 266 1200  z " transform="scale(0.015625)" />
        <path id="ArialMT-34" d="M 2069 0  L 2069 1097  L 81 1097  L 81 1613  L 2172 4581  L 2631 4581  L 2631 1613  L 3250 1613  L 3250 1097  L 2631 1097  L 2631 0  L 2069 0  z M 2069 1613  L 2069 3678  L 634 1613  L 2069 1613  z " transform="scale(0.015625)" />
        <path id="ArialMT-32" d="M 3222 541  L 3222 0  L 194 0  Q 188 203 259 391  Q 375 700 629 1000  Q 884 1300 1366 1694  Q 2113 2306 2375 2664  Q 2638 3022 2638 3341  Q 2638 3675 2398 3904  Q 2159 4134 1775 4134  Q 1369 4134 1125 3890  Q 881 3647 878 3216  L 300 3275  Q 359 3922 746 4261  Q 1134 4600 1788 4600  Q 2447 4600 2831 4234  Q 3216 3869 3216 3328  Q 3216 3053 3103 2787  Q 2991 2522 2730 2228  Q 2469 1934 1863 1422  Q 1356 997 1212 845  Q 1069 694 975 541  L 3222 541  z " transform="scale(0.015625)" />
       </defs>
       <use xlink:href="#ArialMT-30" />
       <use xlink:href="#ArialMT-2e" x="55.615234" />
       <use xlink:href="#ArialMT-30" x="83.398438" />
       <use xlink:href="#ArialMT-35" x="139.013672" />
       <use xlink:href="#ArialMT-34" x="194.628906" />
       <use xlink:href="#ArialMT-32" x="250.244141" />
       <use xlink:href="#ArialMT-32" x="305.859375" />
      </g>
     </g>
    </g>
    <g id="text_3">
     
     <g style="fill: #444443" transform="translate(108.760625 114.558125)scale(0.12 -0.12)">
      <defs>
       <path id="Junicode-7a" d="M 2228 863  Q 2131 147 2131 31  Q 2131 -84 2047 -84  Q 2016 -84 1833 -42  Q 1650 0 1538 0  L 225 0  Q 172 0 172 44  Q 172 63 178 72  L 1422 2350  Q 1447 2397 1447 2422  Q 1447 2478 1356 2478  L 863 2478  Q 691 2478 573 2329  Q 456 2181 263 1759  Q 253 1747 242 1747  Q 231 1747 211 1756  Q 191 1766 191 1778  L 306 2613  Q 316 2684 334 2701  Q 353 2719 378 2719  L 700 2669  Q 781 2656 941 2656  L 2022 2656  Q 2069 2656 2069 2634  Q 2069 2613 2053 2584  L 813 325  Q 794 291 794 269  Q 794 213 878 200  Q 963 188 1258 188  Q 1553 188 1726 300  Q 1900 413 2100 891  Q 2113 909 2133 909  Q 2153 909 2190 898  Q 2228 888 2228 863  z " transform="scale(0.015625)" />
       <path id="Junicode-69" d="M 1459 -25  Q 1222 0 875 0  Q 528 0 275 -25  Q 231 -25 231 64  Q 231 153 275 153  Q 628 153 628 397  L 628 1784  Q 628 2216 341 2216  Q 288 2216 288 2303  Q 288 2391 341 2391  Q 444 2391 645 2497  Q 847 2603 950 2681  Q 1053 2759 1088 2759  Q 1125 2759 1125 2709  Q 1106 2372 1106 2191  L 1106 397  Q 1106 153 1459 153  Q 1503 153 1503 64  Q 1503 -25 1459 -25  z M 469 3615  Q 469 3756 564 3851  Q 659 3947 800 3947  Q 941 3947 1041 3851  Q 1141 3756 1141 3615  Q 1141 3475 1041 3375  Q 941 3275 800 3275  Q 659 3275 564 3375  Q 469 3475 469 3615  z " transform="scale(0.015625)" />
       <path id="Junicode-6a" d="M 1141 3615  Q 1141 3475 1041 3375  Q 941 3275 800 3275  Q 659 3275 564 3375  Q 469 3475 469 3615  Q 469 3756 564 3851  Q 659 3947 800 3947  Q 941 3947 1041 3851  Q 1141 3756 1141 3615  z M 1119 184  Q 1119 -844 775 -1325  Q 484 -1734 0 -1734  Q -156 -1734 -273 -1646  Q -391 -1559 -391 -1434  Q -391 -1334 -314 -1275  Q -238 -1216 -147 -1216  Q 6 -1216 129 -1337  Q 253 -1459 331 -1459  Q 641 -1459 641 -794  L 641 1784  Q 641 2216 353 2216  Q 300 2216 300 2303  Q 300 2391 353 2391  Q 456 2391 657 2497  Q 859 2603 962 2681  Q 1066 2759 1100 2759  Q 1138 2759 1138 2709  Q 1119 2372 1119 2191  L 1119 184  z " transform="scale(0.015625)" />
      </defs>
      <use xlink:href="#Junicode-7a" />
      <use xlink:href="#Junicode-69" x="35.888672" />
      <use xlink:href="#Junicode-6a" x="61.474609" />
     </g>
    </g>
   </g>
   <g id="matplotlib.axis_2">
    <g id="ytick_1">
     <g id="line2d_3">
      <path d="M 21.8975 81.54  L 206.0375 81.54  " clip-path="url(#p9c624c45c3)" style="fill: none; stroke: #ffffff; stroke-linecap: round" />
     </g>
     <g id="text_4">
      
      <g style="fill: #444443" transform="translate(4.44875 84.403125)scale(0.08 -0.08)">
       <use xlink:href="#ArialMT-30" />
      </g>
     </g>
    </g>
    <g id="ytick_2">
     <g id="line2d_4">
      <path d="M 21.8975 3.882857  L 206.0375 3.882857  " clip-path="url(#p9c624c45c3)" style="fill: none; stroke: #ffffff; stroke-linecap: round" />
     </g>
     <g id="text_5">
      
      <g style="fill: #444443" transform="translate(0 6.745982)scale(0.08 -0.08)">
       <defs>
        <path id="ArialMT-36" d="M 3184 3459  L 2625 3416  Q 2550 3747 2413 3897  Q 2184 4138 1850 4138  Q 1581 4138 1378 3988  Q 1113 3794 959 3422  Q 806 3050 800 2363  Q 1003 2672 1297 2822  Q 1591 2972 1913 2972  Q 2475 2972 2870 2558  Q 3266 2144 3266 1488  Q 3266 1056 3080 686  Q 2894 316 2569 119  Q 2244 -78 1831 -78  Q 1128 -78 684 439  Q 241 956 241 2144  Q 241 3472 731 4075  Q 1159 4600 1884 4600  Q 2425 4600 2770 4297  Q 3116 3994 3184 3459  z M 888 1484  Q 888 1194 1011 928  Q 1134 663 1356 523  Q 1578 384 1822 384  Q 2178 384 2434 671  Q 2691 959 2691 1453  Q 2691 1928 2437 2201  Q 2184 2475 1800 2475  Q 1419 2475 1153 2201  Q 888 1928 888 1484  z " transform="scale(0.015625)" />
        <path id="ArialMT-39" d="M 350 1059  L 891 1109  Q 959 728 1153 556  Q 1347 384 1650 384  Q 1909 384 2104 503  Q 2300 622 2425 820  Q 2550 1019 2634 1356  Q 2719 1694 2719 2044  Q 2719 2081 2716 2156  Q 2547 1888 2255 1720  Q 1963 1553 1622 1553  Q 1053 1553 659 1965  Q 266 2378 266 3053  Q 266 3750 677 4175  Q 1088 4600 1706 4600  Q 2153 4600 2523 4359  Q 2894 4119 3086 3673  Q 3278 3228 3278 2384  Q 3278 1506 3087 986  Q 2897 466 2520 194  Q 2144 -78 1638 -78  Q 1100 -78 759 220  Q 419 519 350 1059  z M 2653 3081  Q 2653 3566 2395 3850  Q 2138 4134 1775 4134  Q 1400 4134 1122 3828  Q 844 3522 844 3034  Q 844 2597 1108 2323  Q 1372 2050 1759 2050  Q 2150 2050 2401 2323  Q 2653 2597 2653 3081  z " transform="scale(0.015625)" />
       </defs>
       <use xlink:href="#ArialMT-36" />
       <use xlink:href="#ArialMT-39" x="55.615234" />
      </g>
     </g>
    </g>
   </g>
   <g id="patch_3">
    <path d="M 21.8975 81.54  L 31.127575 81.54  L 31.127575 6.133789  L 21.8975 6.133789  z " clip-path="url(#p9c624c45c3)" style="fill: #fefebb; stroke: #444443; stroke-width: 0.5; stroke-linejoin: miter" />
   </g>
   <g id="patch_4">
    <path d="M 31.127575 81.54  L 40.35765 81.54  L 40.35765 77.038137  L 31.127575 77.038137  z " clip-path="url(#p9c624c45c3)" style="fill: #fefebb; stroke: #444443; stroke-width: 0.5; stroke-linejoin: miter" />
   </g>
   <g id="patch_5">
    <path d="M 40.35765 81.54  L 49.587726 81.54  L 49.587726 78.163602  L 40.35765 78.163602  z " clip-path="url(#p9c624c45c3)" style="fill: #fefebb; stroke: #444443; stroke-width: 0.5; stroke-linejoin: miter" />
   </g>
   <g id="patch_6">
    <path d="M 49.587726 81.54  L 58.817801 81.54  L 58.817801 81.54  L 49.587726 81.54  z " clip-path="url(#p9c624c45c3)" style="fill: #fefebb; stroke: #444443; stroke-width: 0.5; stroke-linejoin: miter" />
   </g>
   <g id="patch_7">
    <path d="M 58.817801 81.54  L 68.047876 81.54  L 68.047876 81.54  L 58.817801 81.54  z " clip-path="url(#p9c624c45c3)" style="fill: #fefebb; stroke: #444443; stroke-width: 0.5; stroke-linejoin: miter" />
   </g>
   <g id="patch_8">
    <path d="M 68.047876 81.54  L 77.277951 81.54  L 77.277951 81.54  L 68.047876 81.54  z " clip-path="url(#p9c624c45c3)" style="fill: #fefebb; stroke: #444443; stroke-width: 0.5; stroke-linejoin: miter" />
   </g>
   <g id="patch_9">
    <path d="M 77.277951 81.54  L 86.508026 81.54  L 86.508026 81.54  L 77.277951 81.54  z " clip-path="url(#p9c624c45c3)" style="fill: #fefebb; stroke: #444443; stroke-width: 0.5; stroke-linejoin: miter" />
   </g>
   <g id="patch_10">
    <path d="M 86.508026 81.54  L 95.738102 81.54  L 95.738102 80.414534  L 86.508026 80.414534  z " clip-path="url(#p9c624c45c3)" style="fill: #fefebb; stroke: #444443; stroke-width: 0.5; stroke-linejoin: miter" />
   </g>
   <g id="patch_11">
    <path d="M 95.738102 81.54  L 104.968177 81.54  L 104.968177 81.54  L 95.738102 81.54  z " clip-path="url(#p9c624c45c3)" style="fill: #fefebb; stroke: #444443; stroke-width: 0.5; stroke-linejoin: miter" />
   </g>
   <g id="patch_12">
    <path d="M 104.968177 81.54  L 114.198252 81.54  L 114.198252 81.54  L 104.968177 81.54  z " clip-path="url(#p9c624c45c3)" style="fill: #fefebb; stroke: #444443; stroke-width: 0.5; stroke-linejoin: miter" />
   </g>
   <g id="patch_13">
    <path d="M 114.198252 81.54  L 123.428327 81.54  L 123.428327 81.54  L 114.198252 81.54  z " clip-path="url(#p9c624c45c3)" style="fill: #fefebb; stroke: #444443; stroke-width: 0.5; stroke-linejoin: miter" />
   </g>
   <g id="patch_14">
    <path d="M 123.428327 81.54  L 132.658402 81.54  L 132.658402 81.54  L 123.428327 81.54  z " clip-path="url(#p9c624c45c3)" style="fill: #fefebb; stroke: #444443; stroke-width: 0.5; stroke-linejoin: miter" />
   </g>
   <g id="patch_15">
    <path d="M 132.658402 81.54  L 141.888477 81.54  L 141.888477 81.54  L 132.658402 81.54  z " clip-path="url(#p9c624c45c3)" style="fill: #fefebb; stroke: #444443; stroke-width: 0.5; stroke-linejoin: miter" />
   </g>
   <g id="patch_16">
    <path d="M 141.888477 81.54  L 151.118553 81.54  L 151.118553 81.54  L 141.888477 81.54  z " clip-path="url(#p9c624c45c3)" style="fill: #fefebb; stroke: #444443; stroke-width: 0.5; stroke-linejoin: miter" />
   </g>
   <g id="patch_17">
    <path d="M 151.118553 81.54  L 160.348628 81.54  L 160.348628 81.54  L 151.118553 81.54  z " clip-path="url(#p9c624c45c3)" style="fill: #fefebb; stroke: #444443; stroke-width: 0.5; stroke-linejoin: miter" />
   </g>
   <g id="patch_18">
    <path d="M 160.348628 81.54  L 169.578703 81.54  L 169.578703 81.54  L 160.348628 81.54  z " clip-path="url(#p9c624c45c3)" style="fill: #fefebb; stroke: #444443; stroke-width: 0.5; stroke-linejoin: miter" />
   </g>
   <g id="patch_19">
    <path d="M 169.578703 81.54  L 178.808778 81.54  L 178.808778 81.54  L 169.578703 81.54  z " clip-path="url(#p9c624c45c3)" style="fill: #fefebb; stroke: #444443; stroke-width: 0.5; stroke-linejoin: miter" />
   </g>
   <g id="patch_20">
    <path d="M 178.808778 81.54  L 188.038853 81.54  L 188.038853 81.54  L 178.808778 81.54  z " clip-path="url(#p9c624c45c3)" style="fill: #fefebb; stroke: #444443; stroke-width: 0.5; stroke-linejoin: miter" />
   </g>
   <g id="patch_21">
    <path d="M 188.038853 81.54  L 197.268929 81.54  L 197.268929 81.54  L 188.038853 81.54  z " clip-path="url(#p9c624c45c3)" style="fill: #fefebb; stroke: #444443; stroke-width: 0.5; stroke-linejoin: miter" />
   </g>
   <g id="patch_22">
    <path d="M 21.8975 6.133789  L 31.127575 6.133789  L 31.127575 3.882857  L 21.8975 3.882857  z " clip-path="url(#p9c624c45c3)" style="fill: #a1dab4; stroke: #444443; stroke-width: 0.5; stroke-linejoin: miter" />
   </g>
   <g id="patch_23">
    <path d="M 31.127575 77.038137  L 40.35765 77.038137  L 40.35765 71.410807  L 31.127575 71.410807  z " clip-path="url(#p9c624c45c3)" style="fill: #a1dab4; stroke: #444443; stroke-width: 0.5; stroke-linejoin: miter" />
   </g>
   <g id="patch_24">
    <path d="M 40.35765 78.163602  L 49.587726 78.163602  L 49.587726 68.03441  L 40.35765 68.03441  z " clip-path="url(#p9c624c45c3)" style="fill: #a1dab4; stroke: #444443; stroke-width: 0.5; stroke-linejoin: miter" />
   </g>
   <g id="patch_25">
    <path d="M 49.587726 81.54  L 58.817801 81.54  L 58.817801 70.285342  L 49.587726 70.285342  z " clip-path="url(#p9c624c45c3)" style="fill: #a1dab4; stroke: #444443; stroke-width: 0.5; stroke-linejoin: miter" />
   </g>
   <g id="patch_26">
    <path d="M 58.817801 81.54  L 68.047876 81.54  L 68.047876 73.661739  L 58.817801 73.661739  z " clip-path="url(#p9c624c45c3)" style="fill: #a1dab4; stroke: #444443; stroke-width: 0.5; stroke-linejoin: miter" />
   </g>
   <g id="patch_27">
    <path d="M 68.047876 81.54  L 77.277951 81.54  L 77.277951 68.03441  L 68.047876 68.03441  z " clip-path="url(#p9c624c45c3)" style="fill: #a1dab4; stroke: #444443; stroke-width: 0.5; stroke-linejoin: miter" />
   </g>
   <g id="patch_28">
    <path d="M 77.277951 81.54  L 86.508026 81.54  L 86.508026 73.661739  L 77.277951 73.661739  z " clip-path="url(#p9c624c45c3)" style="fill: #a1dab4; stroke: #444443; stroke-width: 0.5; stroke-linejoin: miter" />
   </g>
   <g id="patch_29">
    <path d="M 86.508026 80.414534  L 95.738102 80.414534  L 95.738102 77.038137  L 86.508026 77.038137  z " clip-path="url(#p9c624c45c3)" style="fill: #a1dab4; stroke: #444443; stroke-width: 0.5; stroke-linejoin: miter" />
   </g>
   <g id="patch_30">
    <path d="M 95.738102 81.54  L 104.968177 81.54  L 104.968177 73.661739  L 95.738102 73.661739  z " clip-path="url(#p9c624c45c3)" style="fill: #a1dab4; stroke: #444443; stroke-width: 0.5; stroke-linejoin: miter" />
   </g>
   <g id="patch_31">
    <path d="M 104.968177 81.54  L 114.198252 81.54  L 114.198252 79.289068  L 104.968177 79.289068  z " clip-path="url(#p9c624c45c3)" style="fill: #a1dab4; stroke: #444443; stroke-width: 0.5; stroke-linejoin: miter" />
   </g>
   <g id="patch_32">
    <path d="M 114.198252 81.54  L 123.428327 81.54  L 123.428327 79.289068  L 114.198252 79.289068  z " clip-path="url(#p9c624c45c3)" style="fill: #a1dab4; stroke: #444443; stroke-width: 0.5; stroke-linejoin: miter" />
   </g>
   <g id="patch_33">
    <path d="M 123.428327 81.54  L 132.658402 81.54  L 132.658402 78.163602  L 123.428327 78.163602  z " clip-path="url(#p9c624c45c3)" style="fill: #a1dab4; stroke: #444443; stroke-width: 0.5; stroke-linejoin: miter" />
   </g>
   <g id="patch_34">
    <path d="M 132.658402 81.54  L 141.888477 81.54  L 141.888477 80.414534  L 132.658402 80.414534  z " clip-path="url(#p9c624c45c3)" style="fill: #a1dab4; stroke: #444443; stroke-width: 0.5; stroke-linejoin: miter" />
   </g>
   <g id="patch_35">
    <path d="M 141.888477 81.54  L 151.118553 81.54  L 151.118553 80.414534  L 141.888477 80.414534  z " clip-path="url(#p9c624c45c3)" style="fill: #a1dab4; stroke: #444443; stroke-width: 0.5; stroke-linejoin: miter" />
   </g>
   <g id="patch_36">
    <path d="M 151.118553 81.54  L 160.348628 81.54  L 160.348628 80.414534  L 151.118553 80.414534  z " clip-path="url(#p9c624c45c3)" style="fill: #a1dab4; stroke: #444443; stroke-width: 0.5; stroke-linejoin: miter" />
   </g>
   <g id="patch_37">
    <path d="M 160.348628 81.54  L 169.578703 81.54  L 169.578703 79.289068  L 160.348628 79.289068  z " clip-path="url(#p9c624c45c3)" style="fill: #a1dab4; stroke: #444443; stroke-width: 0.5; stroke-linejoin: miter" />
   </g>
   <g id="patch_38">
    <path d="M 169.578703 81.54  L 178.808778 81.54  L 178.808778 81.54  L 169.578703 81.54  z " clip-path="url(#p9c624c45c3)" style="fill: #a1dab4; stroke: #444443; stroke-width: 0.5; stroke-linejoin: miter" />
   </g>
   <g id="patch_39">
    <path d="M 178.808778 81.54  L 188.038853 81.54  L 188.038853 81.54  L 178.808778 81.54  z " clip-path="url(#p9c624c45c3)" style="fill: #a1dab4; stroke: #444443; stroke-width: 0.5; stroke-linejoin: miter" />
   </g>
   <g id="patch_40">
    <path d="M 188.038853 81.54  L 197.268929 81.54  L 197.268929 80.414534  L 188.038853 80.414534  z " clip-path="url(#p9c624c45c3)" style="fill: #a1dab4; stroke: #444443; stroke-width: 0.5; stroke-linejoin: miter" />
   </g>
   <g id="patch_41">
    <path d="M 39.7259 82.3554  L 36.41138 89.694  L 43.04042 89.694  z " style="fill: #444443; stroke: #ffffff; stroke-linejoin: miter" />
   </g>
   <g id="patch_42">
    <path d="M 21.8975 81.54  L 21.8975 0  " style="fill: none; stroke: #ffffff; stroke-width: 0.3; stroke-linejoin: miter; stroke-linecap: square" />
   </g>
   <g id="patch_43">
    <path d="M 21.8975 81.54  L 206.0375 81.54  " style="fill: none; stroke: #ffffff; stroke-width: 0.3; stroke-linejoin: miter; stroke-linecap: square" />
   </g>
   <g id="text_6">
    
    <g style="fill: #444443" transform="translate(33.107775 97.848)scale(0.08 -0.08)">
     <defs>
      <path id="Junicode-30" d="M 2772 2009  Q 2772 1131 2436 540  Q 2100 -50 1481 -50  Q 863 -50 541 540  Q 219 1131 219 2081  Q 219 3031 556 3598  Q 894 4166 1497 4166  Q 2119 4166 2445 3558  Q 2772 2950 2772 2009  z M 2216 1972  Q 2216 2700 2089 3331  Q 1963 3963 1503 3963  Q 1119 3963 941 3400  Q 763 2838 763 2153  Q 763 981 975 570  Q 1188 159 1484 159  Q 1831 159 2023 595  Q 2216 1031 2216 1972  z " transform="scale(0.015625)" />
      <path id="Junicode-2e" d="M 434 306  Q 434 466 546 562  Q 659 659 831 659  Q 1003 659 1097 543  Q 1191 428 1191 270  Q 1191 113 1083 17  Q 975 -78 809 -78  Q 644 -78 539 34  Q 434 147 434 306  z " transform="scale(0.015625)" />
      <path id="Junicode-31" d="M 716 -25  Q 672 -25 672 64  Q 672 153 716 153  Q 1113 153 1219 273  Q 1325 394 1325 813  L 1325 3531  Q 1325 3678 1259 3678  Q 1238 3678 1184 3653  L 781 3469  Q 747 3453 715 3523  Q 684 3594 722 3616  Q 1406 3947 1734 4275  Q 1753 4294 1784 4294  Q 1825 4294 1825 4250  Q 1806 3859 1806 3713  L 1806 819  Q 1806 353 1943 253  Q 2081 153 2363 153  Q 2406 153 2406 64  Q 2406 -25 2363 -25  Q 2113 0 1538 0  Q 963 0 716 -25  z " transform="scale(0.015625)" />
     </defs>
     <use xlink:href="#Junicode-30" />
     <use xlink:href="#Junicode-2e" x="46.679688" />
     <use xlink:href="#Junicode-30" x="72.070312" />
     <use xlink:href="#Junicode-31" x="118.75" />
    </g>
   </g>
  </g>
 </g>
 <defs>
  <clipPath id="p9c624c45c3">
   <rect x="21.8975" y="0" width="184.14" height="81.54" />
  </clipPath>
 </defs>
</svg></g>

<g id="edge7" class="edge">
<title>node0-&gt;node1</title>
<path fill="none" stroke="#444443" stroke-width="0.3" d="M191.74,-160.42C206.36,-162.88 221.62,-165.45 236.34,-167.92" />
<polygon fill="#444443" stroke="#444443" stroke-width="0.3" points="236.31,-169.34 240.48,-168.62 236.77,-166.57 236.31,-169.34" />
<text text-anchor="start" x="224" y="-171.3" font-family="Times,serif" font-size="14.00">&#8804;</text>
</g>

<g id="edge8" class="edge">
<title>node0-&gt;node4</title>
<path fill="none" stroke="#444443" stroke-width="0.3" d="M191.74,-133.35C206.47,-131.01 221.84,-128.57 236.67,-126.22" />
<polygon fill="#444443" stroke="#444443" stroke-width="0.3" points="237.1,-127.56 240.83,-125.55 236.66,-124.8 237.1,-127.56" />
<text text-anchor="start" x="223.5" y="-131.3" font-family="Times,serif" font-size="14.00">&gt;</text>
</g>



<g id="node8" class="node">
<title>legend</title>
<polygon fill="none" stroke="black" stroke-width="0" points="156,-249.5 60,-249.5 60,-201.5 156,-201.5 156,-249.5" />
<svg width="92px" height="44px" viewBox="0 0 123.16875 58.721875" version="1.1" preserveAspectRatio="xMinYMin meet" x="62" y="-247.5">
 <metadata>
  <rdf:RDF>
   <ns2:Work>
    <dc:type rdf:resource="http://purl.org/dc/dcmitype/StillImage" />
    <dc:date>2022-10-13T15:21:04.055836</dc:date>
    <dc:format>image/svg+xml</dc:format>
    <dc:creator>
     <ns2:Agent>
      <dc:title>Matplotlib v3.5.1, https://matplotlib.org/</dc:title>
     </ns2:Agent>
    </dc:creator>
   </ns2:Work>
  </rdf:RDF>
 </metadata>
 <defs>
  <style type="text/css">*{stroke-linejoin: round; stroke-linecap: butt}</style>
 </defs>
 <g id="figure_1">
  <g id="patch_1">
   <path d="M 0 58.721875  L 123.16875 58.721875  L 123.16875 0  L 0 0  z " style="fill: #ffffff" />
  </g>
  <g id="axes_1">
   <g id="legend_1">
    <g id="patch_2">
     <path d="M 2.2 58.721875  L 120.96875 58.721875  Q 123.16875 58.721875 123.16875 56.521875  L 123.16875 2.2  Q 123.16875 0 120.96875 0  L 2.2 0  Q -0 0 -0 2.2  L -0 56.521875  Q -0 58.721875 2.2 58.721875  z " style="fill: #eaeaf2; opacity: 0.8; stroke: #444443; stroke-width: 0.5; stroke-linejoin: miter" />
    </g>
    <g id="text_1">
     
     <g style="fill: #444443" transform="translate(8.8 15.957813)scale(0.1 -0.1)">
      <defs>
       <path id="Arial-BoldMT-48" d="M 469 0  L 469 4581  L 1394 4581  L 1394 2778  L 3206 2778  L 3206 4581  L 4131 4581  L 4131 0  L 3206 0  L 3206 2003  L 1394 2003  L 1394 0  L 469 0  z " transform="scale(0.015625)" />
       <path id="Arial-BoldMT-61" d="M 1116 2306  L 319 2450  Q 453 2931 781 3162  Q 1109 3394 1756 3394  Q 2344 3394 2631 3255  Q 2919 3116 3036 2902  Q 3153 2688 3153 2116  L 3144 1091  Q 3144 653 3186 445  Q 3228 238 3344 0  L 2475 0  Q 2441 88 2391 259  Q 2369 338 2359 363  Q 2134 144 1878 34  Q 1622 -75 1331 -75  Q 819 -75 523 203  Q 228 481 228 906  Q 228 1188 362 1408  Q 497 1628 739 1745  Q 981 1863 1438 1950  Q 2053 2066 2291 2166  L 2291 2253  Q 2291 2506 2166 2614  Q 2041 2722 1694 2722  Q 1459 2722 1328 2630  Q 1197 2538 1116 2306  z M 2291 1594  Q 2122 1538 1756 1459  Q 1391 1381 1278 1306  Q 1106 1184 1106 997  Q 1106 813 1243 678  Q 1381 544 1594 544  Q 1831 544 2047 700  Q 2206 819 2256 991  Q 2291 1103 2291 1419  L 2291 1594  z " transform="scale(0.015625)" />
       <path id="Arial-BoldMT-64" d="M 3503 0  L 2688 0  L 2688 488  Q 2484 203 2207 64  Q 1931 -75 1650 -75  Q 1078 -75 670 386  Q 263 847 263 1672  Q 263 2516 659 2955  Q 1056 3394 1663 3394  Q 2219 3394 2625 2931  L 2625 4581  L 3503 4581  L 3503 0  z M 1159 1731  Q 1159 1200 1306 963  Q 1519 619 1900 619  Q 2203 619 2415 876  Q 2628 1134 2628 1647  Q 2628 2219 2422 2470  Q 2216 2722 1894 2722  Q 1581 2722 1370 2473  Q 1159 2225 1159 1731  z " transform="scale(0.015625)" />
       <path id="Arial-BoldMT-65" d="M 2381 1056  L 3256 909  Q 3088 428 2723 176  Q 2359 -75 1813 -75  Q 947 -75 531 491  Q 203 944 203 1634  Q 203 2459 634 2926  Q 1066 3394 1725 3394  Q 2466 3394 2894 2905  Q 3322 2416 3303 1406  L 1103 1406  Q 1113 1016 1316 798  Q 1519 581 1822 581  Q 2028 581 2168 693  Q 2309 806 2381 1056  z M 2431 1944  Q 2422 2325 2234 2523  Q 2047 2722 1778 2722  Q 1491 2722 1303 2513  Q 1116 2303 1119 1944  L 2431 1944  z " transform="scale(0.015625)" />
       <path id="Arial-BoldMT-77" d="M 1078 0  L 28 3319  L 881 3319  L 1503 1144  L 2075 3319  L 2922 3319  L 3475 1144  L 4109 3319  L 4975 3319  L 3909 0  L 3066 0  L 2494 2134  L 1931 0  L 1078 0  z " transform="scale(0.015625)" />
       <path id="Arial-BoldMT-69" d="M 459 3769  L 459 4581  L 1338 4581  L 1338 3769  L 459 3769  z M 459 0  L 459 3319  L 1338 3319  L 1338 0  L 459 0  z " transform="scale(0.015625)" />
       <path id="Arial-BoldMT-6a" d="M 441 3769  L 441 4581  L 1319 4581  L 1319 3769  L 441 3769  z M 1319 3319  L 1319 103  Q 1319 -531 1236 -792  Q 1153 -1053 917 -1200  Q 681 -1347 316 -1347  Q 184 -1347 32 -1323  Q -119 -1300 -294 -1253  L -141 -503  Q -78 -516 -23 -523  Q 31 -531 78 -531  Q 213 -531 298 -473  Q 384 -416 412 -334  Q 441 -253 441 153  L 441 3319  L 1319 3319  z " transform="scale(0.015625)" />
       <path id="Arial-BoldMT-63" d="M 3353 2338  L 2488 2181  Q 2444 2441 2289 2572  Q 2134 2703 1888 2703  Q 1559 2703 1364 2476  Q 1169 2250 1169 1719  Q 1169 1128 1367 884  Q 1566 641 1900 641  Q 2150 641 2309 783  Q 2469 925 2534 1272  L 3397 1125  Q 3263 531 2881 228  Q 2500 -75 1859 -75  Q 1131 -75 698 384  Q 266 844 266 1656  Q 266 2478 700 2936  Q 1134 3394 1875 3394  Q 2481 3394 2839 3133  Q 3197 2872 3353 2338  z " transform="scale(0.015625)" />
       <path id="Arial-BoldMT-68" d="M 1334 4581  L 1334 2897  Q 1759 3394 2350 3394  Q 2653 3394 2897 3281  Q 3141 3169 3264 2994  Q 3388 2819 3433 2606  Q 3478 2394 3478 1947  L 3478 0  L 2600 0  L 2600 1753  Q 2600 2275 2550 2415  Q 2500 2556 2373 2639  Q 2247 2722 2056 2722  Q 1838 2722 1666 2615  Q 1494 2509 1414 2295  Q 1334 2081 1334 1663  L 1334 0  L 456 0  L 456 4581  L 1334 4581  z " transform="scale(0.015625)" />
       <path id="Arial-BoldMT-20" transform="scale(0.015625)" />
       <path id="Arial-BoldMT-4d" d="M 453 0  L 453 4581  L 1838 4581  L 2669 1456  L 3491 4581  L 4878 4581  L 4878 0  L 4019 0  L 4019 3606  L 3109 0  L 2219 0  L 1313 3606  L 1313 0  L 453 0  z " transform="scale(0.015625)" />
       <path id="Arial-BoldMT-6e" d="M 3478 0  L 2600 0  L 2600 1694  Q 2600 2231 2544 2389  Q 2488 2547 2361 2634  Q 2234 2722 2056 2722  Q 1828 2722 1647 2597  Q 1466 2472 1398 2265  Q 1331 2059 1331 1503  L 1331 0  L 453 0  L 453 3319  L 1269 3319  L 1269 2831  Q 1703 3394 2363 3394  Q 2653 3394 2893 3289  Q 3134 3184 3257 3021  Q 3381 2859 3429 2653  Q 3478 2447 3478 2063  L 3478 0  z " transform="scale(0.015625)" />
       <path id="Arial-BoldMT-75" d="M 2644 0  L 2644 497  Q 2463 231 2167 78  Q 1872 -75 1544 -75  Q 1209 -75 943 72  Q 678 219 559 484  Q 441 750 441 1219  L 441 3319  L 1319 3319  L 1319 1794  Q 1319 1094 1367 936  Q 1416 778 1544 686  Q 1672 594 1869 594  Q 2094 594 2272 717  Q 2450 841 2515 1023  Q 2581 1206 2581 1919  L 2581 3319  L 3459 3319  L 3459 0  L 2644 0  z " transform="scale(0.015625)" />
       <path id="Arial-BoldMT-73" d="M 150 947  L 1031 1081  Q 1088 825 1259 692  Q 1431 559 1741 559  Q 2081 559 2253 684  Q 2369 772 2369 919  Q 2369 1019 2306 1084  Q 2241 1147 2013 1200  Q 950 1434 666 1628  Q 272 1897 272 2375  Q 272 2806 612 3100  Q 953 3394 1669 3394  Q 2350 3394 2681 3172  Q 3013 2950 3138 2516  L 2309 2363  Q 2256 2556 2107 2659  Q 1959 2763 1684 2763  Q 1338 2763 1188 2666  Q 1088 2597 1088 2488  Q 1088 2394 1175 2328  Q 1294 2241 1995 2081  Q 2697 1922 2975 1691  Q 3250 1456 3250 1038  Q 3250 581 2869 253  Q 2488 -75 1741 -75  Q 1063 -75 667 200  Q 272 475 150 947  z " transform="scale(0.015625)" />
       <path id="Arial-BoldMT-72" d="M 1300 0  L 422 0  L 422 3319  L 1238 3319  L 1238 2847  Q 1447 3181 1614 3287  Q 1781 3394 1994 3394  Q 2294 3394 2572 3228  L 2300 2463  Q 2078 2606 1888 2606  Q 1703 2606 1575 2504  Q 1447 2403 1373 2137  Q 1300 1872 1300 1025  L 1300 0  z " transform="scale(0.015625)" />
       <path id="Arial-BoldMT-70" d="M 434 3319  L 1253 3319  L 1253 2831  Q 1413 3081 1684 3237  Q 1956 3394 2288 3394  Q 2866 3394 3269 2941  Q 3672 2488 3672 1678  Q 3672 847 3265 386  Q 2859 -75 2281 -75  Q 2006 -75 1782 34  Q 1559 144 1313 409  L 1313 -1263  L 434 -1263  L 434 3319  z M 1303 1716  Q 1303 1156 1525 889  Q 1747 622 2066 622  Q 2372 622 2575 867  Q 2778 1113 2778 1672  Q 2778 2194 2568 2447  Q 2359 2700 2050 2700  Q 1728 2700 1515 2451  Q 1303 2203 1303 1716  z " transform="scale(0.015625)" />
       <path id="Arial-BoldMT-74" d="M 1981 3319  L 1981 2619  L 1381 2619  L 1381 1281  Q 1381 875 1398 808  Q 1416 741 1477 697  Q 1538 653 1625 653  Q 1747 653 1978 738  L 2053 56  Q 1747 -75 1359 -75  Q 1122 -75 931 4  Q 741 84 652 211  Q 563 338 528 553  Q 500 706 500 1172  L 500 2619  L 97 2619  L 97 3319  L 500 3319  L 500 3978  L 1381 4491  L 1381 3319  L 1981 3319  z " transform="scale(0.015625)" />
      </defs>
      <use xlink:href="#Arial-BoldMT-48" />
      <use xlink:href="#Arial-BoldMT-61" x="72.216797" />
      <use xlink:href="#Arial-BoldMT-64" x="127.832031" />
      <use xlink:href="#Arial-BoldMT-65" x="188.916016" />
      <use xlink:href="#Arial-BoldMT-77" x="244.53125" />
      <use xlink:href="#Arial-BoldMT-69" x="322.314453" />
      <use xlink:href="#Arial-BoldMT-6a" x="350.097656" />
      <use xlink:href="#Arial-BoldMT-63" x="377.880859" />
      <use xlink:href="#Arial-BoldMT-68" x="433.496094" />
      <use xlink:href="#Arial-BoldMT-20" x="494.580078" />
      <use xlink:href="#Arial-BoldMT-4d" x="522.363281" />
      <use xlink:href="#Arial-BoldMT-61" x="605.664062" />
      <use xlink:href="#Arial-BoldMT-6e" x="661.279297" />
      <use xlink:href="#Arial-BoldMT-75" x="722.363281" />
      <use xlink:href="#Arial-BoldMT-73" x="783.447266" />
      <use xlink:href="#Arial-BoldMT-63" x="839.0625" />
      <use xlink:href="#Arial-BoldMT-72" x="894.677734" />
      <use xlink:href="#Arial-BoldMT-69" x="933.59375" />
      <use xlink:href="#Arial-BoldMT-70" x="961.376953" />
      <use xlink:href="#Arial-BoldMT-74" x="1022.460938" />
     </g>
    </g>
    <g id="patch_3">
     <path d="M 45.246094 31.2625  L 67.246094 31.2625  L 67.246094 23.5625  L 45.246094 23.5625  z " style="fill: #fefebb; stroke: #444443; stroke-width: 0.4; stroke-linejoin: miter" />
    </g>
    <g id="text_2">
     
     <g style="fill: #444443" transform="translate(71.096094 31.2625)scale(0.1 -0.1)">
      <defs>
       <path id="Junicode-41" d="M 31 -22  Q -13 -22 -13 97  Q -13 216 31 216  Q 334 216 434 303  Q 534 391 641 628  L 1819 3713  Q 1838 3766 1838 3806  Q 1838 3847 1797 3889  Q 1756 3931 1756 3950  Q 1756 3969 1879 4036  Q 2003 4103 2168 4218  Q 2334 4334 2372 4334  Q 2444 4334 2481 4197  Q 2563 3894 2634 3678  L 3675 581  Q 3797 216 4275 216  Q 4316 216 4316 97  Q 4316 -22 4275 -22  Q 4047 0 3553 0  Q 3059 0 2834 -22  Q 2791 -22 2791 97  Q 2791 216 2834 216  Q 3144 216 3144 428  Q 3144 500 3119 581  L 2803 1559  Q 2775 1659 2666 1659  L 1394 1659  Q 1306 1659 1269 1550  L 916 569  Q 888 500 888 444  Q 888 216 1359 216  Q 1403 216 1403 97  Q 1403 -22 1359 -22  Q 1094 0 694 0  Q 294 0 31 -22  z M 2600 1875  Q 2678 1875 2678 1925  Q 2678 1941 2672 1959  L 2141 3622  Q 2122 3684 2084 3684  Q 2047 3684 2025 3622  L 1409 1959  Q 1403 1944 1403 1925  Q 1403 1875 1478 1875  L 2600 1875  z " transform="scale(0.015625)" />
      </defs>
      <use xlink:href="#Junicode-41" />
     </g>
    </g>
    <g id="patch_4">
     <path d="M 45.246094 47.192188  L 67.246094 47.192188  L 67.246094 39.492188  L 45.246094 39.492188  z " style="fill: #a1dab4; stroke: #444443; stroke-width: 0.4; stroke-linejoin: miter" />
    </g>
    <g id="text_3">
     
     <g style="fill: #444443" transform="translate(71.096094 47.192188)scale(0.1 -0.1)">
      <defs>
       <path id="Junicode-42" d="M 847 581  L 847 3663  Q 847 4006 256 4006  Q 213 4006 213 4125  Q 213 4244 256 4244  Q 613 4225 1006 4225  Q 1400 4225 1572 4234  Q 1744 4244 1966 4244  Q 2506 4244 2872 3991  Q 3238 3738 3238 3234  Q 3238 2613 2625 2328  Q 2578 2306 2578 2288  Q 2578 2266 2625 2250  Q 2963 2141 3245 1852  Q 3528 1563 3528 1084  Q 3528 641 3201 309  Q 2875 -22 1966 -22  Q 1766 -22 1528 -11  Q 1291 0 916 0  Q 541 0 284 -22  Q 244 -22 244 97  Q 244 216 284 216  Q 847 216 847 581  z M 1347 2466  Q 1347 2353 1594 2353  Q 2700 2353 2700 3225  Q 2700 4053 1509 4053  Q 1347 4053 1347 3844  L 1347 2466  z M 1347 866  Q 1347 178 1922 178  Q 2963 178 2963 1163  Q 2963 1822 2269 2066  Q 1997 2156 1456 2159  Q 1347 2159 1347 2066  L 1347 866  z " transform="scale(0.015625)" />
      </defs>
      <use xlink:href="#Junicode-42" />
     </g>
    </g>
   </g>
  </g>
 </g>
</svg></g>
</g>
</svg>