<svg xmlns="http://www.w3.org/2000/svg" xmlns:dc="http://purl.org/dc/elements/1.1/" xmlns:ns2="http://creativecommons.org/ns#" xmlns:rdf="http://www.w3.org/1999/02/22-rdf-syntax-ns#" xmlns:xlink="http://www.w3.org/1999/xlink" width="658.0" height="303.0" viewBox="0.0 0.0 658.0 303.0">
<g id="graph0" class="graph" transform="scale(1.0 1.0) rotate(0) translate(4 299)">
<title>G</title>
<polygon fill="white" stroke="transparent" points="-4,4 -4,-299 654,-299 654,4 -4,4" />
<text text-anchor="middle" x="325" y="-279.8" font-family="Junicode" font-size="14.00" fill="#444443">8th decision tree for scribal features</text>
<g id="clust4" class="cluster">
<title>cluster_legend</title>
</g>
<g id="clust5" class="cluster">
<title>cluster_instance</title>
</g>

<g id="node1" class="node">
<title>node1</title>
<text text-anchor="start" x="235.5" y="-153.4" font-family="Helvetica,sans-Serif" font-size="12.00" fill="#444443">te @0.15</text>
</g>

<g id="node2" class="node">
<title>node4</title>
<polygon fill="none" stroke="#d67c03" stroke-width="0.5" stroke-dasharray="5,2" points="286,-127 234,-127 234,-114 286,-114 286,-127" />
<text text-anchor="start" x="234" y="-117.4" font-family="Helvetica,sans-Serif" font-size="12.00" fill="#444443">a&#275; @0.00</text>
</g>


<g id="node4" class="node">
<title>leaf2</title>
<polygon fill="none" stroke="#444443" stroke-width="0" points="370,-272 303,-272 303,-189 370,-189 370,-272" />
<svg width="59px" height="75px" viewBox="0 0 78.52 100.932331" version="1.1" preserveAspectRatio="xMinYMin meet" x="307.5" y="-267.5">
 <metadata>
  <rdf:RDF>
   <ns2:Work>
    <dc:type rdf:resource="http://purl.org/dc/dcmitype/StillImage" />
    <dc:date>2022-10-13T15:08:01.896130</dc:date>
    <dc:format>image/svg+xml</dc:format>
    <dc:creator>
     <ns2:Agent>
      <dc:title>Matplotlib v3.5.1, https://matplotlib.org/</dc:title>
     </ns2:Agent>
    </dc:creator>
   </ns2:Work>
  </rdf:RDF>
 </metadata>
 <defs>
  <style type="text/css">*{stroke-linejoin: round; stroke-linecap: butt}</style>
 </defs>
 <g id="figure_1">
  <g id="patch_1">
   <path d="M -0 100.932331  L 78.52 100.932331  L 78.52 0  L -0 0  z " style="fill: #ffffff" />
  </g>
  <g id="axes_1">
   <g id="patch_2">
    <path d="M 78.52 39.26  C 78.52 34.104424 77.504464 28.99898 75.53151 24.235848  C 73.558557 19.472717 70.666555 15.14453 67.021012 11.498988  C 63.37547 7.853445 59.047283 4.961443 54.284152 2.98849  C 49.52102 1.015536 44.415576 -0 39.26 -0  C 34.104424 -0 28.99898 1.015536 24.235848 2.98849  C 19.472717 4.961443 15.14453 7.853445 11.498988 11.498988  C 7.853445 15.14453 4.961443 19.472717 2.98849 24.235848  C 1.015536 28.99898 0 34.104424 0 39.26  C 0 44.415576 1.015536 49.52102 2.98849 54.284152  C 4.961443 59.047283 7.853445 63.37547 11.498988 67.021012  C 15.14453 70.666555 19.472717 73.558557 24.235848 75.53151  C 28.99898 77.504464 34.104424 78.52 39.26 78.52  C 44.415576 78.52 49.52102 77.504464 54.284152 75.53151  C 59.047283 73.558557 63.37547 70.666555 67.021012 67.021012  C 70.666555 63.37547 73.558557 59.047283 75.53151 54.284152  C 77.504464 49.52102 78.52 44.415576 78.52 39.26  M 39.26 39.26  M 78.52 39.26  z " style="fill: #fefebb; stroke: #444443; stroke-width: 0.5; stroke-linejoin: miter" />
   </g>
   <g id="text_1">
    
    <g style="fill: #444443" transform="translate(30.458984 88.187206)scale(0.09 -0.09)">
     <defs>
      <path id="Junicode-6e" d="M 2800 397  Q 2800 153 3159 153  Q 3203 153 3203 64  Q 3203 -25 3159 -25  Q 2919 0 2575 0  Q 2231 0 1978 -25  Q 1934 -25 1934 64  Q 1934 153 1978 153  Q 2322 153 2322 397  L 2322 1656  Q 2322 1919 2276 2101  Q 2231 2284 2134 2361  Q 2038 2438 1794 2438  Q 1663 2438 1556 2384  Q 1450 2331 1348 2257  Q 1247 2184 1176 2076  Q 1106 1969 1106 1844  L 1106 397  Q 1106 153 1441 153  Q 1484 153 1484 64  Q 1484 -25 1441 -25  Q 1200 0 856 0  Q 513 0 269 -25  Q 225 -25 225 64  Q 225 153 269 153  Q 628 153 628 397  L 628 1794  Q 628 2194 366 2194  Q 313 2194 313 2281  Q 313 2369 366 2369  Q 484 2369 639 2462  Q 794 2556 909 2657  Q 1025 2759 1072 2759  Q 1116 2759 1116 2711  Q 1116 2663 1109 2580  Q 1103 2497 1103 2433  Q 1103 2369 1150 2369  Q 1175 2369 1197 2388  Q 1531 2719 2006 2719  Q 2469 2719 2697 2259  Q 2800 2053 2800 1484  L 2800 397  z " transform="scale(0.015625)" />
      <path id="Junicode-3d" d="M 2834 1863  L 372 1863  L 372 2175  L 2834 2175  L 2834 1863  z M 2834 1031  L 372 1031  L 372 1344  L 2834 1344  L 2834 1031  z " transform="scale(0.015625)" />
      <path id="Junicode-36" d="M 1478 -50  Q 916 -50 614 383  Q 313 816 313 1453  Q 313 2347 930 3148  Q 1547 3950 2350 4306  Q 2400 4325 2441 4250  Q 2478 4178 2431 4153  Q 1516 3634 1134 2819  Q 953 2434 878 1966  Q 1353 2394 1716 2394  Q 2159 2394 2429 2037  Q 2700 1681 2700 1222  Q 2700 697 2361 323  Q 2022 -50 1478 -50  z M 1556 197  Q 1878 197 2047 461  Q 2216 725 2216 1031  Q 2216 1488 1998 1764  Q 1781 2041 1466 2041  Q 1113 2041 844 1697  Q 825 1563 825 1441  Q 825 606 1178 322  Q 1334 197 1556 197  z " transform="scale(0.015625)" />
      <path id="Junicode-30" d="M 2772 2009  Q 2772 1131 2436 540  Q 2100 -50 1481 -50  Q 863 -50 541 540  Q 219 1131 219 2081  Q 219 3031 556 3598  Q 894 4166 1497 4166  Q 2119 4166 2445 3558  Q 2772 2950 2772 2009  z M 2216 1972  Q 2216 2700 2089 3331  Q 1963 3963 1503 3963  Q 1119 3963 941 3400  Q 763 2838 763 2153  Q 763 981 975 570  Q 1188 159 1484 159  Q 1831 159 2023 595  Q 2216 1031 2216 1972  z " transform="scale(0.015625)" />
     </defs>
     <use xlink:href="#Junicode-6e" />
     <use xlink:href="#Junicode-3d" x="52.197266" />
     <use xlink:href="#Junicode-36" x="102.197266" />
     <use xlink:href="#Junicode-30" x="148.876953" />
    </g>
    
    <g style="fill: #444443" transform="translate(36.188047 98.475613)scale(0.09 -0.09)">
     <defs>
      <path id="Junicode-41" d="M 31 -22  Q -13 -22 -13 97  Q -13 216 31 216  Q 334 216 434 303  Q 534 391 641 628  L 1819 3713  Q 1838 3766 1838 3806  Q 1838 3847 1797 3889  Q 1756 3931 1756 3950  Q 1756 3969 1879 4036  Q 2003 4103 2168 4218  Q 2334 4334 2372 4334  Q 2444 4334 2481 4197  Q 2563 3894 2634 3678  L 3675 581  Q 3797 216 4275 216  Q 4316 216 4316 97  Q 4316 -22 4275 -22  Q 4047 0 3553 0  Q 3059 0 2834 -22  Q 2791 -22 2791 97  Q 2791 216 2834 216  Q 3144 216 3144 428  Q 3144 500 3119 581  L 2803 1559  Q 2775 1659 2666 1659  L 1394 1659  Q 1306 1659 1269 1550  L 916 569  Q 888 500 888 444  Q 888 216 1359 216  Q 1403 216 1403 97  Q 1403 -22 1359 -22  Q 1094 0 694 0  Q 294 0 31 -22  z M 2600 1875  Q 2678 1875 2678 1925  Q 2678 1941 2672 1959  L 2141 3622  Q 2122 3684 2084 3684  Q 2047 3684 2025 3622  L 1409 1959  Q 1403 1944 1403 1925  Q 1403 1875 1478 1875  L 2600 1875  z " transform="scale(0.015625)" />
     </defs>
     <use xlink:href="#Junicode-41" />
    </g>
   </g>
  </g>
 </g>
</svg></g>

<g id="edge1" class="edge">
<title>node1-&gt;leaf2</title>
<path fill="none" stroke="#444443" stroke-width="0.3" d="M267.61,-163.07C274.97,-170.37 287.43,-182.75 299.69,-194.93" />
<polygon fill="#444443" stroke="#444443" stroke-width="0.3" points="298.97,-196.19 302.8,-198.02 300.94,-194.2 298.97,-196.19" />
</g>

<g id="node5" class="node">
<title>leaf3</title>
<polygon fill="none" stroke="#444443" stroke-width="0" points="346.5,-177 326.5,-177 326.5,-142 346.5,-142 346.5,-177" />
<svg width="12px" height="27px" viewBox="0 0 16.308 36.231851" version="1.1" preserveAspectRatio="xMinYMin meet" x="330.5" y="-172.5">
 <metadata>
  <rdf:RDF>
   <ns2:Work>
    <dc:type rdf:resource="http://purl.org/dc/dcmitype/StillImage" />
    <dc:date>2022-10-13T15:08:01.910745</dc:date>
    <dc:format>image/svg+xml</dc:format>
    <dc:creator>
     <ns2:Agent>
      <dc:title>Matplotlib v3.5.1, https://matplotlib.org/</dc:title>
     </ns2:Agent>
    </dc:creator>
   </ns2:Work>
  </rdf:RDF>
 </metadata>
 <defs>
  <style type="text/css">*{stroke-linejoin: round; stroke-linecap: butt}</style>
 </defs>
 <g id="figure_1">
  <g id="patch_1">
   <path d="M 0 36.231851  L 16.308 36.231851  L 16.308 0  L 0 0  z " style="fill: #ffffff" />
  </g>
  <g id="axes_1">
   <g id="patch_2">
    <path d="M 16.308 8.154  C 16.308 7.298363 16.173321 6.448034 15.908915 5.634275  C 15.644509 4.820516 15.253655 4.053424 14.750725 3.361199  C 14.247794 2.668974 13.639026 2.060206 12.946801 1.557275  C 12.254576 1.054345 11.487483 0.663491 10.673724 0.399085  C 9.859965 0.134679 9.009637 -0 8.154 0  C 7.298363 0 6.448034 0.134679 5.634275 0.399085  C 4.820516 0.663492 4.053424 1.054345 3.361199 1.557276  C 2.668974 2.060206 2.060206 2.668975 1.557275 3.361199  C 1.054345 4.053424 0.663491 4.820517 0.399085 5.634276  C 0.134679 6.448035 -0 7.298364 0 8.154  C 0 9.009637 0.134679 9.859966 0.399085 10.673725  C 0.663492 11.487484 1.054345 12.254577 1.557276 12.946801  C 2.060206 13.639026 2.668975 14.247794 3.361199 14.750725  C 4.053424 15.253656 4.820517 15.644509 5.634276 15.908915  C 6.448035 16.173321 7.298364 16.308 8.154001 16.308  C 9.009637 16.308 9.859966 16.173321 10.673725 15.908915  L 8.154 8.154  L 16.308 8.154  z " style="fill: #fefebb; stroke: #444443; stroke-width: 0.5; stroke-linejoin: miter" />
   </g>
   <g id="patch_3">
    <path d="M 10.673725 15.908915  C 12.311148 15.376884 13.738742 14.339675 14.750725 12.9468  C 15.762708 11.553925 16.308 9.875687 16.308 8.153999  L 8.154 8.154  L 10.673725 15.908915  z " style="fill: #a1dab4; stroke: #444443; stroke-width: 0.5; stroke-linejoin: miter" />
   </g>
   <g id="text_1">
    
    <g style="fill: #444443" transform="translate(1.453922 23.486726)scale(0.09 -0.09)">
     <defs>
      <path id="Junicode-6e" d="M 2800 397  Q 2800 153 3159 153  Q 3203 153 3203 64  Q 3203 -25 3159 -25  Q 2919 0 2575 0  Q 2231 0 1978 -25  Q 1934 -25 1934 64  Q 1934 153 1978 153  Q 2322 153 2322 397  L 2322 1656  Q 2322 1919 2276 2101  Q 2231 2284 2134 2361  Q 2038 2438 1794 2438  Q 1663 2438 1556 2384  Q 1450 2331 1348 2257  Q 1247 2184 1176 2076  Q 1106 1969 1106 1844  L 1106 397  Q 1106 153 1441 153  Q 1484 153 1484 64  Q 1484 -25 1441 -25  Q 1200 0 856 0  Q 513 0 269 -25  Q 225 -25 225 64  Q 225 153 269 153  Q 628 153 628 397  L 628 1794  Q 628 2194 366 2194  Q 313 2194 313 2281  Q 313 2369 366 2369  Q 484 2369 639 2462  Q 794 2556 909 2657  Q 1025 2759 1072 2759  Q 1116 2759 1116 2711  Q 1116 2663 1109 2580  Q 1103 2497 1103 2433  Q 1103 2369 1150 2369  Q 1175 2369 1197 2388  Q 1531 2719 2006 2719  Q 2469 2719 2697 2259  Q 2800 2053 2800 1484  L 2800 397  z " transform="scale(0.015625)" />
      <path id="Junicode-3d" d="M 2834 1863  L 372 1863  L 372 2175  L 2834 2175  L 2834 1863  z M 2834 1031  L 372 1031  L 372 1344  L 2834 1344  L 2834 1031  z " transform="scale(0.015625)" />
      <path id="Junicode-36" d="M 1478 -50  Q 916 -50 614 383  Q 313 816 313 1453  Q 313 2347 930 3148  Q 1547 3950 2350 4306  Q 2400 4325 2441 4250  Q 2478 4178 2431 4153  Q 1516 3634 1134 2819  Q 953 2434 878 1966  Q 1353 2394 1716 2394  Q 2159 2394 2429 2037  Q 2700 1681 2700 1222  Q 2700 697 2361 323  Q 2022 -50 1478 -50  z M 1556 197  Q 1878 197 2047 461  Q 2216 725 2216 1031  Q 2216 1488 1998 1764  Q 1781 2041 1466 2041  Q 1113 2041 844 1697  Q 825 1563 825 1441  Q 825 606 1178 322  Q 1334 197 1556 197  z " transform="scale(0.015625)" />
     </defs>
     <use xlink:href="#Junicode-6e" />
     <use xlink:href="#Junicode-3d" x="52.197266" />
     <use xlink:href="#Junicode-36" x="102.197266" />
    </g>
    
    <g style="fill: #444443" transform="translate(5.082047 33.775133)scale(0.09 -0.09)">
     <defs>
      <path id="Junicode-41" d="M 31 -22  Q -13 -22 -13 97  Q -13 216 31 216  Q 334 216 434 303  Q 534 391 641 628  L 1819 3713  Q 1838 3766 1838 3806  Q 1838 3847 1797 3889  Q 1756 3931 1756 3950  Q 1756 3969 1879 4036  Q 2003 4103 2168 4218  Q 2334 4334 2372 4334  Q 2444 4334 2481 4197  Q 2563 3894 2634 3678  L 3675 581  Q 3797 216 4275 216  Q 4316 216 4316 97  Q 4316 -22 4275 -22  Q 4047 0 3553 0  Q 3059 0 2834 -22  Q 2791 -22 2791 97  Q 2791 216 2834 216  Q 3144 216 3144 428  Q 3144 500 3119 581  L 2803 1559  Q 2775 1659 2666 1659  L 1394 1659  Q 1306 1659 1269 1550  L 916 569  Q 888 500 888 444  Q 888 216 1359 216  Q 1403 216 1403 97  Q 1403 -22 1359 -22  Q 1094 0 694 0  Q 294 0 31 -22  z M 2600 1875  Q 2678 1875 2678 1925  Q 2678 1941 2672 1959  L 2141 3622  Q 2122 3684 2084 3684  Q 2047 3684 2025 3622  L 1409 1959  Q 1403 1944 1403 1925  Q 1403 1875 1478 1875  L 2600 1875  z " transform="scale(0.015625)" />
     </defs>
     <use xlink:href="#Junicode-41" />
    </g>
   </g>
  </g>
 </g>
</svg></g>

<g id="edge2" class="edge">
<title>node1-&gt;leaf3</title>
<path fill="none" stroke="#444443" stroke-width="0.3" d="M284.57,-157.45C296.96,-157.95 311.68,-158.54 322.11,-158.96" />
<polygon fill="#444443" stroke="#444443" stroke-width="0.3" points="322.24,-160.37 326.29,-159.13 322.35,-157.57 322.24,-160.37" />
</g>

<g id="node6" class="node">
<title>leaf5</title>
<polygon fill="none" stroke="#444443" stroke-width="0" points="349.5,-136 323.5,-136 323.5,-95 349.5,-95 349.5,-136" />
<svg width="18px" height="33px" viewBox="0 0 24.764 45.026091" version="1.1" preserveAspectRatio="xMinYMin meet" x="327.5" y="-131.5">
 <metadata>
  <rdf:RDF>
   <ns2:Work>
    <dc:type rdf:resource="http://purl.org/dc/dcmitype/StillImage" />
    <dc:date>2022-10-13T15:08:01.944268</dc:date>
    <dc:format>image/svg+xml</dc:format>
    <dc:creator>
     <ns2:Agent>
      <dc:title>Matplotlib v3.5.1, https://matplotlib.org/</dc:title>
     </ns2:Agent>
    </dc:creator>
   </ns2:Work>
  </rdf:RDF>
 </metadata>
 <defs>
  <style type="text/css">*{stroke-linejoin: round; stroke-linecap: butt}</style>
 </defs>
 <g id="figure_1">
  <g id="patch_1">
   <path d="M 0 45.026091  L 24.764 45.026091  L 24.764 0  L 0 0  z " style="fill: #ffffff" />
  </g>
  <g id="axes_1">
   <g id="patch_2">
    <path d="M 24.764 12.382  C 24.764 11.0827 24.559488 9.79146 24.157982 8.555752  C 23.756476 7.320043 23.162958 6.155199 22.399248 5.104043  C 21.635539 4.052887 20.711113 3.128461 19.659957 2.364751  C 18.608801 1.601042 17.443956 1.007524 16.208248 0.606018  C 14.97254 0.204512 13.6813 -0 12.382 0  C 11.082699 0 9.791459 0.204512 8.555751 0.606018  C 7.320043 1.007524 6.155199 1.601042 5.104043 2.364752  C 4.052887 3.128461 3.128461 4.052887 2.364751 5.104043  C 1.601042 6.155199 1.007524 7.320044 0.606018 8.555752  C 0.204512 9.79146 -0 11.0827 0 12.382001  C 0 13.681301 0.204512 14.972541 0.606018 16.208249  C 1.007524 17.443957 1.601042 18.608802 2.364752 19.659958  C 3.128462 20.711114 4.052888 21.635539 5.104044 22.399249  C 6.1552 23.162958 7.320044 23.756476 8.555752 24.157982  C 9.79146 24.559488 11.082701 24.764 12.382001 24.764  C 13.681301 24.764 14.972541 24.559487 16.208249 24.157981  L 12.382 12.382  L 24.764 12.382  z " style="fill: #fefebb; stroke: #444443; stroke-width: 0.5; stroke-linejoin: miter" />
   </g>
   <g id="patch_3">
    <path d="M 16.208249 24.157981  C 18.694706 23.350083 20.862534 21.775063 22.399249 19.659956  C 23.935964 17.54485 24.764 14.996414 24.764 12.381999  L 12.382 12.382  L 16.208249 24.157981  z " style="fill: #a1dab4; stroke: #444443; stroke-width: 0.5; stroke-linejoin: miter" />
   </g>
   <g id="text_1">
    
    <g style="fill: #444443" transform="translate(3.580984 32.280966)scale(0.09 -0.09)">
     <defs>
      <path id="Junicode-6e" d="M 2800 397  Q 2800 153 3159 153  Q 3203 153 3203 64  Q 3203 -25 3159 -25  Q 2919 0 2575 0  Q 2231 0 1978 -25  Q 1934 -25 1934 64  Q 1934 153 1978 153  Q 2322 153 2322 397  L 2322 1656  Q 2322 1919 2276 2101  Q 2231 2284 2134 2361  Q 2038 2438 1794 2438  Q 1663 2438 1556 2384  Q 1450 2331 1348 2257  Q 1247 2184 1176 2076  Q 1106 1969 1106 1844  L 1106 397  Q 1106 153 1441 153  Q 1484 153 1484 64  Q 1484 -25 1441 -25  Q 1200 0 856 0  Q 513 0 269 -25  Q 225 -25 225 64  Q 225 153 269 153  Q 628 153 628 397  L 628 1794  Q 628 2194 366 2194  Q 313 2194 313 2281  Q 313 2369 366 2369  Q 484 2369 639 2462  Q 794 2556 909 2657  Q 1025 2759 1072 2759  Q 1116 2759 1116 2711  Q 1116 2663 1109 2580  Q 1103 2497 1103 2433  Q 1103 2369 1150 2369  Q 1175 2369 1197 2388  Q 1531 2719 2006 2719  Q 2469 2719 2697 2259  Q 2800 2053 2800 1484  L 2800 397  z " transform="scale(0.015625)" />
      <path id="Junicode-3d" d="M 2834 1863  L 372 1863  L 372 2175  L 2834 2175  L 2834 1863  z M 2834 1031  L 372 1031  L 372 1344  L 2834 1344  L 2834 1031  z " transform="scale(0.015625)" />
      <path id="Junicode-31" d="M 716 -25  Q 672 -25 672 64  Q 672 153 716 153  Q 1113 153 1219 273  Q 1325 394 1325 813  L 1325 3531  Q 1325 3678 1259 3678  Q 1238 3678 1184 3653  L 781 3469  Q 747 3453 715 3523  Q 684 3594 722 3616  Q 1406 3947 1734 4275  Q 1753 4294 1784 4294  Q 1825 4294 1825 4250  Q 1806 3859 1806 3713  L 1806 819  Q 1806 353 1943 253  Q 2081 153 2363 153  Q 2406 153 2406 64  Q 2406 -25 2363 -25  Q 2113 0 1538 0  Q 963 0 716 -25  z " transform="scale(0.015625)" />
      <path id="Junicode-33" d="M 2559 1294  Q 2559 716 2146 322  Q 1734 -72 1159 -72  Q 719 -72 509 72  Q 300 216 300 397  Q 300 491 376 559  Q 453 628 550 628  Q 663 628 873 397  Q 1084 166 1325 166  Q 1663 166 1869 531  Q 2028 825 2028 1209  Q 2028 1616 1795 1886  Q 1563 2156 1147 2156  Q 944 2156 794 2106  Q 750 2106 750 2234  Q 750 2356 794 2356  Q 1331 2356 1603 2598  Q 1875 2841 1875 3206  Q 1875 3522 1689 3678  Q 1503 3834 1288 3834  Q 919 3834 641 3406  Q 619 3372 538 3438  Q 459 3503 481 3531  Q 909 4166 1497 4166  Q 1856 4166 2103 3902  Q 2350 3638 2350 3291  Q 2350 2769 1778 2444  Q 1678 2388 1678 2366  Q 1678 2331 1766 2316  Q 2559 2156 2559 1294  z " transform="scale(0.015625)" />
     </defs>
     <use xlink:href="#Junicode-6e" />
     <use xlink:href="#Junicode-3d" x="52.197266" />
     <use xlink:href="#Junicode-31" x="102.197266" />
     <use xlink:href="#Junicode-33" x="148.876953" />
    </g>
    
    <g style="fill: #444443" transform="translate(9.310047 42.569373)scale(0.09 -0.09)">
     <defs>
      <path id="Junicode-41" d="M 31 -22  Q -13 -22 -13 97  Q -13 216 31 216  Q 334 216 434 303  Q 534 391 641 628  L 1819 3713  Q 1838 3766 1838 3806  Q 1838 3847 1797 3889  Q 1756 3931 1756 3950  Q 1756 3969 1879 4036  Q 2003 4103 2168 4218  Q 2334 4334 2372 4334  Q 2444 4334 2481 4197  Q 2563 3894 2634 3678  L 3675 581  Q 3797 216 4275 216  Q 4316 216 4316 97  Q 4316 -22 4275 -22  Q 4047 0 3553 0  Q 3059 0 2834 -22  Q 2791 -22 2791 97  Q 2791 216 2834 216  Q 3144 216 3144 428  Q 3144 500 3119 581  L 2803 1559  Q 2775 1659 2666 1659  L 1394 1659  Q 1306 1659 1269 1550  L 916 569  Q 888 500 888 444  Q 888 216 1359 216  Q 1403 216 1403 97  Q 1403 -22 1359 -22  Q 1094 0 694 0  Q 294 0 31 -22  z M 2600 1875  Q 2678 1875 2678 1925  Q 2678 1941 2672 1959  L 2141 3622  Q 2122 3684 2084 3684  Q 2047 3684 2025 3622  L 1409 1959  Q 1403 1944 1403 1925  Q 1403 1875 1478 1875  L 2600 1875  z " transform="scale(0.015625)" />
     </defs>
     <use xlink:href="#Junicode-41" />
    </g>
   </g>
  </g>
 </g>
</svg></g>

<g id="edge4" class="edge">
<title>node4-&gt;leaf5</title>
<path fill="none" stroke="#444443" stroke-width="0.3" d="M286.22,-118.81C297.06,-118.08 309.41,-117.25 319.04,-116.6" />
<polygon fill="#444443" stroke="#444443" stroke-width="0.3" points="319.36,-117.99 323.26,-116.32 319.18,-115.19 319.36,-117.99" />
</g>

<g id="node7" class="node">
<title>leaf6</title>
<polygon fill="none" stroke="#d67c03" stroke-width="0.5" stroke-dasharray="5,2" points="370,-83 303,-83 303,0 370,0 370,-83" />
<svg width="59px" height="75px" viewBox="0 0 78.52 100.932331" version="1.1" preserveAspectRatio="xMinYMin meet" x="307.5" y="-78.5">
 <metadata>
  <rdf:RDF>
   <ns2:Work>
    <dc:type rdf:resource="http://purl.org/dc/dcmitype/StillImage" />
    <dc:date>2022-10-13T15:08:01.966631</dc:date>
    <dc:format>image/svg+xml</dc:format>
    <dc:creator>
     <ns2:Agent>
      <dc:title>Matplotlib v3.5.1, https://matplotlib.org/</dc:title>
     </ns2:Agent>
    </dc:creator>
   </ns2:Work>
  </rdf:RDF>
 </metadata>
 <defs>
  <style type="text/css">*{stroke-linejoin: round; stroke-linecap: butt}</style>
 </defs>
 <g id="figure_1">
  <g id="patch_1">
   <path d="M -0 100.932331  L 78.52 100.932331  L 78.52 0  L -0 0  z " style="fill: #ffffff" />
  </g>
  <g id="axes_1">
   <g id="patch_2">
    <path d="M 78.52 39.26  C 78.52 34.104424 77.504464 28.99898 75.53151 24.235848  C 73.558557 19.472717 70.666555 15.14453 67.021012 11.498988  C 63.37547 7.853445 59.047283 4.961443 54.284152 2.98849  C 49.52102 1.015536 44.415576 -0 39.26 -0  C 34.104424 -0 28.99898 1.015536 24.235848 2.98849  C 19.472717 4.961443 15.14453 7.853445 11.498988 11.498988  C 7.853445 15.14453 4.961443 19.472717 2.98849 24.235848  C 1.015536 28.99898 0 34.104424 0 39.26  C 0 44.415576 1.015536 49.52102 2.98849 54.284152  C 4.961443 59.047283 7.853445 63.37547 11.498988 67.021012  C 15.14453 70.666555 19.472717 73.558557 24.235848 75.53151  C 28.99898 77.504464 34.104424 78.52 39.26 78.52  C 44.415576 78.52 49.52102 77.504464 54.284152 75.53151  C 59.047283 73.558557 63.37547 70.666555 67.021012 67.021012  C 70.666555 63.37547 73.558557 59.047283 75.53151 54.284152  C 77.504464 49.52102 78.52 44.415576 78.52 39.26  M 39.26 39.26  M 78.52 39.26  z " style="fill: #a1dab4; stroke: #444443; stroke-width: 0.5; stroke-linejoin: miter" />
   </g>
   <g id="text_1">
    
    <g style="fill: #444443" transform="translate(30.458984 88.187206)scale(0.09 -0.09)">
     <defs>
      <path id="Junicode-6e" d="M 2800 397  Q 2800 153 3159 153  Q 3203 153 3203 64  Q 3203 -25 3159 -25  Q 2919 0 2575 0  Q 2231 0 1978 -25  Q 1934 -25 1934 64  Q 1934 153 1978 153  Q 2322 153 2322 397  L 2322 1656  Q 2322 1919 2276 2101  Q 2231 2284 2134 2361  Q 2038 2438 1794 2438  Q 1663 2438 1556 2384  Q 1450 2331 1348 2257  Q 1247 2184 1176 2076  Q 1106 1969 1106 1844  L 1106 397  Q 1106 153 1441 153  Q 1484 153 1484 64  Q 1484 -25 1441 -25  Q 1200 0 856 0  Q 513 0 269 -25  Q 225 -25 225 64  Q 225 153 269 153  Q 628 153 628 397  L 628 1794  Q 628 2194 366 2194  Q 313 2194 313 2281  Q 313 2369 366 2369  Q 484 2369 639 2462  Q 794 2556 909 2657  Q 1025 2759 1072 2759  Q 1116 2759 1116 2711  Q 1116 2663 1109 2580  Q 1103 2497 1103 2433  Q 1103 2369 1150 2369  Q 1175 2369 1197 2388  Q 1531 2719 2006 2719  Q 2469 2719 2697 2259  Q 2800 2053 2800 1484  L 2800 397  z " transform="scale(0.015625)" />
      <path id="Junicode-3d" d="M 2834 1863  L 372 1863  L 372 2175  L 2834 2175  L 2834 1863  z M 2834 1031  L 372 1031  L 372 1344  L 2834 1344  L 2834 1031  z " transform="scale(0.015625)" />
      <path id="Junicode-37" d="M 2778 3950  L 1184 0  Q 1163 -44 939 -44  Q 716 -44 716 0  Q 756 69 875 313  L 1069 744  L 2309 3559  Q 2338 3628 2338 3647  Q 2338 3694 2234 3694  L 1563 3694  Q 1053 3694 903 3653  Q 572 3563 447 3244  Q 428 3200 347 3200  Q 266 3200 263 3244  L 422 4019  Q 441 4116 550 4116  L 2681 4116  Q 2803 4116 2803 4044  Q 2803 4009 2778 3950  z " transform="scale(0.015625)" />
      <path id="Junicode-31" d="M 716 -25  Q 672 -25 672 64  Q 672 153 716 153  Q 1113 153 1219 273  Q 1325 394 1325 813  L 1325 3531  Q 1325 3678 1259 3678  Q 1238 3678 1184 3653  L 781 3469  Q 747 3453 715 3523  Q 684 3594 722 3616  Q 1406 3947 1734 4275  Q 1753 4294 1784 4294  Q 1825 4294 1825 4250  Q 1806 3859 1806 3713  L 1806 819  Q 1806 353 1943 253  Q 2081 153 2363 153  Q 2406 153 2406 64  Q 2406 -25 2363 -25  Q 2113 0 1538 0  Q 963 0 716 -25  z " transform="scale(0.015625)" />
     </defs>
     <use xlink:href="#Junicode-6e" />
     <use xlink:href="#Junicode-3d" x="52.197266" />
     <use xlink:href="#Junicode-37" x="102.197266" />
     <use xlink:href="#Junicode-31" x="148.876953" />
    </g>
    
    <g style="fill: #444443" transform="translate(36.513594 98.475613)scale(0.09 -0.09)">
     <defs>
      <path id="Junicode-42" d="M 847 581  L 847 3663  Q 847 4006 256 4006  Q 213 4006 213 4125  Q 213 4244 256 4244  Q 613 4225 1006 4225  Q 1400 4225 1572 4234  Q 1744 4244 1966 4244  Q 2506 4244 2872 3991  Q 3238 3738 3238 3234  Q 3238 2613 2625 2328  Q 2578 2306 2578 2288  Q 2578 2266 2625 2250  Q 2963 2141 3245 1852  Q 3528 1563 3528 1084  Q 3528 641 3201 309  Q 2875 -22 1966 -22  Q 1766 -22 1528 -11  Q 1291 0 916 0  Q 541 0 284 -22  Q 244 -22 244 97  Q 244 216 284 216  Q 847 216 847 581  z M 1347 2466  Q 1347 2353 1594 2353  Q 2700 2353 2700 3225  Q 2700 4053 1509 4053  Q 1347 4053 1347 3844  L 1347 2466  z M 1347 866  Q 1347 178 1922 178  Q 2963 178 2963 1163  Q 2963 1822 2269 2066  Q 1997 2156 1456 2159  Q 1347 2159 1347 2066  L 1347 866  z " transform="scale(0.015625)" />
     </defs>
     <use xlink:href="#Junicode-42" />
    </g>
   </g>
  </g>
 </g>
</svg></g>

<g id="edge5" class="edge">
<title>node4-&gt;leaf6</title>
<path fill="none" stroke="#d67c03" stroke-width="1.2" d="M267.35,-113.76C274.75,-105.92 287.55,-92.35 300.07,-79.07" />
<polygon fill="#d67c03" stroke="#d67c03" stroke-width="1.2" points="301.18,-79.93 302.91,-76.06 299.14,-78.01 301.18,-79.93" />
</g>

<g id="node3" class="node">
<title>node0</title>
<polygon fill="none" stroke="#d67c03" stroke-width="0.5" stroke-dasharray="5,2" points="129.5,-149 78.5,-149 78.5,-136 129.5,-136 129.5,-149" />
<text text-anchor="start" x="78.5" y="-139.4" font-family="Helvetica,sans-Serif" font-size="12.00" fill="#444443"> zij@0.00</text>
</g>

<g id="edge7" class="edge">
<title>node0-&gt;node1</title>
<path fill="none" stroke="#444443" stroke-width="0.3" d="M129.74,-144.75C157.46,-147.27 202.28,-151.34 231.18,-153.97" />
<polygon fill="#444443" stroke="#444443" stroke-width="0.3" points="231.22,-155.38 235.33,-154.35 231.47,-152.59 231.22,-155.38" />
<text text-anchor="start" x="217.5" y="-156.3" font-family="Times,serif" font-size="14.00">&#8804;</text>
</g>

<g id="edge8" class="edge">
<title>node0-&gt;node4</title>
<path fill="none" stroke="#d67c03" stroke-width="1.2" d="M129.74,-138.97C156.97,-135.08 200.71,-128.83 229.65,-124.69" />
<polygon fill="#d67c03" stroke="#d67c03" stroke-width="1.2" points="230.05,-126.05 233.81,-124.1 229.65,-123.28 230.05,-126.05" />
<text text-anchor="start" x="217" y="-130.3" font-family="Times,serif" font-size="14.00">&gt;</text>
</g>



<g id="node9" class="node">
<title>X_y</title>
<polygon fill="none" stroke="black" stroke-width="0.3" points="577,-57.5 513,-57.5 513,-25.5 577,-25.5 577,-57.5" />
<polygon fill="white" stroke="transparent" points="515,-41.5 515,-55.5 539,-55.5 539,-41.5 515,-41.5" />
<text text-anchor="start" x="525" y="-45.7" font-family="Helvetica,sans-Serif" font-size="11.00" fill="#d67c03"> zij</text>
<polygon fill="white" stroke="transparent" points="539,-41.5 539,-55.5 563,-55.5 563,-41.5 539,-41.5" />
<text text-anchor="start" x="546" y="-45.7" font-family="Helvetica,sans-Serif" font-size="11.00" fill="#d67c03">a&#275; </text>
<polygon fill="white" stroke="transparent" points="563,-41.5 563,-55.5 575,-55.5 575,-41.5 563,-41.5" />
<text text-anchor="start" x="564" y="-45.7" font-family="Helvetica,sans-Serif" font-size="11.00" fill="#444443">...</text>
<polygon fill="white" stroke="transparent" points="515,-27.5 515,-41.5 539,-41.5 539,-27.5 515,-27.5" />
<text text-anchor="start" x="516" y="-31.7" font-family="Helvetica,sans-Serif" font-size="11.00" fill="#d67c03">0.01</text>
<polygon fill="white" stroke="transparent" points="539,-27.5 539,-41.5 563,-41.5 563,-27.5 539,-27.5" />
<text text-anchor="start" x="540" y="-31.7" font-family="Helvetica,sans-Serif" font-size="11.00" fill="#d67c03">0.01</text>
<polygon fill="white" stroke="transparent" points="563,-27.5 563,-41.5 575,-41.5 575,-27.5 563,-27.5" />
<text text-anchor="start" x="564" y="-31.7" font-family="Helvetica,sans-Serif" font-size="11.00" fill="#444443">...</text>
</g>

<g id="edge10" class="edge">
<title>leaf6-&gt;X_y</title>
<path fill="none" stroke="#d67c03" stroke-width="1.2" d="M374.44,-41.5C413.88,-41.5 475.69,-41.5 512.78,-41.5" />
<polygon fill="#d67c03" stroke="#d67c03" stroke-width="1.2" points="374.22,-40.1 370.22,-41.5 374.22,-42.9 374.22,-40.1" />
<text text-anchor="start" x="378" y="-56.7" font-family="Helvetica,sans-Serif" font-size="11.00" fill="#444443"> &#160;Prediction</text>
<text text-anchor="start" x="400" y="-44.7" font-family="Helvetica,sans-Serif" font-size="11.00" fill="#444443"> B</text>
</g>

<g id="node8" class="node">
<title>legend</title>
<polygon fill="none" stroke="black" stroke-width="0" points="152,-203.5 56,-203.5 56,-155.5 152,-155.5 152,-203.5" />
<svg width="92px" height="44px" viewBox="0 0 123.16875 58.721875" version="1.1" preserveAspectRatio="xMinYMin meet" x="58" y="-201.5">
 <metadata>
  <rdf:RDF>
   <ns2:Work>
    <dc:type rdf:resource="http://purl.org/dc/dcmitype/StillImage" />
    <dc:date>2022-10-13T15:08:01.868701</dc:date>
    <dc:format>image/svg+xml</dc:format>
    <dc:creator>
     <ns2:Agent>
      <dc:title>Matplotlib v3.5.1, https://matplotlib.org/</dc:title>
     </ns2:Agent>
    </dc:creator>
   </ns2:Work>
  </rdf:RDF>
 </metadata>
 <defs>
  <style type="text/css">*{stroke-linejoin: round; stroke-linecap: butt}</style>
 </defs>
 <g id="figure_1">
  <g id="patch_1">
   <path d="M 0 58.721875  L 123.16875 58.721875  L 123.16875 0  L 0 0  z " style="fill: #ffffff" />
  </g>
  <g id="axes_1">
   <g id="legend_1">
    <g id="patch_2">
     <path d="M 2.2 58.721875  L 120.96875 58.721875  Q 123.16875 58.721875 123.16875 56.521875  L 123.16875 2.2  Q 123.16875 0 120.96875 0  L 2.2 0  Q -0 0 -0 2.2  L -0 56.521875  Q -0 58.721875 2.2 58.721875  z " style="fill: #eaeaf2; opacity: 0.8; stroke: #444443; stroke-width: 0.5; stroke-linejoin: miter" />
    </g>
    <g id="text_1">
     
     <g style="fill: #444443" transform="translate(8.8 15.957813)scale(0.1 -0.1)">
      <defs>
       <path id="Arial-BoldMT-48" d="M 469 0  L 469 4581  L 1394 4581  L 1394 2778  L 3206 2778  L 3206 4581  L 4131 4581  L 4131 0  L 3206 0  L 3206 2003  L 1394 2003  L 1394 0  L 469 0  z " transform="scale(0.015625)" />
       <path id="Arial-BoldMT-61" d="M 1116 2306  L 319 2450  Q 453 2931 781 3162  Q 1109 3394 1756 3394  Q 2344 3394 2631 3255  Q 2919 3116 3036 2902  Q 3153 2688 3153 2116  L 3144 1091  Q 3144 653 3186 445  Q 3228 238 3344 0  L 2475 0  Q 2441 88 2391 259  Q 2369 338 2359 363  Q 2134 144 1878 34  Q 1622 -75 1331 -75  Q 819 -75 523 203  Q 228 481 228 906  Q 228 1188 362 1408  Q 497 1628 739 1745  Q 981 1863 1438 1950  Q 2053 2066 2291 2166  L 2291 2253  Q 2291 2506 2166 2614  Q 2041 2722 1694 2722  Q 1459 2722 1328 2630  Q 1197 2538 1116 2306  z M 2291 1594  Q 2122 1538 1756 1459  Q 1391 1381 1278 1306  Q 1106 1184 1106 997  Q 1106 813 1243 678  Q 1381 544 1594 544  Q 1831 544 2047 700  Q 2206 819 2256 991  Q 2291 1103 2291 1419  L 2291 1594  z " transform="scale(0.015625)" />
       <path id="Arial-BoldMT-64" d="M 3503 0  L 2688 0  L 2688 488  Q 2484 203 2207 64  Q 1931 -75 1650 -75  Q 1078 -75 670 386  Q 263 847 263 1672  Q 263 2516 659 2955  Q 1056 3394 1663 3394  Q 2219 3394 2625 2931  L 2625 4581  L 3503 4581  L 3503 0  z M 1159 1731  Q 1159 1200 1306 963  Q 1519 619 1900 619  Q 2203 619 2415 876  Q 2628 1134 2628 1647  Q 2628 2219 2422 2470  Q 2216 2722 1894 2722  Q 1581 2722 1370 2473  Q 1159 2225 1159 1731  z " transform="scale(0.015625)" />
       <path id="Arial-BoldMT-65" d="M 2381 1056  L 3256 909  Q 3088 428 2723 176  Q 2359 -75 1813 -75  Q 947 -75 531 491  Q 203 944 203 1634  Q 203 2459 634 2926  Q 1066 3394 1725 3394  Q 2466 3394 2894 2905  Q 3322 2416 3303 1406  L 1103 1406  Q 1113 1016 1316 798  Q 1519 581 1822 581  Q 2028 581 2168 693  Q 2309 806 2381 1056  z M 2431 1944  Q 2422 2325 2234 2523  Q 2047 2722 1778 2722  Q 1491 2722 1303 2513  Q 1116 2303 1119 1944  L 2431 1944  z " transform="scale(0.015625)" />
       <path id="Arial-BoldMT-77" d="M 1078 0  L 28 3319  L 881 3319  L 1503 1144  L 2075 3319  L 2922 3319  L 3475 1144  L 4109 3319  L 4975 3319  L 3909 0  L 3066 0  L 2494 2134  L 1931 0  L 1078 0  z " transform="scale(0.015625)" />
       <path id="Arial-BoldMT-69" d="M 459 3769  L 459 4581  L 1338 4581  L 1338 3769  L 459 3769  z M 459 0  L 459 3319  L 1338 3319  L 1338 0  L 459 0  z " transform="scale(0.015625)" />
       <path id="Arial-BoldMT-6a" d="M 441 3769  L 441 4581  L 1319 4581  L 1319 3769  L 441 3769  z M 1319 3319  L 1319 103  Q 1319 -531 1236 -792  Q 1153 -1053 917 -1200  Q 681 -1347 316 -1347  Q 184 -1347 32 -1323  Q -119 -1300 -294 -1253  L -141 -503  Q -78 -516 -23 -523  Q 31 -531 78 -531  Q 213 -531 298 -473  Q 384 -416 412 -334  Q 441 -253 441 153  L 441 3319  L 1319 3319  z " transform="scale(0.015625)" />
       <path id="Arial-BoldMT-63" d="M 3353 2338  L 2488 2181  Q 2444 2441 2289 2572  Q 2134 2703 1888 2703  Q 1559 2703 1364 2476  Q 1169 2250 1169 1719  Q 1169 1128 1367 884  Q 1566 641 1900 641  Q 2150 641 2309 783  Q 2469 925 2534 1272  L 3397 1125  Q 3263 531 2881 228  Q 2500 -75 1859 -75  Q 1131 -75 698 384  Q 266 844 266 1656  Q 266 2478 700 2936  Q 1134 3394 1875 3394  Q 2481 3394 2839 3133  Q 3197 2872 3353 2338  z " transform="scale(0.015625)" />
       <path id="Arial-BoldMT-68" d="M 1334 4581  L 1334 2897  Q 1759 3394 2350 3394  Q 2653 3394 2897 3281  Q 3141 3169 3264 2994  Q 3388 2819 3433 2606  Q 3478 2394 3478 1947  L 3478 0  L 2600 0  L 2600 1753  Q 2600 2275 2550 2415  Q 2500 2556 2373 2639  Q 2247 2722 2056 2722  Q 1838 2722 1666 2615  Q 1494 2509 1414 2295  Q 1334 2081 1334 1663  L 1334 0  L 456 0  L 456 4581  L 1334 4581  z " transform="scale(0.015625)" />
       <path id="Arial-BoldMT-20" transform="scale(0.015625)" />
       <path id="Arial-BoldMT-4d" d="M 453 0  L 453 4581  L 1838 4581  L 2669 1456  L 3491 4581  L 4878 4581  L 4878 0  L 4019 0  L 4019 3606  L 3109 0  L 2219 0  L 1313 3606  L 1313 0  L 453 0  z " transform="scale(0.015625)" />
       <path id="Arial-BoldMT-6e" d="M 3478 0  L 2600 0  L 2600 1694  Q 2600 2231 2544 2389  Q 2488 2547 2361 2634  Q 2234 2722 2056 2722  Q 1828 2722 1647 2597  Q 1466 2472 1398 2265  Q 1331 2059 1331 1503  L 1331 0  L 453 0  L 453 3319  L 1269 3319  L 1269 2831  Q 1703 3394 2363 3394  Q 2653 3394 2893 3289  Q 3134 3184 3257 3021  Q 3381 2859 3429 2653  Q 3478 2447 3478 2063  L 3478 0  z " transform="scale(0.015625)" />
       <path id="Arial-BoldMT-75" d="M 2644 0  L 2644 497  Q 2463 231 2167 78  Q 1872 -75 1544 -75  Q 1209 -75 943 72  Q 678 219 559 484  Q 441 750 441 1219  L 441 3319  L 1319 3319  L 1319 1794  Q 1319 1094 1367 936  Q 1416 778 1544 686  Q 1672 594 1869 594  Q 2094 594 2272 717  Q 2450 841 2515 1023  Q 2581 1206 2581 1919  L 2581 3319  L 3459 3319  L 3459 0  L 2644 0  z " transform="scale(0.015625)" />
       <path id="Arial-BoldMT-73" d="M 150 947  L 1031 1081  Q 1088 825 1259 692  Q 1431 559 1741 559  Q 2081 559 2253 684  Q 2369 772 2369 919  Q 2369 1019 2306 1084  Q 2241 1147 2013 1200  Q 950 1434 666 1628  Q 272 1897 272 2375  Q 272 2806 612 3100  Q 953 3394 1669 3394  Q 2350 3394 2681 3172  Q 3013 2950 3138 2516  L 2309 2363  Q 2256 2556 2107 2659  Q 1959 2763 1684 2763  Q 1338 2763 1188 2666  Q 1088 2597 1088 2488  Q 1088 2394 1175 2328  Q 1294 2241 1995 2081  Q 2697 1922 2975 1691  Q 3250 1456 3250 1038  Q 3250 581 2869 253  Q 2488 -75 1741 -75  Q 1063 -75 667 200  Q 272 475 150 947  z " transform="scale(0.015625)" />
       <path id="Arial-BoldMT-72" d="M 1300 0  L 422 0  L 422 3319  L 1238 3319  L 1238 2847  Q 1447 3181 1614 3287  Q 1781 3394 1994 3394  Q 2294 3394 2572 3228  L 2300 2463  Q 2078 2606 1888 2606  Q 1703 2606 1575 2504  Q 1447 2403 1373 2137  Q 1300 1872 1300 1025  L 1300 0  z " transform="scale(0.015625)" />
       <path id="Arial-BoldMT-70" d="M 434 3319  L 1253 3319  L 1253 2831  Q 1413 3081 1684 3237  Q 1956 3394 2288 3394  Q 2866 3394 3269 2941  Q 3672 2488 3672 1678  Q 3672 847 3265 386  Q 2859 -75 2281 -75  Q 2006 -75 1782 34  Q 1559 144 1313 409  L 1313 -1263  L 434 -1263  L 434 3319  z M 1303 1716  Q 1303 1156 1525 889  Q 1747 622 2066 622  Q 2372 622 2575 867  Q 2778 1113 2778 1672  Q 2778 2194 2568 2447  Q 2359 2700 2050 2700  Q 1728 2700 1515 2451  Q 1303 2203 1303 1716  z " transform="scale(0.015625)" />
       <path id="Arial-BoldMT-74" d="M 1981 3319  L 1981 2619  L 1381 2619  L 1381 1281  Q 1381 875 1398 808  Q 1416 741 1477 697  Q 1538 653 1625 653  Q 1747 653 1978 738  L 2053 56  Q 1747 -75 1359 -75  Q 1122 -75 931 4  Q 741 84 652 211  Q 563 338 528 553  Q 500 706 500 1172  L 500 2619  L 97 2619  L 97 3319  L 500 3319  L 500 3978  L 1381 4491  L 1381 3319  L 1981 3319  z " transform="scale(0.015625)" />
      </defs>
      <use xlink:href="#Arial-BoldMT-48" />
      <use xlink:href="#Arial-BoldMT-61" x="72.216797" />
      <use xlink:href="#Arial-BoldMT-64" x="127.832031" />
      <use xlink:href="#Arial-BoldMT-65" x="188.916016" />
      <use xlink:href="#Arial-BoldMT-77" x="244.53125" />
      <use xlink:href="#Arial-BoldMT-69" x="322.314453" />
      <use xlink:href="#Arial-BoldMT-6a" x="350.097656" />
      <use xlink:href="#Arial-BoldMT-63" x="377.880859" />
      <use xlink:href="#Arial-BoldMT-68" x="433.496094" />
      <use xlink:href="#Arial-BoldMT-20" x="494.580078" />
      <use xlink:href="#Arial-BoldMT-4d" x="522.363281" />
      <use xlink:href="#Arial-BoldMT-61" x="605.664062" />
      <use xlink:href="#Arial-BoldMT-6e" x="661.279297" />
      <use xlink:href="#Arial-BoldMT-75" x="722.363281" />
      <use xlink:href="#Arial-BoldMT-73" x="783.447266" />
      <use xlink:href="#Arial-BoldMT-63" x="839.0625" />
      <use xlink:href="#Arial-BoldMT-72" x="894.677734" />
      <use xlink:href="#Arial-BoldMT-69" x="933.59375" />
      <use xlink:href="#Arial-BoldMT-70" x="961.376953" />
      <use xlink:href="#Arial-BoldMT-74" x="1022.460938" />
     </g>
    </g>
    <g id="patch_3">
     <path d="M 45.246094 31.2625  L 67.246094 31.2625  L 67.246094 23.5625  L 45.246094 23.5625  z " style="fill: #fefebb; stroke: #444443; stroke-width: 0.4; stroke-linejoin: miter" />
    </g>
    <g id="text_2">
     
     <g style="fill: #444443" transform="translate(71.096094 31.2625)scale(0.1 -0.1)">
      <defs>
       <path id="Junicode-41" d="M 31 -22  Q -13 -22 -13 97  Q -13 216 31 216  Q 334 216 434 303  Q 534 391 641 628  L 1819 3713  Q 1838 3766 1838 3806  Q 1838 3847 1797 3889  Q 1756 3931 1756 3950  Q 1756 3969 1879 4036  Q 2003 4103 2168 4218  Q 2334 4334 2372 4334  Q 2444 4334 2481 4197  Q 2563 3894 2634 3678  L 3675 581  Q 3797 216 4275 216  Q 4316 216 4316 97  Q 4316 -22 4275 -22  Q 4047 0 3553 0  Q 3059 0 2834 -22  Q 2791 -22 2791 97  Q 2791 216 2834 216  Q 3144 216 3144 428  Q 3144 500 3119 581  L 2803 1559  Q 2775 1659 2666 1659  L 1394 1659  Q 1306 1659 1269 1550  L 916 569  Q 888 500 888 444  Q 888 216 1359 216  Q 1403 216 1403 97  Q 1403 -22 1359 -22  Q 1094 0 694 0  Q 294 0 31 -22  z M 2600 1875  Q 2678 1875 2678 1925  Q 2678 1941 2672 1959  L 2141 3622  Q 2122 3684 2084 3684  Q 2047 3684 2025 3622  L 1409 1959  Q 1403 1944 1403 1925  Q 1403 1875 1478 1875  L 2600 1875  z " transform="scale(0.015625)" />
      </defs>
      <use xlink:href="#Junicode-41" />
     </g>
    </g>
    <g id="patch_4">
     <path d="M 45.246094 47.192188  L 67.246094 47.192188  L 67.246094 39.492188  L 45.246094 39.492188  z " style="fill: #a1dab4; stroke: #444443; stroke-width: 0.4; stroke-linejoin: miter" />
    </g>
    <g id="text_3">
     
     <g style="fill: #444443" transform="translate(71.096094 47.192188)scale(0.1 -0.1)">
      <defs>
       <path id="Junicode-42" d="M 847 581  L 847 3663  Q 847 4006 256 4006  Q 213 4006 213 4125  Q 213 4244 256 4244  Q 613 4225 1006 4225  Q 1400 4225 1572 4234  Q 1744 4244 1966 4244  Q 2506 4244 2872 3991  Q 3238 3738 3238 3234  Q 3238 2613 2625 2328  Q 2578 2306 2578 2288  Q 2578 2266 2625 2250  Q 2963 2141 3245 1852  Q 3528 1563 3528 1084  Q 3528 641 3201 309  Q 2875 -22 1966 -22  Q 1766 -22 1528 -11  Q 1291 0 916 0  Q 541 0 284 -22  Q 244 -22 244 97  Q 244 216 284 216  Q 847 216 847 581  z M 1347 2466  Q 1347 2353 1594 2353  Q 2700 2353 2700 3225  Q 2700 4053 1509 4053  Q 1347 4053 1347 3844  L 1347 2466  z M 1347 866  Q 1347 178 1922 178  Q 2963 178 2963 1163  Q 2963 1822 2269 2066  Q 1997 2156 1456 2159  Q 1347 2159 1347 2066  L 1347 866  z " transform="scale(0.015625)" />
      </defs>
      <use xlink:href="#Junicode-42" />
     </g>
    </g>
   </g>
  </g>
 </g>
</svg></g>
</g>
</svg>